<?xml version="1.0" encoding="UTF-8"?>
<svg width="976px" height="168px" viewBox="0 0 976 168" version="1.1" xmlns="http://www.w3.org/2000/svg" xmlns:xlink="http://www.w3.org/1999/xlink">
    <title>graphic/about/about-graphic-body-5</title>
    <g id="DPLA" stroke="none" stroke-width="1" fill="none" fill-rule="evenodd">
        <g id="2.0-About" transform="translate(-232.000000, -3528.000000)">
            <g id="section" transform="translate(-1.000000, 2724.000000)">
                <g id="graphic/about/about-graphic-body-5" transform="translate(233.000000, 804.000000)">
                    <g id="bubble" transform="translate(0.000000, 14.000000)">
                        <path d="M149.422932,74.6114334 C149.422932,115.818262 115.973541,149.222867 74.711466,149.222867 C33.4493907,149.222867 0,115.818262 0,74.6114334 C0,33.4046046 33.4493907,0 74.711466,0 C115.973541,0 149.422932,33.4046046 149.422932,74.6114334" id="Fill-1" fill="#EC5938"></path>
                        <path d="M51.9755441,92.055346 L65.906182,107.455401 L37.6372618,107.455401 L37.6372618,99.2528227 L51.9755441,92.055346 Z M81.9958624,91.0492577 L95.7388856,106.575567 L95.7388856,107.455401 L74.0453207,107.455401 L66.3128442,98.9066099 L81.9958624,91.0492577 Z M64.6842307,73.260236 C66.379639,73.260236 67.6899952,74.5750553 67.6899952,76.2775145 C67.6899952,77.9789873 66.379639,79.294793 64.6842307,79.294793 C62.9898046,79.294793 61.6794485,77.9789873 61.6794485,76.2775145 C61.6794485,74.5750553 62.9898046,73.260236 64.6842307,73.260236 L64.6842307,73.260236 Z M64.6842307,67.225679 C59.7404357,67.225679 55.6689018,71.3141456 55.6689018,76.2775145 C55.6689018,81.2408833 59.7404357,85.3293499 64.6842307,85.3293499 C69.6290079,85.3293499 73.7005418,81.2408833 73.7005418,76.2775145 C73.7005418,71.3141456 69.6290079,67.225679 64.6842307,67.225679 L64.6842307,67.225679 Z M58.7375319,41.7361365 L115.084811,57.2308824 L102.657055,102.678455 L101.749432,102.426933 L101.749432,58.1738436 C101.74845,56.5078797 100.403714,55.1565651 98.7436678,55.1565651 L54.9174607,55.1565651 L58.7375319,41.7361365 Z M56.2631788,35.041704 C55.0844476,35.208399 54.1149412,36.0586422 53.7907901,37.2097256 L48.6564336,55.1565651 L34.6324796,55.1565651 C34.5283583,55.1506469 34.4242371,55.1506469 34.3191335,55.1565651 C32.7828539,55.3183283 31.6188569,56.623284 31.6269607,58.1738436 L31.6269607,70.2429575 C31.6041228,71.9099077 32.9301953,73.2789769 34.5902417,73.3026495 C36.2493058,73.3263222 37.6146694,71.9947347 37.6372618,70.3287709 C37.6382441,70.3001664 37.6382441,70.271562 37.6372618,70.2429575 L37.6372618,61.191122 L95.7388856,61.191122 L95.7388856,97.4931545 L84.9701941,85.3293499 C84.361183,84.6428426 83.4732055,84.2729572 82.5596888,84.3232617 C82.1461506,84.3449616 81.7404707,84.4524749 81.3701526,84.6379108 L62.1175436,94.2864947 L54.8870101,86.3038747 C54.2721054,85.6292037 53.3851102,85.2711546 52.4765049,85.3293499 C52.0727895,85.3549953 51.6788968,85.4615223 51.3174192,85.6439991 L37.6372618,92.495263 L37.6372618,80.3008812 C37.6618187,78.6349174 36.3347638,77.2638755 34.6756997,77.2402029 C33.014671,77.2175166 31.651272,78.549104 31.6269607,80.2150678 C31.6269607,80.2436723 31.6269607,80.2722768 31.6269607,80.3008812 L31.6269607,110.47268 C31.6269607,112.13963 32.9724332,113.489958 34.6324796,113.489958 L98.7436678,113.489958 C100.403714,113.489958 101.74845,112.13963 101.749432,110.47268 L101.749432,108.713012 L103.939908,109.341324 C105.536106,109.799981 107.200082,108.871816 107.65684,107.268979 C107.658804,107.258129 107.661751,107.247279 107.664698,107.235443 L121.689634,55.9426948 C122.125765,54.33394 121.180816,52.675867 119.578723,52.2389091 C119.57283,52.2369363 119.567918,52.2349636 119.561042,52.2339773 L57.4536972,35.1354083 C57.0676628,35.0249358 56.6619828,34.9923859 56.2631788,35.041704 L56.2631788,35.041704 Z" id="Fill-1" stroke="#EC5938" stroke-width="2.9" fill="#FFF7F7"></path>
                    </g>
                    <g id="bubble" transform="translate(212.000000, 14.000000)">
                        <path d="M86.4511609,43.1677049 C86.4511609,67.0086116 67.098451,86.3354098 43.2255804,86.3354098 C19.3527099,86.3354098 0,67.0086116 0,43.1677049 C0,19.3267982 19.3527099,0 43.2255804,0 C67.098451,0 86.4511609,19.3267982 86.4511609,43.1677049" id="Fill-1-Copy-3" fill="#BFCADD"></path>
                        <path d="M62.6376363,59.6603464 C62.638269,59.7195199 62.5909759,59.7678767 62.53154,59.7678767 C62.5257881,59.768513 62.5206753,59.7678767 62.5155625,59.7672404 L53.0601346,59.7672404 C53.0006986,59.7672404 52.9527664,59.7195199 52.9527664,59.6603464 L52.9527664,54.9232885 C52.9489318,54.3710029 52.644083,53.8632564 52.1577308,53.5979303 C51.9366035,53.4636765 51.680965,53.3949589 51.4227702,53.4000491 C50.577885,53.4000491 49.8927739,54.0814983 49.8927739,54.9232885 L49.8927739,62.8894356 C49.8927739,63.1337647 49.694015,63.3316459 49.4486021,63.3316459 L38.0809983,63.3316459 C37.8355854,63.3316459 37.6372443,63.1337647 37.6372443,62.8894356 L37.6372443,42.1736353 C37.6131799,39.2849526 39.5905435,36.7602184 42.411514,36.0800418 C45.7086112,35.3400554 48.9839791,37.4015823 49.7278871,40.6841185 C49.8256688,41.1174209 49.8761574,41.56154 49.8774356,42.0062953 L49.8774356,48.4492032 C49.8774356,49.2903571 50.5619076,49.9724425 51.4074318,49.9724425 C51.6662658,49.9775327 51.9206261,49.9088151 52.1417534,49.7745614 C52.6287446,49.5092352 52.9329544,49.0021251 52.9374281,48.4492032 L52.9374281,42.4478693 C52.8933305,40.1019281 54.5096047,38.0467639 56.8084337,37.5275645 C59.4332017,36.9975485 61.993421,38.6868553 62.5257881,41.3006678 C62.5896977,41.6130782 62.6216525,41.931215 62.6229307,42.2499882 L62.6376363,59.6603464 Z M40.3612935,27.0933115 C40.3612935,25.2258481 41.8810642,23.7121529 43.7574506,23.7121529 C45.633837,23.7121529 47.1536077,25.2258481 47.1536077,27.0933115 C47.1536077,28.9607749 45.633837,30.4751064 43.7574506,30.4751064 C41.8874551,30.4751064 40.3689626,28.970319 40.3612935,27.1085821 L40.3612935,27.0933115 Z M55.2017011,29.8203807 C55.1934376,28.3983089 56.3438107,27.2390182 57.7721907,27.2307021 C59.2005707,27.2224751 60.3643648,28.3677678 60.3733568,29.7898396 C60.3816204,31.2112751 59.2306082,32.3705659 57.8028673,32.3788374 L57.7721907,32.3788374 C56.3559536,32.3705659 55.2100541,31.2297271 55.2017011,29.8203807 L55.2017011,29.8203807 Z M63.8001459,37.177614 L63.8001459,37.177614 C63.2077037,36.501255 62.5040588,35.9292449 61.7192487,35.4863984 C61.2725205,35.227435 60.8015066,35.0130107 60.3119589,34.8469433 C62.6612765,33.6882888 63.8883411,31.0611145 63.2645833,28.5249274 C63.0613507,27.7143147 62.6683065,26.9622391 62.1180447,26.3316919 C60.1406811,23.942484 56.5917801,23.600805 54.1919739,25.5694359 C52.9137815,26.6173788 52.1641217,28.1724318 52.1417534,29.8203807 C52.139197,31.5465914 52.956601,33.1729071 54.3447179,34.2068519 C54.6252811,34.4460908 54.9333255,34.6503347 55.2630991,34.8164021 L55.002987,34.9080255 C53.9184407,35.3222397 52.9406236,35.9725115 52.1417534,36.8117566 C52.0228815,36.917378 51.9155133,37.0344524 51.820288,37.1623434 L51.6528448,37.344954 C51.3492741,36.8333899 50.9958539,36.3536395 50.5964188,35.913338 C49.7694283,34.9932862 48.7583782,34.2564812 47.6284561,33.7500073 C47.0941717,33.4802273 46.5292107,33.2747109 45.9457159,33.1404571 C49.3009708,31.9646232 51.0635981,28.3028679 49.8819093,24.9624308 C49.6416091,24.2828904 49.2881889,23.6491618 48.836987,23.0873321 C47.9480042,21.959855 46.6934584,21.1740569 45.2874468,20.8629191 C41.8165155,20.0134937 38.3110729,22.1265587 37.4578795,25.5815251 C37.3338949,26.0816363 37.2712634,26.5938366 37.2706243,27.1085821 C37.2725416,29.0555797 38.1755845,30.8931383 39.7183627,32.0899692 C40.2737373,32.5188177 40.8936606,32.8579516 41.554486,33.0952817 C41.3717045,33.1366395 41.1921185,33.1926316 41.0189234,33.2626217 C38.856222,33.9230738 37.0143468,35.355326 35.8473572,37.2838717 C35.7553273,37.177614 35.6786358,37.07072 35.587245,36.9797328 C35.0267577,36.3701826 34.371045,35.8554371 33.6443926,35.4558572 C33.1944689,35.1892585 32.7170641,34.9691078 32.2211254,34.8011316 C34.5768339,33.646931 35.8102896,31.0184842 35.1897272,28.479752 C35.0005547,27.6799559 34.6292398,26.9342431 34.1032637,26.3011507 C33.3363483,25.3257431 32.2562757,24.6430214 31.0426321,24.3668786 C29.1803058,23.8915821 27.2042204,24.4044187 25.8103516,25.7221416 C25.2370824,26.3132399 25.2370824,27.2498349 25.8103516,27.8396606 C26.0973058,28.1482534 26.5056883,28.3149571 26.9274918,28.2965052 L27.0348599,28.2965052 C27.3991447,28.3143208 27.7563995,28.1883386 28.0292936,27.9465546 C29.0869978,27.0042332 30.7122193,27.0939478 31.6580817,28.1476171 C32.0728551,28.607643 32.304847,29.2019227 32.3131553,29.8203807 C32.3169899,31.2329084 31.1698122,32.3826551 29.7497405,32.3864727 C28.8447803,32.3890178 28.005647,31.9169027 27.5391068,31.1457389 C27.2796338,30.6589895 26.7766651,30.351033 26.2232078,30.3376713 L26.1011404,30.3376713 C25.7125699,30.3433978 25.340616,30.4961035 25.0606918,30.764611 C24.6261064,31.2309996 24.5283247,31.9169027 24.815918,32.4857314 C25.1904283,33.1659081 25.7138481,33.753825 26.3459142,34.2068519 C26.6315902,34.4467271 26.9447474,34.650971 27.2796338,34.8164021 L26.9274918,34.9226598 C23.8502437,36.0634986 21.8025795,38.9808137 21.7866013,42.2499882 L21.7866013,43.9711086 C21.785963,44.5952932 22.1681425,45.1564866 22.7503591,45.387454 C22.9318624,45.4536264 23.1235913,45.489894 23.3165983,45.494348 C24.1614835,45.494348 24.8465946,44.8122625 24.8465946,43.9711086 L24.8465946,42.4478693 C24.8101661,40.099383 26.4321922,38.0461276 28.7329385,37.5275645 C31.3583456,36.9975485 33.9179258,38.6868553 34.4502929,41.3006678 C34.5135634,41.6130782 34.5461573,41.931215 34.5467964,42.2499882 L34.5467964,59.6603464 C34.5391273,59.722065 34.4867214,59.7678767 34.42409,59.7672404 L24.9993386,59.7672404 C24.9379854,59.7678767 24.8849404,59.722065 24.8772712,59.6603464 L24.8772712,50.5209105 C24.8772712,49.6791203 24.1921601,48.9976712 23.3466359,48.9976712 C23.1536288,48.9944898 22.9606218,49.0313937 22.7810358,49.1039289 C22.1988191,49.3348962 21.8166396,49.8967259 21.8172787,50.5209105 L21.8172787,59.6603464 C21.8070532,60.7585549 22.3918262,61.7772291 23.3466359,62.3256971 C23.8521609,62.6381075 24.4362949,62.8016299 25.0300152,62.7984485 L34.577473,62.7984485 C34.5742776,63.0860442 34.610706,63.3730037 34.6848412,63.6510553 C35.0408178,65.2372857 36.4487467,66.3673079 38.0809983,66.3781575 L49.4339028,66.3781575 C51.3601387,66.3863961 52.9291198,64.8383421 52.9374281,62.9199768 L52.9374281,62.8894356 L62.4995851,62.8894356 C64.2487914,62.8983435 65.6739759,61.4934511 65.6822841,59.7519698 C65.6829305,59.7468797 65.6829305,59.7417895 65.6829305,59.7366993 L65.6829305,42.2499882 C65.6854796,40.3888875 65.0176241,38.5895054 63.8001459,37.177614 L63.8001459,37.177614 Z" id="Fill-1" stroke="#BFCADD" stroke-width="0.5" fill="#FFFFFF"></path>
                    </g>
                    <g id="bubble" transform="translate(860.000000, 0.000000)">
                        <path d="M115.420625,57.6330428 C115.420625,89.4629491 89.5828933,115.266086 57.7103123,115.266086 C25.8377312,115.266086 0,89.4629491 0,57.6330428 C0,25.8031366 25.8377312,0 57.7103123,0 C89.5828933,0 115.420625,25.8031366 115.420625,57.6330428" id="Fill-1-Copy" fill="#2F043E"></path>
                        <g id="Group-26" transform="translate(27.233251, 27.204176)" fill="#FFFFFF" stroke="#2F043E" stroke-width="0.15">
                            <path d="M50.4655715,50.3983124 C49.647137,50.3983124 49.1020317,49.8531615 49.1020317,49.0365982 C49.1020317,48.2184841 49.647137,47.6741086 50.4655715,47.6741086 C51.284006,47.6741086 51.8298878,48.2184841 51.8298878,49.0365982 C51.8298878,49.8531615 51.284006,50.3983124 50.4655715,50.3983124 M50.4655715,44.9499049 C48.1469326,44.9499049 46.3733991,46.7202884 46.3733991,49.0365982 C46.3733991,51.3513572 48.1469326,53.1225162 50.4655715,53.1225162 C52.7842104,53.1225162 54.557744,51.3513572 54.557744,49.0365982 C54.557744,46.7202884 52.7842104,44.9499049 50.4655715,44.9499049" id="Fill-1"></path>
                            <path d="M37.0989988,48.2187943 C36.1446762,49.3083207 34.6444718,49.3083207 33.6893727,48.2187943 C33.1434909,47.6736434 32.3258329,47.5379372 31.7791746,48.0823127 C31.2340693,48.6274636 31.0974047,49.4448023 31.644063,49.9899532 C32.7342737,51.0794797 33.9619254,51.7603367 35.4629063,51.7603367 C36.9623342,51.7603367 38.1899859,51.0794797 39.2817496,49.8534716 C40.2360722,48.7639452 41.7370531,48.7639452 42.6913756,49.8534716 C43.236481,50.3986226 44.0549155,50.5343287 44.6007973,49.9899532 C45.1459026,49.4448023 45.2825672,48.6274636 44.7374619,48.0823127 C43.6464747,46.9927863 42.418823,46.3119292 40.9186186,46.3119292 C39.4176377,46.3119292 38.1899859,46.9927863 37.0989988,48.2187943" id="Fill-3"></path>
                            <path d="M56.7397959,17.7076346 L53.8760517,15.9364757 C53.1942818,15.5278063 52.3750708,15.8007695 51.9666301,16.345145 C51.5566363,17.0267776 51.8299655,17.8433408 52.3750708,18.2527856 L55.2395915,20.0231691 C56.4664668,20.8405077 57.1490132,22.0665157 57.1490132,23.5647115 L57.1490132,55.8464873 C57.1490132,56.663826 56.6031313,57.2089769 55.7854734,57.2089769 L4.09131831,57.2089769 C3.27366032,57.2089769 2.72777849,56.663826 2.72777849,55.8464873 L2.72777849,23.4282299 C2.72777849,22.0665157 3.4095484,20.7040261 4.63720013,19.8866875 L7.50172086,18.116304 C8.18349077,17.8433408 8.32015535,17.0267776 8.04760269,16.345145 C7.63838544,15.6642879 6.81995095,15.5278063 6.13740454,15.9364757 L3.27366032,17.7076346 C1.22757409,18.9336426 -7.76503312e-05,21.1126955 -7.76503312e-05,23.4282299 L-7.76503312e-05,55.8464873 C-7.76503312e-05,58.1620217 1.77345592,59.9331807 4.09131831,59.9331807 L55.9213614,59.9331807 C58.2407768,59.9331807 60.0135339,58.1620217 60.0135339,55.8464873 L60.0135339,23.4282299 C60.0135339,21.1126955 58.7858822,18.9336426 56.7397959,17.7076346" id="Fill-5"></path>
                            <path d="M52.3749932,24.7905644 L32.5982303,40.9993054 C31.0980259,42.2253134 28.9152751,42.2253134 27.4150707,40.9993054 L7.63830779,24.7905644 C7.09242596,24.2454135 6.13732689,24.3818951 5.72888614,24.927046 C5.18300431,25.4714215 5.31889239,26.4252418 5.86555073,26.8339111 L25.6415371,43.0426521 C26.8691888,44.1321785 28.3701697,44.5408478 30.0062622,44.5408478 C31.6439077,44.5408478 33.1433356,43.9964723 34.3709873,43.0426521 L54.1485267,26.8339111 C54.6936321,26.2887602 54.8302966,25.4714215 54.2851913,24.927046 C53.7393095,24.3818951 52.920875,24.3818951 52.3749932,24.7905644" id="Fill-8"></path>
                            <path d="M12.2751197,25.8803235 C13.0943307,25.8803235 13.639436,25.3351725 13.639436,24.5178338 L13.639436,4.08669337 C13.639436,3.2693547 14.1853178,2.72420376 15.0037523,2.72420376 L45.0101698,2.72420376 C45.8286043,2.72420376 46.3737097,3.2693547 46.3737097,4.08669337 L46.3737097,24.5178338 C46.3737097,25.3351725 46.9195915,25.8803235 47.738026,25.8803235 C48.5564605,25.8803235 49.1023423,25.3351725 49.1023423,24.5178338 L49.1023423,4.08669337 C49.1023423,1.77115895 47.3288087,0 45.0101698,0 L15.0037523,0 C12.6843369,0 10.9115799,1.77115895 10.9115799,4.08669337 L10.9115799,24.5178338 C10.9115799,25.3351725 11.4566852,25.8803235 12.2751197,25.8803235" id="Fill-10"></path>
                            <path d="M35.4625957,6.81066449 L24.5503946,6.81066449 C23.7327367,6.81066449 23.1868548,7.35581543 23.1868548,8.17237864 C23.1868548,8.99049278 23.7327367,9.53486825 24.5503946,9.53486825 L35.4625957,9.53486825 C36.2810302,9.53486825 36.826912,8.99049278 36.826912,8.17237864 C36.826912,7.35581543 36.2810302,6.81066449 35.4625957,6.81066449" id="Fill-12"></path>
                            <path d="M16.3669815,14.9832758 C16.3669815,15.8006145 16.9128634,16.3449899 17.7312979,16.3449899 L30.0062622,16.3449899 C30.8246967,16.3449899 31.3705785,15.8006145 31.3705785,14.9832758 C31.3705785,14.1659371 30.8246967,13.6215616 30.0062622,13.6215616 L17.7312979,13.6215616 C16.9128634,13.6215616 16.3669815,14.1659371 16.3669815,14.9832758" id="Fill-14"></path>
                            <path d="M17.7311426,27.2422702 L32.7339631,27.2422702 C33.5531741,27.2422702 34.0982794,26.6971193 34.0982794,25.8805561 C34.0982794,25.062442 33.5531741,24.5180665 32.7339631,24.5180665 L17.7311426,24.5180665 C16.9127081,24.5180665 16.3668262,25.062442 16.3668262,25.8805561 C16.3668262,26.6971193 16.9127081,27.2422702 17.7311426,27.2422702" id="Fill-16"></path>
                            <path d="M17.7311426,21.7939403 L23.1868548,21.7939403 C24.0052893,21.7939403 24.5503946,21.2487893 24.5503946,20.4314507 C24.5503946,19.614112 24.0052893,19.0697365 23.1868548,19.0697365 L17.7311426,19.0697365 C16.9127081,19.0697365 16.3668262,19.614112 16.3668262,20.4314507 C16.3668262,21.2487893 16.9127081,21.7939403 17.7311426,21.7939403" id="Fill-18"></path>
                            <path d="M28.6424118,19.069659 C27.8239773,19.069659 27.278872,19.6148099 27.278872,20.4313731 C27.278872,21.2494873 27.8239773,21.7938627 28.6424118,21.7938627 L34.0981241,21.7938627 C34.9165586,21.7938627 35.4624404,21.2494873 35.4624404,20.4313731 C35.4624404,19.6148099 34.9165586,19.069659 34.0981241,19.069659 L28.6424118,19.069659 Z" id="Fill-20"></path>
                            <path d="M42.2820031,19.069659 L39.554147,19.069659 C38.736489,19.069659 38.1898306,19.6148099 38.1898306,20.4313731 C38.1898306,21.2494873 38.736489,21.7938627 39.554147,21.7938627 L42.2820031,21.7938627 C43.1004376,21.7938627 43.6463194,21.2494873 43.6463194,20.4313731 C43.6463194,19.6148099 43.1004376,19.069659 42.2820031,19.069659" id="Fill-22"></path>
                            <path d="M42.2820031,13.621329 L35.462751,13.621329 C34.6443165,13.621329 34.0984347,14.1664799 34.0984347,14.9830431 C34.0984347,15.8003818 34.6443165,16.3455327 35.462751,16.3455327 L42.2820031,16.3455327 C43.1004376,16.3455327 43.6463194,15.8003818 43.6463194,14.9830431 C43.6463194,14.1664799 43.1004376,13.621329 42.2820031,13.621329" id="Fill-24"></path>
                        </g>
                    </g>
                    <g id="bubble" transform="translate(665.000000, 35.000000)">
                        <path d="M132.562301,66.1924056 C132.562301,102.749526 102.887283,132.384811 66.2811507,132.384811 C29.675018,132.384811 0,102.749526 0,66.1924056 C0,29.6352856 29.675018,0 66.2811507,0 C102.887283,0 132.562301,29.6352856 132.562301,66.1924056" id="Fill-1-Copy-4" fill="#4E4294"></path>
                        <path d="M34.802158,61.7406954 C33.6293554,61.7406954 32.6799007,60.7765441 32.6799007,59.5867208 C32.6799007,58.3996497 33.6293554,57.434581 34.802158,57.434581 C35.9722478,57.434581 36.9226068,58.3996497 36.9226068,59.5867208 C36.9226068,60.7765441 35.9722478,61.7406954 34.802158,61.7406954 L34.802158,61.7406954 Z M92.0904444,96.1822724 L53.8970478,96.1822724 L49.655246,96.1822724 L45.4107315,96.1822724 C38.3802457,96.1822724 32.6799007,90.3991991 32.6799007,83.2675984 L32.6799007,68.1998672 C32.6799007,67.0100439 33.6293554,66.0458926 34.802158,66.0458926 C35.9722478,66.0458926 36.9226068,67.0100439 36.9226068,68.1998672 L36.9226068,70.3529244 L36.9226068,72.5023122 L36.9226068,83.2675984 C36.9226068,88.0223047 40.7231382,91.8770753 45.4107315,91.8770753 L50.7150183,91.8770753 L58.1415623,91.8770753 L91.0297679,91.8770753 C93.9595137,91.8770753 96.3331504,89.468073 96.3331504,86.4948908 L96.3331504,45.5968943 C96.3331504,42.6237121 93.9595137,40.2156272 91.0297679,40.2156272 L50.7150183,40.2156272 C47.7843682,40.2156272 45.4107315,42.6237121 45.4107315,45.5968943 L45.4107315,59.5867208 L45.4107315,61.7406954 L45.4107315,81.1136238 C45.4107315,82.3043644 44.4612769,83.2675984 43.2884743,83.2675984 C42.1165759,83.2675984 41.166217,82.3043644 41.166217,81.1136238 L41.166217,68.1998672 L41.166217,61.849862 L41.166217,57.434581 L41.166217,56.3594284 L41.166217,44.5189896 C41.166217,39.7642833 44.9676527,35.9095128 49.655246,35.9095128 L92.0904444,35.9095128 C96.778942,35.9095128 100.577665,39.7642833 100.577665,44.5189896 L100.577665,87.5709608 C100.577665,92.3275018 96.778942,96.1822724 92.0904444,96.1822724 L92.0904444,96.1822724 Z M51.7747905,70.3529244 L60.2629153,70.3529244 C61.4357179,70.3529244 62.3851726,71.3161584 62.3851726,72.5023122 C62.3851726,73.6921355 61.4357179,74.6553694 60.2629153,74.6553694 L51.7747905,74.6553694 C50.6047007,74.6553694 49.655246,73.6921355 49.655246,72.5023122 C49.655246,71.3161584 50.6047007,70.3529244 51.7747905,70.3529244 L51.7747905,70.3529244 Z M51.7747905,78.9614839 L60.2629153,78.9614839 C61.4357179,78.9614839 62.3851726,79.9247179 62.3851726,81.1136238 C62.3851726,82.3043644 61.4357179,83.2675984 60.2629153,83.2675984 L51.7747905,83.2675984 C50.6047007,83.2675984 49.655246,82.3043644 49.655246,81.1136238 C49.655246,79.9247179 50.6047007,78.9614839 51.7747905,78.9614839 L51.7747905,78.9614839 Z M49.655246,54.2063712 C49.655246,51.2341064 52.0288827,48.8251041 54.9586285,48.8251041 L69.8117166,48.8251041 C72.7414624,48.8251041 75.1160033,51.2341064 75.1160033,54.2063712 L75.1160033,57.434581 L75.1160033,63.8937527 C75.1160033,65.083576 74.1665487,66.0458926 72.9937461,66.0458926 C71.8209435,66.0458926 70.8723931,65.083576 70.8723931,63.8937527 L70.8723931,57.434581 L70.8723931,55.2842758 C70.8723931,54.0944525 69.9220342,53.1312186 68.7501358,53.1312186 L56.019305,53.1312186 C54.8465025,53.1312186 53.8970478,54.0944525 53.8970478,55.2842758 L53.8970478,59.5867208 C53.8970478,60.7765441 54.8465025,61.7406954 56.019305,61.7406954 L64.5083341,61.7406954 C65.6784239,61.7406954 66.6269743,62.7039294 66.6269743,63.8937527 C66.6269743,65.083576 65.6784239,66.0458926 64.5083341,66.0458926 L54.9586285,66.0458926 C52.0288827,66.0458926 49.655246,63.6378077 49.655246,60.6655429 L49.655246,54.2063712 Z M68.7501358,70.3529244 L89.9690914,70.3529244 C91.1418939,70.3529244 92.0904444,71.3161584 92.0904444,72.5023122 C92.0904444,73.6921355 91.1418939,74.6553694 89.9690914,74.6553694 L68.7501358,74.6553694 C67.580046,74.6553694 66.6269743,73.6921355 66.6269743,72.5023122 C66.6269743,71.3161584 67.580046,70.3529244 68.7501358,70.3529244 L68.7501358,70.3529244 Z M68.7501358,78.9614839 L89.9690914,78.9614839 C91.1418939,78.9614839 92.0904444,79.9247179 92.0904444,81.1136238 C92.0904444,82.3043644 91.1418939,83.2675984 89.9690914,83.2675984 L68.7501358,83.2675984 C67.580046,83.2675984 66.6269743,82.3043644 66.6269743,81.1136238 C66.6269743,79.9247179 67.580046,78.9614839 68.7501358,78.9614839 L68.7501358,78.9614839 Z M89.9690914,66.0458926 L81.4800624,66.0458926 C80.3108768,66.0458926 79.3605178,65.083576 79.3605178,63.8937527 C79.3605178,62.7039294 80.3108768,61.7406954 81.4800624,61.7406954 L89.9690914,61.7406954 C91.1418939,61.7406954 92.0904444,62.7039294 92.0904444,63.8937527 C92.0904444,65.083576 91.1418939,66.0458926 89.9690914,66.0458926 L89.9690914,66.0458926 Z M89.9690914,57.434581 L81.4800624,57.434581 C80.3108768,57.434581 79.3605178,56.4704296 79.3605178,55.2842758 C79.3605178,54.0944525 80.3108768,53.1312186 81.4800624,53.1312186 L89.9690914,53.1312186 C91.1418939,53.1312186 92.0904444,54.0944525 92.0904444,55.2842758 C92.0904444,56.4704296 91.1418939,57.434581 89.9690914,57.434581 L89.9690914,57.434581 Z" id="Fill-1" stroke="#4E4294" stroke-width="1.65" fill="#FFFFFF"></path>
                    </g>
                    <g id="bubble" transform="translate(361.000000, 58.000000)">
                        <path d="M75.4233784,37.6611963 C75.4233784,58.460937 58.5393164,75.3223926 37.7116892,75.3223926 C16.884062,75.3223926 0,58.460937 0,37.6611963 C0,16.8614556 16.884062,0 37.7116892,0 C58.5393164,0 75.4233784,16.8614556 75.4233784,37.6611963" id="Fill-1-Copy-2" fill="#F48C8C"></path>
                        <path d="M43.3063446,57.1286247 C44.0585347,57.1286247 44.66845,57.7377234 44.66845,58.4889063 C44.66845,59.2400892 44.0585347,59.8491879 43.3063446,59.8491879 C42.5541546,59.8491879 41.9442393,59.2400892 41.9442393,58.4889063 C41.9442393,57.7377234 42.5541546,57.1286247 43.3063446,57.1286247 L43.3063446,57.1286247 Z M32.9628571,47.9595348 C33.4392441,48.1714964 33.7721903,48.6466633 33.7721903,49.2010246 C33.7721903,49.9522076 33.162858,50.5613063 32.4100849,50.5613063 C32.1389466,50.5613063 31.8870504,50.4797825 31.6742215,50.3429391 C26.488775,47.9903973 22.8759305,42.7839428 22.8759305,36.7255653 C22.8759305,35.9743824 23.4858458,35.3652837 24.2380359,35.3652837 C24.9902259,35.3652837 25.6001412,35.9743824 25.6001412,36.7255653 C25.6001412,41.7491737 28.6333913,46.0611966 32.968105,47.9478885 L32.9628571,47.9595348 Z M31.0485626,22.443773 C30.2963726,22.443773 29.6864573,21.8346743 29.6864573,21.0834914 C29.6864573,20.3323085 30.2963726,19.7232098 31.0485626,19.7232098 C31.8007527,19.7232098 32.4100849,20.3323085 32.4100849,21.0834914 C32.4100849,21.8346743 31.8007527,22.443773 31.0485626,22.443773 L31.0485626,22.443773 Z M37.8585063,46.2469542 C32.5931761,46.2469542 28.3243519,41.9844279 28.3243519,36.7255653 L28.3243519,25.8438947 C28.3243519,25.0927118 28.9342673,24.4836131 29.6864573,24.4836131 C30.4386473,24.4836131 31.0485626,25.0927118 31.0485626,25.8438947 L31.0485626,36.7255653 C31.0485626,40.4814798 34.0969731,43.526391 37.8585063,43.526391 C41.6200396,43.526391 44.66845,40.4814798 44.66845,36.7255653 L44.66845,25.8438947 C44.66845,22.0879802 41.6200396,19.043069 37.8585063,19.043069 C37.1063163,19.043069 36.496401,18.4339703 36.496401,17.6827874 C36.496401,16.9316045 37.1063163,16.3225058 37.8585063,16.3225058 C43.1244196,16.3225058 47.3926607,20.5850321 47.3926607,25.8438947 L47.3926607,36.7255653 C47.3926607,41.9844279 43.1244196,46.2469542 37.8585063,46.2469542 L37.8585063,46.2469542 Z M40.3786345,51.4592319 C40.3681388,51.4673842 40.3599755,51.4726251 40.3547277,51.4726251 C39.7057451,51.5390087 39.2206117,52.139955 39.2206117,52.8142727 L39.2206117,56.4484839 C39.2206117,58.3270235 37.6964065,59.8491879 35.8153483,59.8491879 L32.4100849,59.8491879 C31.6578949,59.8491879 31.0485626,59.2400892 31.0485626,58.4889063 C31.0485626,57.7377234 31.6578949,57.1286247 32.4100849,57.1286247 L35.1342956,57.1286247 C35.8864856,57.1286247 36.496401,56.519526 36.496401,55.7683431 L36.496401,52.2401127 C36.496401,50.5019104 37.8031125,49.0676751 39.4900007,48.8644481 C39.4993302,48.8632835 39.5098258,48.8545488 39.5209046,48.8417379 C45.5028562,48.0299945 50.1168714,42.9225331 50.1168714,36.7255653 C50.1168714,35.9743824 50.7267867,35.3652837 51.4789768,35.3652837 C52.2311668,35.3652837 52.8410821,35.9743824 52.8410821,36.7255653 C52.8410821,44.1296666 47.45097,50.2614154 40.3786345,51.4592319 L40.3786345,51.4592319 Z" id="Fill-1" stroke="#F48C8C" stroke-width="0.25" fill="#FFFFFF"></path>
                    </g>
                    <g id="bubble" transform="translate(499.000000, 22.000000)">
                        <path d="M103.99284,51.926801 C103.99284,80.6052313 80.7132999,103.853602 51.99642,103.853602 C23.27954,103.853602 0,80.6052313 0,51.926801 C0,23.2483706 23.27954,0 51.99642,0 C80.7132999,0 103.99284,23.2483706 103.99284,51.926801" id="Fill-1-Copy-5" fill="#8B2D9B"></path>
                        <g id="Group-6" transform="translate(25.177214, 25.143504)" fill="#FFFFFF" stroke="#FFFFFF" stroke-width="0.35">
                            <path d="M1.24466828,28.5453765 C0.557322704,28.5453765 -0.000190929327,27.9886093 -0.000190929327,27.302184 L-0.000190929327,27.1782461 C-0.000190929327,26.4918208 0.557322704,25.9356892 1.24466828,25.9356892 C1.93201386,25.9356892 2.48889106,26.4918208 2.48889106,27.1782461 L2.48889106,27.302184 C2.48889106,27.9886093 1.93201386,28.5453765 1.24466828,28.5453765 L1.24466828,28.5453765 Z M51.7925711,40.845736 C51.6239168,40.845736 51.4527169,40.8107792 51.2885177,40.7383232 C50.6603602,40.4599396 50.3765119,39.7252103 50.6559052,39.0985295 C50.8996583,38.5500248 51.0224895,37.9652922 51.0231259,37.3595855 L51.0231259,7.40856258 C51.0231259,5.04420885 49.096649,3.12094692 46.7297618,3.12094692 L6.78225518,3.12094692 C4.41473153,3.12094692 2.48889106,5.04420885 2.48889106,7.40856258 L2.48889106,20.9641906 C2.48889106,21.6506159 1.93201386,22.2067475 1.24466828,22.2067475 C0.557322704,22.2067475 -0.000190929327,21.6506159 -0.000190929327,20.9641906 L-0.000190929327,7.40856258 C-0.000190929327,3.67390062 3.04258611,0.635833191 6.78225518,0.635833191 L46.7297618,0.635833191 C50.4694308,0.635833191 53.5115715,3.67390062 53.5115715,7.40856258 L53.5115715,37.360221 C53.5115715,38.3154962 53.3155507,39.239628 52.9305099,40.1065577 C52.7249426,40.5698948 52.2698944,40.845736 51.7925711,40.845736 L51.7925711,40.845736 Z M46.7730391,44.1329504 C46.0901485,44.1329504 45.5339078,43.582539 45.5288163,42.8992917 C45.5237249,42.2128664 46.0767835,41.6522857 46.764129,41.6472011 C46.7959506,41.6472011 46.8277722,41.6465655 46.8595937,41.6452944 C47.5456664,41.621778 48.1203637,42.1639268 48.1420024,42.8497165 C48.1630046,43.5355062 47.623311,44.1087984 46.9359654,44.1304081 C46.885051,44.1316793 46.8335,44.1323148 46.7825855,44.1329504 L46.7730391,44.1329504 Z M12.4445826,54.0759477 C12.2167403,54.0759477 11.9888979,54.0130253 11.7858764,53.8871807 C11.3384653,53.6087971 11.115078,53.0780887 11.2296356,52.5632697 L13.1058345,44.1329504 L6.78225518,44.1329504 C3.04258611,44.1329504 -0.000190929327,41.094883 -0.000190929327,37.360221 L-0.000190929327,33.5162395 C-0.000190929327,32.8298142 0.557322704,32.2736826 1.24466828,32.2736826 C1.93201386,32.2736826 2.48889106,32.8298142 2.48889106,33.5162395 L2.48889106,37.360221 C2.48889106,39.7245748 4.41473153,41.6478367 6.78225518,41.6478367 L14.656817,41.6478367 C15.0342207,41.6478367 15.391895,41.8188074 15.6280109,42.1130805 C15.8641268,42.4073536 15.9532272,42.7925144 15.8711276,43.159879 L14.4257926,49.6586739 L24.1116373,41.9198645 C24.3318425,41.7438091 24.6067807,41.6478367 24.8887197,41.6478367 L40.5506523,41.6478367 C41.2379979,41.6478367 41.7955115,42.2039683 41.7955115,42.8903936 C41.7955115,43.5768188 41.2379979,44.1329504 40.5506523,44.1329504 L25.3259478,44.1329504 L13.2216649,53.8032843 C12.9957319,53.9837887 12.7207937,54.0759477 12.4445826,54.0759477 L12.4445826,54.0759477 Z" id="Fill-1"></path>
                            <path d="M22.6446636,15.6655595 L22.6446636,29.1595364 L31.3491316,22.4122302 L22.6446636,15.6655595 Z M21.427171,32.867504 C21.2445152,32.867504 21.062496,32.807124 20.8798402,32.7461085 C20.4534314,32.5636973 20.2103147,32.138495 20.2103147,31.6516415 L20.2103147,13.1118033 C20.2103147,12.6262209 20.4534314,12.200383 20.8798402,12.0179719 C21.3056126,11.8361963 21.7924824,11.8361963 22.1571574,12.1393674 L34.0876946,21.3787788 C34.3919087,21.6222055 34.5745644,21.9870278 34.5745644,22.3518502 C34.5745644,22.7166725 34.3919087,23.0814948 34.0876946,23.324286 L22.1571574,32.6247129 C21.9146772,32.7461085 21.6709241,32.867504 21.427171,32.867504 L21.427171,32.867504 Z" id="Fill-4"></path>
                        </g>
                    </g>
                </g>
            </g>
        </g>
    </g>
</svg>