<?xml version="1.0" encoding="UTF-8"?>
<svg width="451px" height="431px" viewBox="0 0 451 431" version="1.1" xmlns="http://www.w3.org/2000/svg" xmlns:xlink="http://www.w3.org/1999/xlink">
    <title>graphic/home/home-graphic-body-2 </title>
    <g id="DPLA" stroke="none" stroke-width="1" fill="none" fill-rule="evenodd">
        <g id="1.0-Home" transform="translate(-850.000000, -1764.000000)">
            <g id="section" transform="translate(130.000000, 1764.000000)">
                <g id="graphic/home/home-graphic-body-2" transform="translate(720.000000, 0.000000)">
                    <g id="bg" transform="translate(67.140187, 40.902439)" stroke="#CBCBD4" stroke-dasharray="4,5">
                        <path d="M238.662383,190.878049 C238.662383,217.232854 217.291871,238.597561 190.929907,238.597561 C164.567942,238.597561 143.19743,217.232854 143.19743,190.878049 C143.19743,164.523244 164.567942,143.158537 190.929907,143.158537 C217.291871,143.158537 238.662383,164.523244 238.662383,190.878049" id="Fill-1"></path>
                        <path d="M286.39486,190.878049 C286.39486,243.587659 243.653836,286.317073 190.929907,286.317073 C138.205977,286.317073 95.4649533,243.587659 95.4649533,190.878049 C95.4649533,138.168439 138.205977,95.4390244 190.929907,95.4390244 C243.653836,95.4390244 286.39486,138.168439 286.39486,190.878049" id="Fill-1" opacity="0.8"></path>
                        <path d="M334.127336,190.878049 C334.127336,269.942463 270.015801,334.036585 190.929907,334.036585 C111.844012,334.036585 47.7324766,269.942463 47.7324766,190.878049 C47.7324766,111.813634 111.844012,47.7195122 190.929907,47.7195122 C270.015801,47.7195122 334.127336,111.813634 334.127336,190.878049" id="Fill-1" opacity="0.6"></path>
                        <path d="M381.859813,190.878049 C381.859813,296.297268 296.377766,381.756098 190.929907,381.756098 C85.4820467,381.756098 0,296.297268 0,190.878049 C0,85.4588293 85.4820467,-3.87505746e-14 190.929907,-3.87505746e-14 C296.377766,-3.87505746e-14 381.859813,85.4588293 381.859813,190.878049" id="Fill-1" opacity="0.4"></path>
                    </g>
                    <g id="bubbles" transform="translate(39.864486, 0.000000)">
                        <g id="bubble" transform="translate(-0.000000, 59.780488)">
                            <path d="M137.169571,68.5661574 C137.169571,106.434267 106.463183,137.132315 68.5847855,137.132315 C30.7063882,137.132315 0,106.434267 0,68.5661574 C0,30.6980482 30.7063882,0 68.5847855,0 C106.463183,0 137.169571,30.6980482 137.169571,68.5661574" id="Fill-1" fill="#EC5938"></path>
                            <path d="M45.8773219,85.5156804 L58.6655839,99.66797 L32.714844,99.66797 L32.714844,92.1299927 L45.8773219,85.5156804 Z M73.4358373,84.5911089 L86.0518699,98.8594232 L86.0518699,99.66797 L66.1372762,99.66797 L59.038898,91.8118313 L73.4358373,84.5911089 Z M57.5438382,68.2434152 C59.1002153,68.2434152 60.3031163,69.4517033 60.3031163,71.0162233 C60.3031163,72.5798369 59.1002153,73.7890315 57.5438382,73.7890315 C55.9883628,73.7890315 54.7854618,72.5798369 54.7854618,71.0162233 C54.7854618,69.4517033 55.9883628,68.2434152 57.5438382,68.2434152 L57.5438382,68.2434152 Z M57.5438382,62.6977988 C53.0054569,62.6977988 49.2678074,66.4550038 49.2678074,71.0162233 C49.2678074,75.5774429 53.0054569,79.3346478 57.5438382,79.3346478 C62.0831212,79.3346478 65.8207708,75.5774429 65.8207708,71.0162233 C65.8207708,66.4550038 62.0831212,62.6977988 57.5438382,62.6977988 L57.5438382,62.6977988 Z M52.0847958,39.2735071 L103.811341,53.5128152 L92.4027181,95.2780681 L91.5695244,95.0469252 L91.5695244,54.3793744 C91.5686226,52.8483927 90.3341613,51.6065662 88.8102463,51.6065662 L48.5779878,51.6065662 L52.0847958,39.2735071 Z M49.8133509,33.1214806 C48.7312811,33.2746694 47.8412786,34.056023 47.5437094,35.1138416 L42.8303935,51.6065662 L29.9564676,51.6065662 C29.8608847,51.6011275 29.7653019,51.6011275 29.6688174,51.6065662 C28.2585197,51.7552228 27.1899757,52.9544465 27.1974149,54.3793744 L27.1974149,65.470607 C27.1764498,67.0024951 28.3937784,68.2606376 29.9176934,68.2823922 C31.4407067,68.3041468 32.6941043,67.0804492 32.714844,65.5494675 C32.7157457,65.5231807 32.7157457,65.4968938 32.714844,65.470607 L32.714844,57.1521825 L86.0518699,57.1521825 L86.0518699,90.5128989 L76.1662602,79.3346478 C75.6071907,78.7037637 74.7920315,78.3638477 73.9534273,78.4100763 C73.5738012,78.430018 73.2013888,78.5288203 72.8614385,78.6992315 L55.1876311,87.5660538 L48.5500344,80.2302132 C47.9855546,79.6102064 47.171297,79.2811677 46.3372015,79.3346478 C45.9665926,79.3582153 45.6050009,79.4561111 45.2731662,79.623803 L32.714844,85.9199539 L32.714844,74.713603 C32.7373871,73.1826213 31.5191568,71.922666 29.9961435,71.9009114 C28.4713267,71.8800632 27.2197326,73.1037608 27.1974149,74.6347425 C27.1974149,74.6610293 27.1974149,74.6873162 27.1974149,74.713603 L27.1974149,102.440778 C27.1974149,103.972666 28.4325526,105.213586 29.9564676,105.213586 L88.8102463,105.213586 C90.3341613,105.213586 91.5686226,103.972666 91.5695244,102.440778 L91.5695244,100.823684 L93.5803708,101.401088 C95.0456737,101.822584 96.5731956,100.969622 96.9924977,99.4966524 C96.9943012,99.4866815 96.9970063,99.4767106 96.9997115,99.4658333 L109.874539,52.329001 C110.274905,50.850593 109.407446,49.3268629 107.936732,48.9253088 C107.931322,48.9234959 107.926813,48.921683 107.920501,48.9207765 L50.9062414,33.2075927 C50.5518636,33.1060711 50.1794512,33.0761585 49.8133509,33.1214806 L49.8133509,33.1214806 Z" id="Fill-1" stroke="#EC5938" stroke-width="2.5" fill="#FFF7F7"></path>
                        </g>
                        <g id="bubble" transform="translate(222.401869, 0.000000)">
                            <path d="M79.3617718,39.6701083 C79.3617718,61.5793425 61.5960723,79.3402167 39.6808859,79.3402167 C17.7656995,79.3402167 0,61.5793425 0,39.6701083 C0,17.7608742 17.7656995,0 39.6808859,0 C61.5960723,0 79.3617718,17.7608742 79.3617718,39.6701083" id="Fill-1-Copy-3" fill="#BFCADD"></path>
                            <path d="M57.5010648,54.8264591 C57.5016456,54.8808381 57.4582307,54.9252769 57.4036688,54.9252769 C57.3983886,54.9258616 57.3936951,54.9252769 57.3890016,54.9246921 L48.7089618,54.9246921 C48.6543999,54.9246921 48.6103983,54.8808381 48.6103983,54.8264591 L48.6103983,50.4732139 C48.6068782,49.9656764 48.3270283,49.4990693 47.8805592,49.2552408 C47.6775654,49.1318648 47.4428904,49.0687149 47.2058687,49.0733927 C46.430268,49.0733927 45.8013391,49.6996285 45.8013391,50.4732139 L45.8013391,57.7939163 C45.8013391,58.0184477 45.6188794,58.2002972 45.3935914,58.2002972 L34.9581829,58.2002972 C34.732895,58.2002972 34.5508188,58.0184477 34.5508188,57.7939163 L34.5508188,38.7565817 C34.5287278,36.10195 36.3439385,33.7817785 38.9335766,33.1567122 C41.9602968,32.4766821 44.9670697,34.3711769 45.6499738,37.3877507 C45.739737,37.7859455 45.7860853,38.1940805 45.7872586,38.6028002 L45.7872586,44.5236814 C45.7872586,45.2966821 46.4156008,45.9235026 47.1917882,45.9235026 C47.4293966,45.9281804 47.6628982,45.8650305 47.865892,45.7416545 C48.3129478,45.497826 48.592211,45.0318036 48.5963178,44.5236814 L48.5963178,39.0085963 C48.5558364,36.8527313 50.0395688,34.9640837 52.1498833,34.4869516 C54.5594084,33.9998793 56.909678,35.5523126 57.3983886,37.954345 C57.4570573,38.2414428 57.4863917,38.5338032 57.4875651,38.8267482 L57.5010648,54.8264591 Z M37.0514835,24.8981178 C37.0514835,23.1819628 38.4466261,21.7909124 40.1691403,21.7909124 C41.8916544,21.7909124 43.286797,23.1819628 43.286797,24.8981178 C43.286797,26.6142729 41.8916544,28.005908 40.1691403,28.005908 C38.452493,28.005908 37.0585238,26.6230437 37.0514835,24.9121511 L37.0514835,24.8981178 Z M50.6749102,27.4042305 C50.6673243,26.0973799 51.7233616,25.0320189 53.0346079,25.0243766 C54.3458542,25.0168161 55.4142119,26.0693133 55.4224665,27.3761639 C55.4300524,28.6824298 54.3734285,29.7477908 53.0627689,29.7553922 L53.0346079,29.7553922 C51.7345086,29.7477908 50.6825782,28.6993867 50.6749102,27.4042305 L50.6749102,27.4042305 Z M58.5682432,34.1653553 L58.5682432,34.1653553 C58.024384,33.5437972 57.3784412,33.0181334 56.6579891,32.6111678 C56.2478947,32.3731865 55.8155061,32.1761356 55.3661035,32.0235236 C57.5227663,30.9587473 58.6492061,28.5444357 58.0765992,26.2137393 C57.8900326,25.4688052 57.5292199,24.7776654 57.0240821,24.1982072 C55.2088713,22.0025812 51.9509963,21.6885862 49.7479852,23.4977119 C48.5746104,24.4607468 47.8864261,25.889804 47.865892,27.4042305 C47.8635453,28.9905776 48.6139184,30.4851236 49.8882034,31.4352946 C50.1457592,31.6551496 50.4285425,31.8428449 50.7312732,31.995457 L50.4924914,32.0796567 C49.496883,32.4603099 48.5992513,33.0578944 47.865892,33.8291409 C47.7567682,33.9262045 47.6582047,34.0337931 47.5707883,34.151322 L47.4170762,34.3191368 C47.1383997,33.8490214 46.8139616,33.408142 46.4472819,33.0035153 C45.6881085,32.1580093 44.759969,31.4809028 43.7227057,31.0154652 C43.2322351,30.7675436 42.7136034,30.5786789 42.1779579,30.4553028 C45.2580666,29.3747391 46.8761504,26.0096718 45.7913654,22.9398884 C45.570771,22.3154068 45.2463329,21.733025 44.8321316,21.2167167 C44.0160494,20.1805917 42.8643821,19.4584617 41.5736699,19.1725333 C38.3873707,18.3919313 35.1693904,20.3337885 34.3861628,23.5088216 C34.2723454,23.968412 34.21485,24.4391121 34.2142633,24.9121511 C34.2160234,26.7013963 35.0450127,28.3900695 36.461276,29.489929 C36.9711074,29.8840307 37.5401941,30.1956868 38.1468289,30.4137876 C37.9790363,30.4517945 37.8141771,30.5032499 37.6551848,30.5675692 C35.6698347,31.1745092 33.9790017,32.4907153 32.9077106,34.2630036 C32.8232276,34.1653553 32.7528251,34.0671222 32.6689288,33.9835071 C32.154404,33.4233448 31.5524627,32.9503058 30.8853991,32.5831012 C30.4723712,32.3381033 30.0341158,32.1357899 29.5788463,31.9814237 C31.741376,30.9207404 32.8736827,28.5052595 32.3040092,26.1722241 C32.1303498,25.4372303 31.7894844,24.7519377 31.3066407,24.1701406 C30.6026158,23.2737639 29.6111142,22.6463586 28.4969948,22.3925899 C26.7873878,21.9558036 24.9733504,22.4270884 23.6937852,23.6380449 C23.1675266,24.1812503 23.1675266,25.0419591 23.6937852,25.5839951 C23.9572079,25.8675847 24.3321011,26.0207815 24.7193148,26.0038246 L24.8178782,26.0038246 C25.1522901,26.0201967 25.4802483,25.9044221 25.7307638,25.6822282 C26.7017314,24.8162569 28.1936774,24.8987026 29.0619748,25.8669999 C29.4427349,26.289753 29.6557024,26.835882 29.6633293,27.4042305 C29.6668495,28.7023103 28.6137456,29.7589005 27.3101262,29.7624088 C26.4793769,29.7647477 25.7090564,29.330885 25.2807746,28.6222036 C25.0425795,28.1748923 24.5808565,27.8918875 24.0727853,27.8796084 L23.960728,27.8796084 C23.6040221,27.8848709 23.26257,28.0252038 23.0056009,28.2719559 C22.6066535,28.7005562 22.5168903,29.330885 22.7808997,29.8536253 C23.1246985,30.4786916 23.6051954,31.0189735 24.1854292,31.4352946 C24.4476785,31.6557343 24.7351553,31.8434296 25.0425795,31.995457 L24.7193148,32.0931053 C21.894415,33.1415094 20.0146687,35.8224536 20.0000007,38.8267482 L20.0000007,40.4084175 C19.9994148,40.9820285 20.3502538,41.4977521 20.884726,41.7100057 C21.0513453,41.7708166 21.2273515,41.8041457 21.4045311,41.8082387 C22.1801318,41.8082387 22.8090607,41.1814182 22.8090607,40.4084175 L22.8090607,39.0085963 C22.7756195,36.8503924 24.264632,34.9634989 26.3767066,34.4869516 C28.7868184,33.9998793 31.1365013,35.5523126 31.6252119,37.954345 C31.683294,38.2414428 31.713215,38.5338032 31.7138017,38.8267482 L31.7138017,54.8264591 C31.7067615,54.883177 31.6586531,54.9252769 31.6011578,54.9246921 L22.9492789,54.9246921 C22.8929569,54.9252769 22.8442619,54.883177 22.8372216,54.8264591 L22.8372216,46.4275318 C22.8372216,45.6539464 22.2082928,45.0277106 21.4321054,45.0277106 C21.2549258,45.024787 21.0777462,45.0587008 20.912887,45.1253589 C20.3784148,45.3376125 20.0275758,45.8539209 20.0281625,46.4275318 L20.0281625,54.8264591 C20.0187755,55.8356869 20.5555944,56.7718247 21.4321054,57.2758538 C21.8961751,57.5629517 22.4324074,57.7132249 22.9774399,57.7103013 L31.7419627,57.7103013 C31.7390293,57.974595 31.7724705,58.238304 31.8405262,58.4938269 C32.1673111,59.9515355 33.4597834,60.9899993 34.9581829,60.9999699 L45.3800976,60.9999699 C47.1483734,61.007541 48.5886909,59.5849157 48.5963178,57.8219829 L48.5963178,57.7939163 L57.3743344,57.7939163 C58.9800978,57.8021024 60.2884106,56.5110392 60.2960376,54.9106589 C60.296631,54.9059811 60.296631,54.9013033 60.296631,54.8966256 L60.296631,38.8267482 C60.298971,37.1164403 59.6858827,35.4628504 58.5682432,34.1653553 L58.5682432,34.1653553 Z" id="Fill-1" stroke="#BFCADD" stroke-width="0.5" fill="#FFFFFF"></path>
                        </g>
                        <g id="bubble" transform="translate(60.845794, 275.829268)">
                            <path d="M105.955607,52.9634146 C105.955607,82.2143519 82.2366879,105.926829 52.9778037,105.926829 C23.7189196,105.926829 0,82.2143519 0,52.9634146 C0,23.7124774 23.7189196,0 52.9778037,0 C82.2366879,0 105.955607,23.7124774 105.955607,52.9634146" id="Fill-1-Copy" fill="#2F043E"></path>
                            <g id="Group-26" transform="translate(25.000000, 25.000000)" fill="#FFFFFF" stroke="#2F043E" stroke-width="0.05">
                                <path d="M46.3271647,46.314867 C45.5758456,46.314867 45.0754414,45.8138861 45.0754414,45.0634837 C45.0754414,44.311656 45.5758456,43.8113877 46.3271647,43.8113877 C47.0784839,43.8113877 47.5796009,44.311656 47.5796009,45.0634837 C47.5796009,45.8138861 47.0784839,46.314867 46.3271647,46.314867 M46.3271647,41.3079083 C44.1986648,41.3079083 42.5705691,42.9348492 42.5705691,45.0634837 C42.5705691,47.1906929 44.1986648,48.8183464 46.3271647,48.8183464 C48.4556647,48.8183464 50.0837604,47.1906929 50.0837604,45.0634837 C50.0837604,42.9348492 48.4556647,41.3079083 46.3271647,41.3079083" id="Fill-1"></path>
                                <path d="M34.0567119,44.311941 C33.1806481,45.3131902 31.8034673,45.3131902 30.9266907,44.311941 C30.4255737,43.8109601 29.6749673,43.6862493 29.1731375,44.1865176 C28.6727333,44.6874986 28.5472758,45.4386136 29.0491057,45.9395946 C30.0499141,46.9408438 31.1768928,47.5665355 32.5547864,47.5665355 C33.9312544,47.5665355 35.0582331,46.9408438 36.0604672,45.8141712 C36.9365309,44.812922 38.3144246,44.812922 39.1904883,45.8141712 C39.6908926,46.3151521 40.4422117,46.4398629 40.9433287,45.9395946 C41.4437329,45.4386136 41.5691904,44.6874986 41.0687862,44.1865176 C40.0672649,43.1852684 38.9402862,42.5595767 37.5631054,42.5595767 C36.1852118,42.5595767 35.0582331,43.1852684 34.0567119,44.311941" id="Fill-3"></path>
                                <path d="M52.0868742,16.2729009 L49.45797,14.6452474 C48.8321084,14.2696898 48.0800764,14.5205366 47.7051297,15.0208049 C47.3287573,15.6472092 47.5796722,16.3976117 48.0800764,16.7738818 L50.7096934,18.4008227 C51.8359592,19.1519378 52.4625337,20.2786104 52.4625337,21.6554172 L52.4625337,51.321612 C52.4625337,52.072727 51.9614167,52.573708 51.2108104,52.573708 L3.75581157,52.573708 C3.00520526,52.573708 2.50408822,52.072727 2.50408822,51.321612 L2.50408822,21.5299938 C2.50408822,20.2786104 3.1299499,19.0265144 4.2569286,18.2753993 L6.88654557,16.6484584 C7.51240724,16.3976117 7.6378647,15.6472092 7.3876626,15.0208049 C7.01200303,14.3951132 6.2606839,14.2696898 5.6341094,14.6452474 L3.00520526,16.2729009 C1.12690742,17.3995735 -7.12826503e-05,19.402072 -7.12826503e-05,21.5299938 L-7.12826503e-05,51.321612 C-7.12826503e-05,53.4495338 1.62802445,55.0771873 3.75581157,55.0771873 L51.335555,55.0771873 C53.4647678,55.0771873 55.0921507,53.4495338 55.0921507,51.321612 L55.0921507,21.5299938 C55.0921507,19.402072 53.965172,17.3995735 52.0868742,16.2729009" id="Fill-5"></path>
                                <path d="M48.0800051,22.7819472 L29.9250269,37.6774 C28.5478461,38.8040726 26.5440908,38.8040726 25.16691,37.6774 L7.01193175,22.7819472 C6.51081472,22.2809663 5.63403812,22.4063897 5.25909138,22.9073706 C4.75797435,23.4076389 4.88271899,24.2841774 5.38454884,24.6597349 L23.5388142,39.5551877 C24.6657929,40.5564369 26.0436866,40.9319945 27.545612,40.9319945 C29.0489631,40.9319945 30.4254311,40.4317262 31.5524098,39.5551877 L49.7081008,24.6597349 C50.2085051,24.158754 50.3339625,23.4076389 49.8335583,22.9073706 C49.3324413,22.4063897 48.5811221,22.4063897 48.0800051,22.7819472" id="Fill-8"></path>
                                <path d="M11.2685039,23.7834103 C12.0205359,23.7834103 12.5209401,23.2824293 12.5209401,22.5313143 L12.5209401,3.75557536 C12.5209401,3.00446029 13.0220571,2.50347936 13.7733763,2.50347936 L41.3191309,2.50347936 C42.07045,2.50347936 42.5708542,3.00446029 42.5708542,3.75557536 L42.5708542,22.5313143 C42.5708542,23.2824293 43.0719712,23.7834103 43.8232904,23.7834103 C44.5746095,23.7834103 45.0757265,23.2824293 45.0757265,22.5313143 L45.0757265,3.75557536 C45.0757265,1.62765353 43.4476308,0 41.3191309,0 L13.7733763,0 C11.6441635,0 10.0167806,1.62765353 10.0167806,3.75557536 L10.0167806,22.5313143 C10.0167806,23.2824293 10.5171848,23.7834103 11.2685039,23.7834103" id="Fill-10"></path>
                                <path d="M32.5545013,6.25884093 L22.5371504,6.25884093 C21.7865441,6.25884093 21.2854271,6.75982186 21.2854271,7.5102243 C21.2854271,8.262052 21.7865441,8.76232029 22.5371504,8.76232029 L32.5545013,8.76232029 C33.3058204,8.76232029 33.8069375,8.262052 33.8069375,7.5102243 C33.8069375,6.75982186 33.3058204,6.25884093 32.5545013,6.25884093" id="Fill-12"></path>
                                <path d="M15.0248145,13.769279 C15.0248145,14.5203941 15.5259315,15.0206624 16.2772506,15.0206624 L27.545612,15.0206624 C28.2969312,15.0206624 28.7980482,14.5203941 28.7980482,13.769279 C28.7980482,13.0181639 28.2969312,12.5178957 27.545612,12.5178957 L16.2772506,12.5178957 C15.5259315,12.5178957 15.0248145,13.0181639 15.0248145,13.769279" id="Fill-14"></path>
                                <path d="M16.2771081,25.0350074 L30.049629,25.0350074 C30.8016609,25.0350074 31.3020651,24.5340265 31.3020651,23.783624 C31.3020651,23.0317963 30.8016609,22.531528 30.049629,22.531528 L16.2771081,22.531528 C15.5257889,22.531528 15.0246719,23.0317963 15.0246719,23.783624 C15.0246719,24.5340265 15.5257889,25.0350074 16.2771081,25.0350074" id="Fill-16"></path>
                                <path d="M16.2771081,20.0281199 L21.2854271,20.0281199 C22.0367462,20.0281199 22.5371504,19.527139 22.5371504,18.776024 C22.5371504,18.0249089 22.0367462,17.5246406 21.2854271,17.5246406 L16.2771081,17.5246406 C15.5257889,17.5246406 15.0246719,18.0249089 15.0246719,18.776024 C15.0246719,19.527139 15.5257889,20.0281199 16.2771081,20.0281199" id="Fill-18"></path>
                                <path d="M26.2936035,17.5245693 C25.5422844,17.5245693 25.0418802,18.0255503 25.0418802,18.7759527 C25.0418802,19.5277804 25.5422844,20.0280487 26.2936035,20.0280487 L31.3019226,20.0280487 C32.0532417,20.0280487 32.5543587,19.5277804 32.5543587,18.7759527 C32.5543587,18.0255503 32.0532417,17.5245693 31.3019226,17.5245693 L26.2936035,17.5245693 Z" id="Fill-20"></path>
                                <path d="M38.8146862,17.5245693 L36.3105267,17.5245693 C35.5599204,17.5245693 35.0580905,18.0255503 35.0580905,18.7759527 C35.0580905,19.5277804 35.5599204,20.0280487 36.3105267,20.0280487 L38.8146862,20.0280487 C39.5660053,20.0280487 40.0671224,19.5277804 40.0671224,18.7759527 C40.0671224,18.0255503 39.5660053,17.5245693 38.8146862,17.5245693" id="Fill-22"></path>
                                <path d="M38.8146862,12.5176819 L32.5546439,12.5176819 C31.8033247,12.5176819 31.3022077,13.0186628 31.3022077,13.7690652 C31.3022077,14.5201803 31.8033247,15.0211612 32.5546439,15.0211612 L38.8146862,15.0211612 C39.5660053,15.0211612 40.0671224,14.5201803 40.0671224,13.7690652 C40.0671224,13.0186628 39.5660053,12.5176819 38.8146862,12.5176819" id="Fill-24"></path>
                            </g>
                        </g>
                        <g id="bubble" transform="translate(280.100467, 308.341463)">
                            <path d="M121.691589,60.8292683 C121.691589,94.4244042 94.4500574,121.658537 60.8457944,121.658537 C27.2415314,121.658537 0,94.4244042 0,60.8292683 C0,27.2341324 27.2415314,0 60.8457944,0 C94.4500574,0 121.691589,27.2341324 121.691589,60.8292683" id="Fill-1-Copy-4" fill="#4E4294"></path>
                            <path d="M31.9482225,56.738251 C30.8715951,56.738251 30,55.8522186 30,54.7587989 C30,53.6679083 30.8715951,52.7810328 31.9482225,52.7810328 C33.0223596,52.7810328 33.8947848,53.6679083 33.8947848,54.7587989 C33.8947848,55.8522186 33.0223596,56.738251 31.9482225,56.738251 L31.9482225,56.738251 Z M84.5386084,88.3892524 L49.4772443,88.3892524 L45.5832896,88.3892524 L41.6868447,88.3892524 C35.2328907,88.3892524 30,83.0747438 30,76.5209699 L30,62.6740784 C30,61.5806587 30.8715951,60.6946262 31.9482225,60.6946262 C33.0223596,60.6946262 33.8947848,61.5806587 33.8947848,62.6740784 L33.8947848,64.6526875 L33.8947848,66.6279244 L33.8947848,76.5209699 C33.8947848,80.8904335 37.3836553,84.4328773 41.6868447,84.4328773 L46.5561557,84.4328773 L53.3736893,84.4328773 L83.5649122,84.4328773 C86.2544055,84.4328773 88.4333932,82.2190607 88.4333932,79.486776 L88.4333932,41.9024764 C88.4333932,39.1701918 86.2544055,36.9572182 83.5649122,36.9572182 L46.5561557,36.9572182 C43.8658323,36.9572182 41.6868447,39.1701918 41.6868447,41.9024764 L41.6868447,54.7587989 L41.6868447,56.738251 L41.6868447,74.5415178 C41.6868447,75.6357805 40.8152496,76.5209699 39.7386222,76.5209699 C38.6628248,76.5209699 37.7903997,75.6357805 37.7903997,74.5415178 L37.7903997,62.6740784 L37.7903997,56.8385725 L37.7903997,52.7810328 L37.7903997,51.7929928 L37.7903997,40.9119073 C37.7903997,36.5424437 41.2801003,33 45.5832896,33 L84.5386084,33 C88.8426278,33 92.3298382,36.5424437 92.3298382,40.9119073 L92.3298382,80.475659 C92.3298382,84.8468087 88.8426278,88.3892524 84.5386084,88.3892524 L84.5386084,88.3892524 Z M47.5290218,64.6526875 L55.3210817,64.6526875 C56.3977091,64.6526875 57.2693042,65.5378769 57.2693042,66.6279244 C57.2693042,67.7213441 56.3977091,68.6065335 55.3210817,68.6065335 L47.5290218,68.6065335 C46.4548847,68.6065335 45.5832896,67.7213441 45.5832896,66.6279244 C45.5832896,65.5378769 46.4548847,64.6526875 47.5290218,64.6526875 L47.5290218,64.6526875 Z M47.5290218,72.5637517 L55.3210817,72.5637517 C56.3977091,72.5637517 57.2693042,73.4489412 57.2693042,74.5415178 C57.2693042,75.6357805 56.3977091,76.5209699 55.3210817,76.5209699 L47.5290218,76.5209699 C46.4548847,76.5209699 45.5832896,75.6357805 45.5832896,74.5415178 C45.5832896,73.4489412 46.4548847,72.5637517 47.5290218,72.5637517 L47.5290218,72.5637517 Z M45.5832896,49.8143837 C45.5832896,47.0829421 47.7622773,44.8691255 50.4517706,44.8691255 L64.0868378,44.8691255 C66.7763311,44.8691255 68.9561488,47.0829421 68.9561488,49.8143837 L68.9561488,52.7810328 L68.9561488,58.7168601 C68.9561488,59.8102798 68.0845538,60.6946262 67.0079264,60.6946262 C65.9312989,60.6946262 65.060534,59.8102798 65.060534,58.7168601 L65.060534,52.7810328 L65.060534,50.8049528 C65.060534,49.7115331 64.1881088,48.8263437 63.1123115,48.8263437 L51.4254668,48.8263437 C50.3488394,48.8263437 49.4772443,49.7115331 49.4772443,50.8049528 L49.4772443,54.7587989 C49.4772443,55.8522186 50.3488394,56.738251 51.4254668,56.738251 L59.2183568,56.738251 C60.2924939,56.738251 61.1632589,57.6234405 61.1632589,58.7168601 C61.1632589,59.8102798 60.2924939,60.6946262 59.2183568,60.6946262 L50.4517706,60.6946262 C47.7622773,60.6946262 45.5832896,58.4816527 45.5832896,55.750211 L45.5832896,49.8143837 Z M63.1123115,64.6526875 L82.591216,64.6526875 C83.6678434,64.6526875 84.5386084,65.5378769 84.5386084,66.6279244 C84.5386084,67.7213441 83.6678434,68.6065335 82.591216,68.6065335 L63.1123115,68.6065335 C62.0381743,68.6065335 61.1632589,67.7213441 61.1632589,66.6279244 C61.1632589,65.5378769 62.0381743,64.6526875 63.1123115,64.6526875 L63.1123115,64.6526875 Z M63.1123115,72.5637517 L82.591216,72.5637517 C83.6678434,72.5637517 84.5386084,73.4489412 84.5386084,74.5415178 C84.5386084,75.6357805 83.6678434,76.5209699 82.591216,76.5209699 L63.1123115,76.5209699 C62.0381743,76.5209699 61.1632589,75.6357805 61.1632589,74.5415178 C61.1632589,73.4489412 62.0381743,72.5637517 63.1123115,72.5637517 L63.1123115,72.5637517 Z M82.591216,60.6946262 L74.798326,60.6946262 C73.725019,60.6946262 72.8525938,59.8102798 72.8525938,58.7168601 C72.8525938,57.6234405 73.725019,56.738251 74.798326,56.738251 L82.591216,56.738251 C83.6678434,56.738251 84.5386084,57.6234405 84.5386084,58.7168601 C84.5386084,59.8102798 83.6678434,60.6946262 82.591216,60.6946262 L82.591216,60.6946262 Z M82.591216,52.7810328 L74.798326,52.7810328 C73.725019,52.7810328 72.8525938,51.8950004 72.8525938,50.8049528 C72.8525938,49.7115331 73.725019,48.8263437 74.798326,48.8263437 L82.591216,48.8263437 C83.6678434,48.8263437 84.5386084,49.7115331 84.5386084,50.8049528 C84.5386084,51.8950004 83.6678434,52.7810328 82.591216,52.7810328 L82.591216,52.7810328 Z" id="Fill-1" stroke="#4E4294" stroke-width="1.3" fill="#FFFFFF"></path>
                        </g>
                        <g id="bubble" transform="translate(153.163551, 163.609756)">
                            <path d="M69.2383178,34.6097561 C69.2383178,53.72423 53.7388258,69.2195122 34.6191589,69.2195122 C15.499492,69.2195122 0,53.72423 0,34.6097561 C0,15.4952822 15.499492,0 34.6191589,0 C53.7388258,0 69.2383178,15.4952822 69.2383178,34.6097561" id="Fill-1-Copy-2" fill="#F48C8C"></path>
                            <path d="M39.7550271,52.4998662 C40.4455341,52.4998662 41.0054336,53.0596136 41.0054336,53.7499331 C41.0054336,54.4402526 40.4455341,55 39.7550271,55 C39.0645201,55 38.5046206,54.4402526 38.5046206,53.7499331 C38.5046206,53.0596136 39.0645201,52.4998662 39.7550271,52.4998662 L39.7550271,52.4998662 Z M30.2597527,44.0736876 C30.6970738,44.2684754 31.0027168,44.7051426 31.0027168,45.2145877 C31.0027168,45.9049072 30.4433526,46.4646546 29.7523103,46.4646546 C29.5034066,46.4646546 29.272167,46.3897362 29.076791,46.2639803 C24.3165748,44.1020496 21,39.3174399 21,33.7499331 C21,33.0596136 21.5598995,32.4998662 22.2504065,32.4998662 C22.9409135,32.4998662 23.500813,33.0596136 23.500813,33.7499331 C23.500813,38.3665115 26.2853227,42.3291593 30.2645701,44.062985 L30.2597527,44.0736876 Z M28.5024391,20.625301 C27.811932,20.625301 27.2520325,20.0655536 27.2520325,19.3752341 C27.2520325,18.6849146 27.811932,18.1251672 28.5024391,18.1251672 C29.1929461,18.1251672 29.7523103,18.6849146 29.7523103,19.3752341 C29.7523103,20.0655536 29.1929461,20.625301 28.5024391,20.625301 L28.5024391,20.625301 Z M34.7539363,42.4998662 C29.9203872,42.4998662 26.001626,38.5827046 26.001626,33.7499331 L26.001626,23.7499331 C26.001626,23.0596136 26.5615255,22.4998662 27.2520325,22.4998662 C27.9425396,22.4998662 28.5024391,23.0596136 28.5024391,23.7499331 L28.5024391,33.7499331 C28.5024391,37.2015305 31.300866,39.9997324 34.7539363,39.9997324 C38.2070067,39.9997324 41.0054336,37.2015305 41.0054336,33.7499331 L41.0054336,23.7499331 C41.0054336,20.2983357 38.2070067,17.5001338 34.7539363,17.5001338 C34.0634293,17.5001338 33.5035298,16.9403864 33.5035298,16.2500669 C33.5035298,15.5597474 34.0634293,15 34.7539363,15 C39.5880207,15 43.5062466,18.9171617 43.5062466,23.7499331 L43.5062466,33.7499331 C43.5062466,38.5827046 39.5880207,42.4998662 34.7539363,42.4998662 L34.7539363,42.4998662 Z M37.0674025,47.2898272 C37.0577675,47.297319 37.0502736,47.3021352 37.0454561,47.3021352 C36.4496931,47.3631402 36.0043428,47.9153957 36.0043428,48.5350779 L36.0043428,51.8748328 C36.0043428,53.6011666 34.6051294,55 32.8783266,55 L29.7523103,55 C29.0618033,55 28.5024391,54.4402526 28.5024391,53.7499331 C28.5024391,53.0596136 29.0618033,52.4998662 29.7523103,52.4998662 L32.2531233,52.4998662 C32.9436303,52.4998662 33.5035298,51.9401188 33.5035298,51.2497993 L33.5035298,48.0074383 C33.5035298,46.4100712 34.703085,45.0920426 36.2516407,44.9052817 C36.2602051,44.9042115 36.2698401,44.8961845 36.2800104,44.8844116 C41.7714146,44.1384385 46.0070596,39.4448012 46.0070596,33.7499331 C46.0070596,33.0596136 46.5669591,32.4998662 47.2574661,32.4998662 C47.9479732,32.4998662 48.5078727,33.0596136 48.5078727,33.7499331 C48.5078727,40.5541285 43.5597743,46.1890619 37.0674025,47.2898272 L37.0674025,47.2898272 Z" id="Fill-1" stroke="#F48C8C" stroke-width="0.25" fill="#FFFFFF"></path>
                        </g>
                        <g id="bubble" transform="translate(295.836449, 127.951220)">
                            <path d="M95.4649533,47.7195122 C95.4649533,74.0743171 74.0944416,95.4390244 47.7324766,95.4390244 C21.3705117,95.4390244 0,74.0743171 0,47.7195122 C0,21.3647073 21.3705117,0 47.7324766,0 C74.0944416,0 95.4649533,21.3647073 95.4649533,47.7195122" id="Fill-1-Copy-5" fill="#8B2D9B"></path>
                            <g id="Group-6" transform="translate(23.112568, 23.106290)" fill="#FFFFFF" stroke="#FFFFFF" stroke-width="0.35">
                                <path d="M1.14259981,26.2325315 C0.511619704,26.2325315 -0.000175272252,25.7208755 -0.000175272252,25.0900668 L-0.000175272252,24.9761707 C-0.000175272252,24.345362 0.511619704,23.8342901 1.14259981,23.8342901 C1.77357992,23.8342901 2.28479065,24.345362 2.28479065,24.9761707 L2.28479065,25.0900668 C2.28479065,25.7208755 1.77357992,26.2325315 1.14259981,26.2325315 L1.14259981,26.2325315 Z M47.5453443,37.5362734 C47.3905205,37.5362734 47.2333597,37.5041489 47.0826255,37.4375635 C46.5059798,37.1817356 46.2454084,36.5065366 46.5018902,35.9306316 C46.7256544,35.4265687 46.8384129,34.8892131 46.8389971,34.3325828 L46.8389971,6.80829525 C46.8389971,4.63550963 45.0705001,2.86807702 42.8977084,2.86807702 L6.22607936,2.86807702 C4.05270344,2.86807702 2.28479065,4.63550963 2.28479065,6.80829525 L2.28479065,19.2655995 C2.28479065,19.8964082 1.77357992,20.4074801 1.14259981,20.4074801 C0.511619704,20.4074801 -0.000175272252,19.8964082 -0.000175272252,19.2655995 L-0.000175272252,6.80829525 C-0.000175272252,3.3762285 2.79308018,0.584315789 6.22607936,0.584315789 L42.8977084,0.584315789 C46.3307076,0.584315789 49.1233788,3.3762285 49.1233788,6.80829525 L49.1233788,34.3331669 C49.1233788,35.2110424 48.9434326,36.0602978 48.5899669,36.8569859 C48.4012571,37.2827818 47.9835249,37.5362734 47.5453443,37.5362734 L47.5453443,37.5362734 Z M42.9374368,40.5571463 C42.3105464,40.5571463 41.7999199,40.0513312 41.7952459,39.4234429 C41.790572,38.7926341 42.2982773,38.2774737 42.9292574,38.272801 C42.9584695,38.272801 42.9876815,38.2722169 43.0168935,38.2710488 C43.6467052,38.2494377 44.1742746,38.7476598 44.1941388,39.3778845 C44.2134188,40.0081091 43.7179826,40.5349512 43.0870024,40.55481 C43.0402632,40.5559782 42.9929397,40.5565623 42.9462004,40.5571463 L42.9374368,40.5571463 Z M11.4240701,49.6945276 C11.2149119,49.6945276 11.0057537,49.6367035 10.8193808,49.5210552 C10.4086595,49.2652272 10.203591,48.7775186 10.3087544,48.3044121 L12.0310963,40.5571463 L6.22607936,40.5571463 C2.79308018,40.5571463 -0.000175272252,37.7652336 -0.000175272252,34.3331669 L-0.000175272252,30.800638 C-0.000175272252,30.1698293 0.511619704,29.6587574 1.14259981,29.6587574 C1.77357992,29.6587574 2.28479065,30.1698293 2.28479065,30.800638 L2.28479065,34.3331669 C2.28479065,36.5059525 4.05270344,38.2733851 6.22607936,38.2733851 L13.4548913,38.2733851 C13.8013461,38.2733851 14.1296894,38.4305032 14.3464428,38.7009332 C14.5631961,38.9713633 14.6449899,39.3253171 14.5696228,39.6629166 L13.2428119,45.6351566 L22.1343732,38.5233723 C22.3365205,38.3615815 22.5889126,38.2733851 22.8477313,38.2733851 L37.2253141,38.2733851 C37.8562942,38.2733851 38.3680892,38.784457 38.3680892,39.4152657 C38.3680892,40.0460745 37.8562942,40.5571463 37.2253141,40.5571463 L23.2491047,40.5571463 L12.1374282,49.4439564 C11.9300227,49.6098357 11.6776306,49.6945276 11.4240701,49.6945276 L11.4240701,49.6945276 Z" id="Fill-1"></path>
                                <path d="M20.7876981,14.3962818 L20.7876981,26.79693 L28.77836,20.5963139 L20.7876981,14.3962818 Z M19.6700453,30.2044653 C19.5023682,30.2044653 19.3352753,30.1489775 19.1675982,30.0929056 C18.7761568,29.9252741 18.5529768,29.5345231 18.5529768,29.0871162 L18.5529768,12.0494397 C18.5529768,11.6032009 18.7761568,11.2118659 19.1675982,11.0442343 C19.5584553,10.8771868 20.0053996,10.8771868 20.3401696,11.155794 L31.2923484,19.6465963 C31.5716155,19.8702997 31.7392926,20.2055629 31.7392926,20.5408261 C31.7392926,20.8760892 31.5716155,21.2113524 31.2923484,21.4344718 L20.3401696,29.981346 C20.1175738,30.0929056 19.8938096,30.2044653 19.6700453,30.2044653 L19.6700453,30.2044653 Z" id="Fill-4"></path>
                            </g>
                        </g>
                    </g>
                    <g id="shapes" transform="translate(0.976178, 18.345895)">
                        <path d="M430.18971,57.1662997 C430.18971,60.0624321 427.841302,62.4102021 424.944383,62.4102021 C422.047463,62.4102021 419.699055,60.0624321 419.699055,57.1662997 C419.699055,54.2701673 422.047463,51.9223972 424.944383,51.9223972 C427.841302,51.9223972 430.18971,54.2701673 430.18971,57.1662997" id="Fill-1" fill="#2F043E"></path>
                        <path d="M285.418682,306.251666 C285.418682,314.071223 279.07798,320.410202 271.256298,320.410202 C263.434617,320.410202 257.093915,314.071223 257.093915,306.251666 C257.093915,298.432108 263.434617,292.093129 271.256298,292.093129 C279.07798,292.093129 285.418682,298.432108 285.418682,306.251666" id="Fill-1-Copy-6" fill="#CBCBD4"></path>
                        <path d="M215.344547,39.9011444 L181.419252,39.9190465 C181.429139,21.1959288 196.625993,6.0098871 215.362449,6 L215.362449,6 L215.344547,39.9011444 Z" id="Fill-7" fill="#8B2D9B" transform="translate(198.390851, 22.959523) rotate(28.000000) translate(-198.390851, -22.959523) "></path>
                        <g id="Group-5" transform="translate(30.030374, 271.369782) scale(-1, 1) rotate(11.000000) translate(-30.030374, -271.369782) translate(8.000000, 227.321001)" fill="#FEDFDF">
                            <path d="M43.4242344,43.6721752 L43.4242344,87.0958205 C19.9970935,87.0958205 1.00571758,67.6544342 1.00571758,43.6721752 L43.4242344,43.6721752 Z" id="Fill-23"></path>
                            <path d="M43.6582336,43.8929375 L43.6582336,0.469292192 C20.2310928,0.469292192 1.23971684,19.9106785 1.23971684,43.8929375 L43.6582336,43.8929375 Z" id="Fill-25"></path>
                        </g>
                    </g>
                </g>
            </g>
        </g>
    </g>
</svg>