<?xml version="1.0" encoding="UTF-8"?>
<svg width="248px" height="30px" viewBox="0 0 248 30" version="1.1" xmlns="http://www.w3.org/2000/svg" xmlns:xlink="http://www.w3.org/1999/xlink">
    <title>logo/dpla-logo-footer</title>
    <defs>
        <polygon id="path-1" points="0.480409833 0.237982759 5.60142259 0.237982759 5.60142259 9.18108621 0.480409833 9.18108621"></polygon>
    </defs>
    <g id="DPLA" stroke="none" stroke-width="1" fill="none" fill-rule="evenodd">
        <g id="1.0-Home" transform="translate(-1143.000000, -3029.000000)">
            <g id="global/footer" transform="translate(0.000000, 2710.000000)">
                <g id="dpla-logo-footer" transform="translate(1143.000000, 319.000000)">
                    <path d="M238.964852,4.13793103 C239.412346,4.1037931 239.857256,4.23413793 240.215354,4.50517241 C240.511961,4.79586207 240.665432,5.20293103 240.633394,5.61724138 C240.655614,6.13603448 240.440651,6.63672414 240.049999,6.97758621 C239.615423,7.33706897 239.062515,7.52172414 238.49979,7.49482759 L237.611003,7.49482759 L237.611003,4.13793103 L238.964852,4.13793103 Z M236.77389,12.2844828 L237.626505,12.2844828 L237.626505,8.19310345 L238.592802,8.19310345 C239.031511,8.16465517 239.460919,8.3312069 239.765794,8.64827586 C240.089271,9.07965517 240.289248,9.59068966 240.344538,10.1275862 L240.695919,12.2793103 L241.625528,12.2793103 L241.108792,9.62068966 C241.042133,9.19241379 240.881428,8.78482759 240.638562,8.42586207 C240.394662,8.13155172 240.057233,7.9287931 239.683116,7.85172414 C240.229306,7.70017241 240.714005,7.38 241.067453,6.9362069 C241.368193,6.51982759 241.524248,6.01655172 241.512363,5.50344828 C241.556802,4.87603448 241.289649,4.26724138 240.799267,3.87413793 C240.247392,3.50017241 239.588553,3.31810345 238.923513,3.35689655 L236.77389,3.35689655 L236.77389,12.2844828 Z M233.564957,8.46724138 L231.565187,8.46724138 L232.531484,4.42758621 L233.564957,8.46724138 Z M229.679099,12.3 L230.629894,12.3 L231.389497,9.19655172 L233.761317,9.19655172 L234.520403,12.3 L235.492384,12.3 L232.990863,3.34137931 L232.133597,3.34137931 L229.673932,12.2844828 L229.679099,12.3 Z M226.764706,4.13793103 C227.2122,4.1037931 227.65711,4.23413793 228.015208,4.50517241 C228.311815,4.79586207 228.465285,5.20293103 228.433764,5.61724138 C228.455984,6.13603448 228.241022,6.63672414 227.849852,6.97758621 C227.415277,7.33706897 226.862369,7.52172414 226.299643,7.49482759 L225.410856,7.49482759 L225.410856,4.13793103 L226.764706,4.13793103 Z M224.573227,12.2844828 L225.426359,12.2844828 L225.426359,8.19310345 L226.392656,8.19310345 C226.831882,8.16465517 227.260773,8.3312069 227.565131,8.64827586 C227.889124,9.07965517 228.089101,9.59068966 228.144392,10.1275862 L228.495773,12.2793103 L229.431066,12.2793103 L228.914329,9.62068966 C228.847154,9.19241379 228.686449,8.78482759 228.444099,8.42586207 C228.199683,8.13155172 227.862771,7.9287931 227.488137,7.85172414 C228.034844,7.70017241 228.519026,7.38 228.87299,6.9362069 C229.173214,6.51982759 229.329269,6.01655172 229.317384,5.50344828 C229.362856,4.87706897 229.097771,4.26775862 228.609455,3.87413793 C228.058097,3.50017241 227.398741,3.31810345 226.733702,3.35689655 L224.573227,3.35689655 L224.573227,12.2844828 Z M220.501861,7.98103448 C221.126078,7.93655172 221.749779,8.07103448 222.300103,8.36896552 C222.703158,8.65706897 222.925354,9.13706897 222.884015,9.63103448 C222.91502,10.1441379 222.727444,10.6458621 222.367279,11.012069 C221.938388,11.3813793 221.381863,11.567069 220.81707,11.5293103 L219.375375,11.5293103 L219.375375,7.98103448 L220.501861,7.98103448 Z M220.594873,4.09655172 C221.040817,4.06241379 221.484693,4.185 221.850543,4.44310345 C222.139915,4.70586207 222.294419,5.08655172 222.268582,5.47758621 C222.299587,5.96275862 222.109428,6.43603448 221.751846,6.76551724 C221.349825,7.08517241 220.844457,7.245 220.330821,7.21551724 L219.359873,7.21551724 L219.359873,4.11206897 L220.594873,4.09655172 Z M218.491756,12.2844828 L221.028932,12.2844828 C221.557036,12.3005172 222.07894,12.1701724 222.537802,11.9068966 C222.924321,11.685 223.247798,11.3684483 223.478262,10.9862069 C223.696325,10.5894828 223.805356,10.1410345 223.793472,9.68793103 C223.837911,9.12206897 223.651369,8.56241379 223.276735,8.1362069 C222.836476,7.74362069 222.269099,7.52327586 221.68002,7.51551724 C222.126997,7.34844828 222.517649,7.05775862 222.805988,6.67758621 C223.061773,6.30517241 223.19199,5.86189655 223.178555,5.41034483 C223.221444,4.82275862 222.988396,4.24913793 222.54762,3.85862069 C222.066022,3.495 221.471258,3.31189655 220.868227,3.34137931 L218.496923,3.34137931 L218.496923,12.2844828 L218.491756,12.2844828 Z M215.142787,12.2844828 L215.995919,12.2844828 L215.995919,3.34137931 L215.122118,3.34137931 L215.122118,12.2844828 L215.142787,12.2844828 Z M210.353158,12.2844828 L214.549057,12.2844828 L214.549057,11.5293103 L211.241944,11.5293103 L211.241944,3.34137931 L210.36866,3.34137931 L210.36866,12.2844828 L210.353158,12.2844828 Z M206.219267,10.8206897 C205.792442,11.2815517 205.211114,11.5686207 204.586379,11.6275862 C203.920306,11.6141379 203.324509,11.2081034 203.067174,10.5931034 C202.671871,9.7737931 202.481195,8.86965517 202.514267,7.96034483 C202.454842,6.94965517 202.648618,5.93948276 203.077509,5.02241379 C203.349829,4.40586207 203.953894,4.00241379 204.627718,3.98793103 C205.223515,4.05 205.77539,4.33034483 206.177928,4.77413793 L206.177928,3.73965517 C205.725267,3.41017241 205.186827,3.21982759 204.627718,3.19137931 C203.718779,3.18310345 202.878049,3.67344828 202.436756,4.46896552 C201.859562,5.47551724 201.580007,6.62534483 201.630647,7.78448276 C201.624963,8.56965517 201.730894,9.35172414 201.94534,10.1068966 C202.111729,10.755 202.457426,11.3436207 202.943158,11.8034483 C203.377733,12.2006897 203.946143,12.4189655 204.534706,12.413883 C205.13257,12.3982759 205.714932,12.2198276 206.219267,11.8965517 L206.219267,10.862069 L206.219267,10.8206897 Z M198.612907,12.2844828 L199.460354,12.2844828 L199.460354,3.34137931 L198.586553,3.34137931 L198.586553,12.2844828 L198.612907,12.2844828 Z M193.838262,12.2844828 L198.034162,12.2844828 L198.034162,11.5293103 L194.71103,11.5293103 L194.71103,3.34137931 L193.838262,3.34137931 L193.838262,12.2844828 Z M189.771547,7.98103448 C190.395764,7.93655172 191.019465,8.07103448 191.56979,8.36896552 C191.973361,8.65706897 192.194524,9.13706897 192.153702,9.63103448 C192.185223,10.1441379 191.997131,10.6458621 191.636965,11.012069 C191.208074,11.3813793 190.651032,11.567069 190.086756,11.5293103 L188.60889,11.5293103 L188.60889,7.98103448 L189.771547,7.98103448 Z M189.864043,4.09655172 C190.310503,4.06241379 190.754379,4.185 191.120229,4.44310345 C191.410118,4.70586207 191.564622,5.08655172 191.538785,5.47758621 C191.568756,5.96275862 191.379114,6.43603448 191.022049,6.76551724 C190.619511,7.08517241 190.113626,7.245 189.601024,7.21551724 L188.60889,7.21551724 L188.60889,4.11206897 L189.864043,4.09655172 Z M187.761442,12.2844828 L190.298101,12.2844828 C190.826723,12.3005172 191.349143,12.1701724 191.807488,11.9068966 C192.19194,11.6844828 192.513867,11.3674138 192.742781,10.9862069 C192.961361,10.5894828 193.070392,10.1410345 193.05799,9.68793103 C193.10243,9.12206897 192.915888,8.56241379 192.541254,8.1362069 C192.105645,7.74051724 191.542919,7.51448276 190.954873,7.5 C191.40185,7.33293103 191.792503,7.04224138 192.081359,6.66206897 C192.336626,6.28965517 192.466844,5.84586207 192.453409,5.39482759 C192.496298,4.80724138 192.26325,4.23362069 191.82299,3.84310345 C191.340875,3.47948276 190.746628,3.29689655 190.143597,3.32586207 L187.771777,3.32586207 L187.771777,12.2844828 L187.761442,12.2844828 Z M181.312572,9.58965517 C181.272267,10.332931 181.497564,11.0663793 181.948158,11.6586207 C182.380666,12.1768966 183.031237,12.4618966 183.705062,12.4293103 C184.369068,12.4567241 185.011888,12.1944828 185.467133,11.7103448 C185.928062,11.177069 186.165244,10.4855172 186.128555,9.78103448 L186.128555,3.34137931 L185.255271,3.34137931 L185.255271,9.77586207 C185.288342,10.275 185.139522,10.7694828 184.836714,11.1672414 C184.558193,11.4910345 184.146871,11.6705172 183.720564,11.6534483 C183.280304,11.6731034 182.858131,11.4806897 182.583744,11.1362069 C182.293338,10.7405172 182.149168,10.2558621 182.175522,9.76551724 L182.175522,3.34137931 L181.302237,3.34137931 L181.302237,9.58965517 L181.312572,9.58965517 Z M178.010626,4.11206897 C178.445202,4.08672414 178.872026,4.23775862 179.193953,4.53103448 C179.491593,4.84448276 179.645064,5.26810345 179.61716,5.7 C179.645064,6.18775862 179.455938,6.66310345 179.100423,6.99827586 C178.723206,7.32051724 178.237474,7.48706897 177.741923,7.4637931 L176.419078,7.4637931 L176.419078,4.11206897 L178.010626,4.11206897 Z M175.556128,12.2844828 L176.428896,12.2844828 L176.428896,8.21896552 L177.757426,8.21896552 C178.487057,8.25465517 179.203771,8.01258621 179.762363,7.54137931 C180.28375,7.05258621 180.562271,6.35741379 180.521449,5.64310345 C180.568988,4.99810345 180.324572,4.36551724 179.854859,3.92068966 C179.335538,3.50896552 178.6829,3.30258621 178.020961,3.34137931 L175.550961,3.34137931 L175.550961,12.2844828 L175.556128,12.2844828 Z M167.773562,12.2844828 L171.969978,12.2844828 L171.969978,11.5293103 L168.647363,11.5293103 L168.647363,3.34137931 L167.773562,3.34137931 L167.773562,12.2844828 Z M164.590465,8.46724138 L162.591212,8.46724138 L163.583346,4.42758621 L164.616819,8.46724138 L164.590465,8.46724138 Z M160.705124,12.2844828 L161.655919,12.2844828 L162.415005,9.18103448 L164.787342,9.18103448 L165.546944,12.2844828 L166.518409,12.2844828 L164.006553,3.34137931 L163.149287,3.34137931 L160.705124,12.2844828 Z M156.266359,4.09655172 L158.333304,4.09655172 L158.333304,12.2844828 L159.185403,12.2844828 L159.185403,4.09655172 L161.289036,4.09655172 L161.289036,3.34137931 L156.271526,3.34137931 L156.271526,4.09655172 L156.266359,4.09655172 Z M153.568995,12.2844828 L154.441762,12.2844828 L154.441762,3.34137931 L153.568995,3.34137931 L153.568995,12.2844828 Z M151.403869,12.2844828 L151.920605,12.2844828 L151.920605,7.81034483 L149.40875,7.81034483 L149.40875,8.56551724 L151.046804,8.56551724 L151.046804,9.63103448 C151.06489,10.1337931 150.91917,10.6287931 150.633932,11.0431034 C150.421036,11.3901724 150.047953,11.6058621 149.641798,11.6172414 C149.100775,11.6172414 148.656382,11.2603448 148.308618,10.5465517 C147.941735,9.735 147.765011,8.85051724 147.791882,7.96034483 C147.742792,6.95327586 147.958271,5.95086207 148.417133,5.05344828 C148.723041,4.40896552 149.367928,3.99413793 150.081024,3.98275862 C150.720744,4.03655172 151.315507,4.33241379 151.744915,4.81034483 L151.744915,3.73965517 C151.260216,3.39982759 150.687672,3.20896552 150.096526,3.19135325 C149.156066,3.18724138 148.282264,3.67603448 147.791882,4.47931034 C147.156813,5.50241379 146.848838,6.69517241 146.908262,7.89827586 C146.906195,8.65189655 147.006959,9.40137931 147.207969,10.1275862 C147.362474,10.7658621 147.689568,11.3493103 148.153597,11.8137931 C148.52203,12.1924138 149.025848,12.4081034 149.553953,12.4138128 C149.854693,12.4153448 150.1482,12.3253448 150.396233,12.1551724 C150.677854,11.9539655 150.910386,11.6922414 151.078325,11.3896552 L151.393534,12.2689655 L151.403869,12.2844828 Z M143.968032,12.2844828 L144.841317,12.2844828 L144.841317,3.34137931 L143.962348,3.34137931 L143.962348,12.2844828 L143.968032,12.2844828 Z M139.648116,4.12241379 C140.327108,4.08155172 140.970961,4.42810345 141.312007,5.01724138 C141.70576,5.81948276 141.884034,6.7112069 141.828744,7.60344828 C141.884551,8.60793103 141.70731,9.61189655 141.312007,10.5362069 C141.000932,11.1724138 140.338992,11.5598276 139.632614,11.5189655 L138.438953,11.5189655 L138.438953,4.13793103 L139.648116,4.12241379 Z M137.58117,12.2844828 L139.648116,12.2844828 C140.247013,12.2968966 140.834543,12.1153448 141.322342,11.7672414 C141.834944,11.3762069 142.211128,10.8331034 142.397154,10.2155172 C142.636919,9.4737931 142.755252,8.69844828 142.748534,7.91896552 C142.821394,6.74068966 142.554758,5.56655172 141.978597,4.5362069 C141.468062,3.7562069 140.577725,3.31137931 139.648116,3.37241379 L137.58117,3.37241379 L137.58117,12.2844828 Z" id="Fill-1" fill="#FFFFFF"></path>
                    <g id="Group-5" transform="translate(241.315900, 3.103448)">
                        <mask id="mask-2" fill="white">
                            <use xlink:href="#path-1"></use>
                        </mask>
                        <g id="Clip-4"></g>
                        <polygon id="Fill-3" fill="#FFFFFF" mask="url(#mask-2)" points="2.67653954 5.08453448 2.67653954 9.18108621 3.54982406 9.18108621 3.54982406 5.08453448 5.69996423 0.237982759 4.70214623 0.237982759 3.12610021 4.1897069 1.49321318 0.237982759 0.480409833 0.237982759"></polygon>
                    </g>
                    <g id="Group-22" fill="#FFFFFF">
                        <path d="M188.469526,22.9808793 L186.469756,22.9808793 L187.46189,18.9412241 L188.495363,22.9808793 L188.469526,22.9808793 Z M184.583152,26.7981207 L185.533947,26.7981207 L186.293549,23.6946724 L188.665886,23.6946724 L189.425488,26.7981207 L190.396436,26.7981207 L187.900599,17.8550172 L187.058836,17.8550172 L184.599171,26.7981207 L184.583152,26.7981207 Z M184.361472,25.3446724 C183.934647,25.8055345 183.353319,26.0931207 182.728585,26.151569 C182.062512,26.1381207 181.466198,25.7320862 181.208863,25.1170862 C180.81356,24.2977759 180.623401,23.3941552 180.656472,22.4843276 C180.601698,21.4762241 180.799091,20.4701897 181.229532,19.5567414 C181.502369,18.9401897 182.106951,18.5367414 182.779742,18.5222586 C183.376055,18.5848448 183.92793,18.8646724 184.329951,19.3084655 L184.329951,18.2739828 C183.861271,17.9357069 183.301129,17.7469138 182.723417,17.7313966 C181.813961,17.7226034 180.973231,18.2129483 180.532455,19.0084655 C179.95526,20.0155345 179.675706,21.1648448 179.725829,22.3239828 C179.7201,23.1091552 179.826593,23.8912241 180.041039,24.6469138 C180.206911,25.2950172 180.553124,25.8831207 181.03834,26.3429483 C181.476532,26.7458793 182.051143,26.9662241 182.64539,26.9584655 C183.260306,26.9305345 183.854553,26.7298448 184.361472,26.3791552 L184.361472,25.3446724 Z M176.760279,26.7981207 L177.633047,26.7981207 L177.633047,17.8550172 L176.760279,17.8550172 L176.760279,26.7981207 Z M172.884756,18.6205345 C173.33225,18.5863966 173.776643,18.7167414 174.135258,18.9877759 C174.431865,19.2784655 174.584819,19.6855345 174.553298,20.1003621 C174.575518,20.6191552 174.360555,21.1193276 173.969386,21.4607069 C173.535327,21.8201897 172.982419,22.0043276 172.419177,21.9779483 L171.556744,21.9779483 L171.556744,18.6205345 L172.884756,18.6205345 Z M170.698445,26.7981207 L171.556744,26.7981207 L171.556744,22.7072586 L172.523041,22.7072586 C172.96175,22.6782931 173.390641,22.8448448 173.695516,23.162431 C174.019509,23.5938103 174.219486,24.1048448 174.27426,24.6412241 L174.626158,26.7929483 L175.556283,26.7929483 L175.039547,24.1343276 C174.972371,23.7060517 174.811666,23.2984655 174.569317,22.9395 C174.324901,22.6451897 173.987988,22.4429483 173.612838,22.3658793 C174.159545,22.2143276 174.644244,21.8931207 174.998208,21.4498448 C175.298432,21.0334655 175.454486,20.5307069 175.442085,20.0176034 C175.487558,19.3912241 175.222988,18.7819138 174.734673,18.3877759 C174.183315,18.0132931 173.523442,17.8317414 172.858403,17.8705345 L170.709296,17.8705345 L170.709296,26.7981207 L170.698445,26.7981207 Z M165.443235,26.7981207 L169.784338,26.7981207 L169.784338,26.0532931 L166.311353,26.0532931 L166.311353,22.4998448 L169.593145,22.4998448 L169.593145,21.7550172 L166.311353,21.7550172 L166.311353,18.6205345 L169.784338,18.6205345 L169.784338,17.8550172 L165.443235,17.8550172 L165.443235,26.7981207 Z M158.224945,17.8498448 L158.224945,26.7981207 L159.051206,26.7981207 L159.051206,22.0912241 C159.051206,21.8776034 159.024336,20.8069138 158.968528,18.8791552 C159.313191,19.8588103 159.620133,20.6776034 159.888319,21.3360517 L161.211681,24.7446724 L162.772225,20.6895 C163.01044,20.0734655 163.215585,19.4450172 163.387141,18.8072586 L163.387141,26.7981207 L164.172064,26.7981207 L164.172064,17.8550172 L163.138591,17.8550172 L161.196179,22.7584655 L159.268235,17.8348448 L158.224945,17.8498448 Z M155.021179,22.9808793 L153.00539,22.9808793 L153.987706,18.9412241 L155.021179,22.9808793 Z M151.12447,26.7981207 L152.075265,26.7981207 L152.834867,23.6946724 L155.207204,23.6946724 L155.966806,26.7981207 L156.937754,26.7981207 L154.441917,17.8550172 L153.584135,17.8550172 L151.12447,26.7981207 Z M143.962503,26.7981207 L144.836304,26.7981207 L144.836304,22.686569 L147.936723,22.686569 L147.936723,21.9619138 L144.836304,21.9619138 L144.836304,18.6205345 L148.153235,18.6205345 L148.153235,17.8550172 L143.962503,17.8550172 L143.962503,26.7981207 Z M141.555028,19.4481207 C141.989604,20.3362241 142.185447,21.3220862 142.123438,22.3084655 C142.174078,23.2658793 141.996838,24.2212241 141.606702,25.0963966 C141.360219,25.7093276 140.772689,26.1163966 140.113334,26.1308793 C139.46793,26.1195 138.890219,25.7284655 138.640118,25.1326034 C138.25515,24.2982931 138.077909,23.3817414 138.123382,22.4636379 C138.08876,21.4839828 138.264968,20.5089828 138.640118,19.6038103 C138.885051,18.9401897 139.52012,18.5031207 140.227016,18.5119138 C140.816095,18.5527759 141.336965,18.9117414 141.586032,19.4481207 L141.555028,19.4481207 Z M137.968878,18.9722586 C137.39375,20.0222586 137.121947,21.2113966 137.183438,22.4072586 C137.117296,23.5736379 137.399434,24.7332931 137.994198,25.7377759 C138.671639,26.9036379 140.165007,27.2988103 141.328698,26.6207069 C141.694547,26.4081207 141.998388,26.1034655 142.210767,25.7377759 C142.806564,24.7627759 143.094386,23.6310517 143.037545,22.4900172 C143.106788,21.2672586 142.8293,20.0491552 142.236604,18.9779483 C141.81753,18.2113966 141.016589,17.7329483 140.143821,17.7257069 C139.242116,17.7138103 138.407587,18.201569 137.973528,18.9929483 L137.968878,18.9722586 Z" id="Fill-6"></path>
                        <path d="M69.8162036,6.1397069 C69.7986345,5.89194828 69.9851764,5.67625862 70.2332098,5.65918966 C70.2352768,5.65867241 70.2373437,5.65867241 70.2399274,5.65867241 C71.1984734,5.77401724 72.1632203,5.82108621 73.1284839,5.79832759 L74.8853877,5.79832759 C75.8501345,5.82056897 76.8153981,5.77401724 77.7739441,5.65867241 C78.0193939,5.68298276 78.2043856,5.89298276 78.197668,6.1397069 C78.2219546,6.39884483 78.0328291,6.62953448 77.7739441,6.65694828 C77.4897391,6.65694828 77.2055341,6.63108621 75.8206805,6.63108621 L75.8206805,22.8931552 L80.2077726,22.8931552 L80.21294,22.8931552 C82.3315592,22.8931552 83.0446554,21.5328103 83.0446554,19.2724655 C83.0715257,19.0221207 83.2952726,18.8416034 83.545373,18.8679828 C83.7577517,18.8907414 83.9262077,19.0593621 83.9489441,19.2724655 C83.9489441,19.556431 83.8094253,21.5379828 83.8094253,22.7017759 L83.8094253,23.5810862 C83.8269944,23.8288448 83.6399358,24.0440172 83.392419,24.0610862 C83.3888019,24.0616034 83.384668,24.0616034 83.3805341,24.0616034 C83.1273333,24.0616034 82.2488814,23.9483276 81.7941533,23.9483276 L73.8364128,23.891431 L73.1284839,23.891431 C72.1632203,23.8686724 71.1984734,23.9152241 70.2399274,24.0310862 C70.0001617,24.026431 69.809486,23.8283276 69.8141366,23.5888448 C69.8141366,23.5759138 69.8151701,23.5629828 69.8162036,23.5500517 C69.7841659,23.2976379 69.96244,23.0674655 70.2146073,23.0353966 C70.2228751,23.0343621 70.2316596,23.0333276 70.2399274,23.0328103 C70.5241324,23.0328103 70.8083374,23.0586724 72.1673542,23.0586724 L72.1673542,6.63108621 C70.8083374,6.63108621 70.5241324,6.65694828 70.2399274,6.65694828 C69.9867266,6.63884483 69.7955341,6.41901724 69.8136199,6.16505172 C69.8146533,6.15677586 69.8151701,6.14798276 69.8162036,6.1397069 L69.8162036,6.1397069 Z M62.1375006,29.7207414 L91.8291743,29.7207414 L91.8291743,5.17241379e-05 L62.1375006,5.17241379e-05 L62.1375006,29.7207414 Z" id="Fill-8"></path>
                        <path d="M38.9258048,6.1397069 C38.9082358,5.89194828 39.0947776,5.67625862 39.3428111,5.65918966 C39.344878,5.65867241 39.346945,5.65867241 39.3495287,5.65867241 C40.3075579,5.77401724 41.2728215,5.82108621 42.2380851,5.79832759 L43.6539429,5.79832759 C45.0698006,5.77246552 45.4935245,5.74143103 46.8835454,5.74143103 C50.9864324,5.74143103 53.1928969,7.83625862 53.1928969,11.0431552 C53.1928969,14.2500517 50.9864324,16.3707414 46.8835454,16.3707414 L44.9302818,16.3707414 L44.9302818,23.0638448 C46.3151354,23.0638448 46.5993404,23.0379828 46.8835454,23.0379828 C47.1424303,23.0653966 47.3315559,23.295569 47.3072692,23.5552241 C47.3248383,23.8029828 47.1382964,24.0181552 46.8907797,24.0357414 C46.888196,24.0362586 46.8856123,24.0362586 46.8835454,24.0362586 C45.9249994,23.9203966 44.9597358,23.8738448 43.9949889,23.8966034 L42.2380851,23.8966034 C41.2728215,23.8738448 40.3075579,23.9203966 39.3495287,24.0362586 C39.109763,24.0321207 38.9190872,23.8340172 38.9232211,23.5940172 C38.9237379,23.5810862 38.9242546,23.5676379 38.9258048,23.5552241 C38.8937672,23.3033276 39.0720412,23.0721207 39.3242086,23.040569 C39.3324764,23.0395345 39.3407441,23.0385 39.3495287,23.0379828 C39.6337337,23.0379828 39.9179387,23.0638448 41.2769554,23.0638448 L41.2769554,6.63108621 C39.9179387,6.63108621 39.6337337,6.65694828 39.3495287,6.65694828 C39.0963278,6.63884483 38.9051354,6.41901724 38.9232211,6.16505172 C38.9237379,6.15677586 38.9247713,6.14798276 38.9258048,6.1397069 L38.9258048,6.1397069 Z M31.0714115,29.7207414 L60.7630851,29.7207414 L60.7630851,5.17241379e-05 L31.0714115,5.17241379e-05 L31.0714115,29.7207414 Z" id="Fill-10"></path>
                        <path d="M49.2862663,11.0535 C49.2862663,7.82591379 48.5731701,6.79660345 46.428714,6.79660345 L44.9301785,6.79660345 L44.9301785,15.3569483 L46.428714,15.3569483 C48.5525006,15.3569483 49.2862663,14.2810862 49.2862663,11.0535" id="Fill-12"></path>
                        <path d="M6.85709205,6.1397069 C6.83952301,5.89194828 7.02606485,5.67625862 7.27409833,5.65918966 C7.27616527,5.65867241 7.27823222,5.65867241 7.2808159,5.65867241 C8.23884519,5.77401724 9.20410879,5.82056897 10.1693724,5.79832759 L11.5852301,5.79832759 C13.7916946,5.79832759 15.2643933,5.71556897 16.5407322,5.71556897 C20.6436192,5.71556897 24.1574268,9.37246552 24.1574268,14.8397069 C24.1574268,20.3069483 20.6436192,23.9948793 16.5355649,23.9948793 C15.2902301,23.9948793 13.9053766,23.8810862 11.5800628,23.8810862 L10.1693724,23.8810862 C9.20410879,23.8583276 8.23884519,23.9053966 7.2808159,24.0207414 L7.2808159,24.0259138 C7.04105021,24.0212586 6.85037448,23.8231552 6.85450837,23.5836724 C6.8550251,23.5707414 6.85605858,23.5578103 6.85709205,23.5443621 C6.82505439,23.2924655 7.00332845,23.0622931 7.25549582,23.0302241 C7.2637636,23.0286724 7.27203138,23.0281552 7.2808159,23.0271207 C7.56502092,23.0271207 7.84922594,23.0535 9.20824268,23.0535 L9.20824268,6.63108621 C7.84922594,6.63108621 7.57018828,6.65694828 7.2808159,6.65694828 C7.02761506,6.63884483 6.83642259,6.41901724 6.85450837,6.16505172 C6.8550251,6.15677586 6.85605858,6.14798276 6.85709205,6.1397069 L6.85709205,6.1397069 Z M0,29.7207414 L29.6916736,29.7207414 L29.6916736,5.17241379e-05 L0,5.17241379e-05 L0,29.7207414 Z" id="Fill-14"></path>
                        <path d="M20.1063167,14.844931 C20.1063167,8.78286207 18.6077812,6.79665517 15.8639109,6.79665517 C14.2775301,6.79665517 12.8616724,6.85355172 12.8616724,6.85355172 L12.8616724,22.8363103 C12.8616724,22.8363103 14.1328439,22.8932069 15.8639109,22.8932069 C18.6077812,22.8932069 20.1063167,20.907 20.1063167,14.844931" id="Fill-16"></path>
                        <polygon id="Fill-18" points="104.499603 17.1982759 109.480941 17.1982759 107.016109 10.7689655"></polygon>
                        <path d="M117.929427,23.5551724 C117.955263,23.7936207 117.782673,24.0082759 117.544458,24.0336207 C117.53154,24.0351724 117.518621,24.0362069 117.505703,24.0362069 C116.547673,23.9203448 115.58241,23.8737931 114.617146,23.8965517 L112.720724,23.8965517 C111.755977,23.8737931 110.790713,23.9203448 109.832167,24.0362069 C109.58465,24.0222414 109.394491,23.8101724 109.407927,23.5624138 C109.408443,23.5598276 109.408443,23.5577586 109.408443,23.5551724 C109.387257,23.2965517 109.574832,23.067931 109.832167,23.037931 C110.116372,23.037931 110.39541,23.0637931 111.72859,23.0637931 L109.889008,18.2172414 L104.10156,18.2172414 L102.174134,23.0637931 L102.375661,23.0637931 C103.734678,23.0637931 103.843192,23.037931 104.132565,23.037931 C104.39145,23.0653448 104.580575,23.2955172 104.556288,23.5551724 C104.573858,23.802931 104.387316,24.0186207 104.139799,24.0356897 C104.137215,24.0362069 104.135148,24.0362069 104.132565,24.0362069 C103.33524,23.9208621 102.529648,23.8737931 101.724573,23.8965517 L101.585054,23.8965517 C100.790314,23.8701724 99.9945395,23.9167241 99.2085835,24.0362069 C98.96055,24.0222414 98.770391,23.8101724 98.7838262,23.5624138 C98.7843429,23.5598276 98.7843429,23.5577586 98.7843429,23.5551724 C98.760573,23.2955172 98.9491818,23.0653448 99.2085835,23.037931 C99.4922718,23.037931 99.5749496,23.0637931 100.877125,23.0637931 L101.073485,23.0637931 L107.951247,5.55 C108.064929,5.32241379 108.122286,5.23965517 108.467983,5.23965517 C108.683979,5.20551724 108.890673,5.33896552 108.948548,5.55 L115.666121,23.0637931 C116.968297,23.0637931 117.21633,23.037931 117.505703,23.037931 C117.758904,23.0555172 117.950096,23.2758621 117.93201,23.5293103 C117.931494,23.5381034 117.93046,23.5463793 117.929427,23.5551724 L117.929427,23.5551724 Z M93.2035897,29.7206897 L122.895263,29.7206897 L122.895263,0 L93.2035897,0 L93.2035897,29.7206897 Z" id="Fill-20"></path>
                    </g>
                </g>
            </g>
        </g>
    </g>
</svg>