<?xml version="1.0" encoding="UTF-8"?>
<svg width="132px" height="46px" viewBox="0 0 132 46" version="1.1" xmlns="http://www.w3.org/2000/svg" xmlns:xlink="http://www.w3.org/1999/xlink">
    <title>logo/dpla_bws-logo-color-nav</title>
    <defs>
        <polygon id="path-1" points="0 0.11037 8.79343537 0.11037 8.79343537 8.84997 0 8.84997"></polygon>
        <polygon id="path-3" points="0 0 21.1185212 0 21.1185212 30.07707 0 30.07707"></polygon>
        <polygon id="path-5" points="0.0370512673 0.097965 9.20116532 0.097965 9.20116532 10.8 0.0370512673 10.8"></polygon>
        <polygon id="path-7" points="0.108090092 0.09798 8.49870046 0.09798 8.49870046 10.65783 0.108090092 10.65783"></polygon>
    </defs>
    <g id="DPLA" stroke="none" stroke-width="1" fill="none" fill-rule="evenodd">
        <g id="1.0-Home" transform="translate(-25.000000, -15.000000)">
            <g id="dpla_bws-logo-color" transform="translate(25.000000, 15.000000)">
                <path d="M13.9089099,38.25891 L13.4652002,38.25891 L13.4652002,40.77621 L13.9089099,40.77621 C14.5378005,40.77621 14.7551276,40.45971 14.7551276,39.51066 C14.7551276,38.56161 14.5439882,38.25891 13.9089099,38.25891" id="Fill-1" fill="#2F043E"></path>
                <path d="M14.0436226,41.074275 L13.4651399,41.074275 L13.4651399,43.042425 C13.875194,43.042425 13.9594083,43.034925 14.0436226,43.034925 C14.1202908,43.042875 14.1761318,43.110675 14.1690385,43.186875 C14.1741698,43.259775 14.1189325,43.323075 14.0457355,43.328325 C14.0449809,43.328325 14.0442263,43.328325 14.0436226,43.328325 C13.7597389,43.294425 13.4738933,43.280625 13.1880477,43.287375 L12.6678207,43.287375 C12.3819751,43.280625 12.0961295,43.294275 11.8123968,43.328325 C11.7413127,43.327275 11.684868,43.268925 11.6860753,43.198425 C11.6862263,43.194525 11.6863772,43.190775 11.68683,43.186875 C11.6773219,43.112775 11.7301445,43.044975 11.8048507,43.035525 C11.8072654,43.035225 11.8098311,43.035075 11.8123968,43.034925 C11.8964601,43.034925 11.9806744,43.042425 12.3831825,43.042425 L12.3831825,38.210325 C11.9806744,38.210325 11.8964601,38.217825 11.8123968,38.217825 C11.7373887,38.212575 11.6807931,38.147775 11.6860753,38.073225 C11.6862263,38.070825 11.6865281,38.068275 11.68683,38.065725 C11.6816986,37.992975 11.7369359,37.929675 11.8102839,37.924425 C11.8108876,37.924275 11.8116422,37.924275 11.8123968,37.924275 C12.0961295,37.958325 12.3819751,37.972125 12.6678207,37.965375 L13.0870811,37.965375 C13.5063415,37.957725 13.6317574,37.948725 14.0436226,37.948725 C15.2586929,37.948725 15.9121836,38.564625 15.9121836,39.507675 C15.9121836,40.450725 15.2586929,41.074275 14.0436226,41.074275 L14.0436226,41.074275 Z M9.36082535,44.999925 L18.1541249,44.999925 L18.1541249,36.260325 L9.36082535,36.260325 L9.36082535,44.999925 Z" id="Fill-3" fill="#2F043E"></path>
                <path d="M4.69811578,38.25891 C4.22844758,38.25891 3.80903629,38.27571 3.80903629,38.27571 L3.80903629,42.97551 C3.80903629,42.97551 4.18558583,42.99231 4.69811578,42.99231 C5.51082892,42.99231 5.95453859,42.40821 5.95453859,40.62561 C5.95453859,38.84301 5.51082892,38.25891 4.69811578,38.25891" id="Fill-5" fill="#2F043E"></path>
                <g id="Group-9" transform="translate(0.000000, 36.150000)">
                    <mask id="mask-2" fill="white">
                        <use xlink:href="#path-1"></use>
                    </mask>
                    <g id="Clip-8"></g>
                    <path d="M4.8970909,7.16622 C4.52838929,7.16622 4.11818422,7.13277 3.42937776,7.13277 L3.01177753,7.13277 C2.72593191,7.12617 2.44008629,7.13982 2.15620265,7.17387 L2.15620265,7.17537 C2.08526947,7.17402 2.02867385,7.11582 2.03003214,7.04532 C2.03018306,7.04142 2.03033399,7.03767 2.03078675,7.03392 C2.02127869,6.95982 2.07410127,6.89202 2.14865657,6.88257 C2.15122224,6.88212 2.15363698,6.88197 2.15620265,6.88182 C2.24026601,6.88182 2.3244803,6.88947 2.72698836,6.88947 L2.72698836,2.06022 C2.3244803,2.06022 2.24192615,2.06787 2.15620265,2.06787 C2.08119459,2.06262 2.02474988,1.99782 2.03003214,1.92327 C2.03018306,1.92072 2.03048491,1.91832 2.03078675,1.91577 C2.02565541,1.84287 2.08089274,1.77957 2.15408975,1.77447 C2.15484435,1.77432 2.15559896,1.77432 2.15620265,1.77432 C2.44008629,1.80822 2.72593191,1.82202 3.01177753,1.81542 L3.4310379,1.81542 C4.08452869,1.81542 4.52069228,1.79112 4.89860012,1.79112 C6.11382131,1.79112 7.15427523,2.86647 7.15427523,4.47402 C7.15427523,6.08172 6.11382131,7.16622 4.8970909,7.16622 L4.8970909,7.16622 Z M-1.50921659e-05,8.84997 L8.79343537,8.84997 L8.79343537,0.11037 L-1.50921659e-05,0.11037 L-1.50921659e-05,8.84997 Z" id="Fill-7" fill="#2F043E" mask="url(#mask-2)"></path>
                </g>
                <path d="M20.9956024,38.065785 C20.9904711,37.992885 21.0457084,37.929585 21.1189054,37.924485 C21.11966,37.924485 21.1204146,37.924335 21.1210183,37.924335 C21.404902,37.958385 21.6907476,37.972035 21.9764423,37.965435 L22.4968202,37.965435 C22.7826658,37.972035 23.0685114,37.958385 23.3522441,37.924335 C23.4249884,37.931385 23.4797729,37.993185 23.4778109,38.065785 C23.4849043,38.142135 23.4289123,38.209785 23.3522441,38.217885 C23.2681808,38.217885 23.1839665,38.210235 22.7737614,38.210235 L22.7737614,42.992235 L24.073046,42.992235 L24.0745552,42.992235 C24.7020874,42.992235 24.9132268,42.592335 24.9132268,41.927535 C24.9212257,41.854035 24.9874803,41.800785 25.0614319,41.808735 C25.1243662,41.815485 25.1741704,41.864985 25.1809619,41.927535 C25.1809619,42.011235 25.1397603,42.593835 25.1397603,42.935985 L25.1397603,43.194585 C25.1448916,43.267485 25.0895033,43.330785 25.0163063,43.335885 C25.015099,43.335885 25.0138916,43.336035 25.0126842,43.336035 C24.9376762,43.336035 24.6774872,43.302585 24.5428651,43.302585 L22.1862234,43.285785 L21.9764423,43.285785 C21.6907476,43.279185 21.404902,43.292985 21.1210183,43.326885 C21.0500851,43.325535 20.9934895,43.267335 20.9948478,43.196835 C20.9948478,43.193085 20.9951497,43.189185 20.9956024,43.185435 C20.9860944,43.111335 21.0389169,43.043535 21.1134722,43.034085 C21.1160379,43.033785 21.1184526,43.033485 21.1210183,43.033335 C21.2052326,43.033335 21.289296,43.040985 21.691804,43.040985 L21.691804,38.210235 C21.289296,38.210235 21.2052326,38.217885 21.1210183,38.217885 C21.0460103,38.212635 20.9895656,38.147835 20.9948478,38.073285 C20.9949987,38.070735 20.9953006,38.068335 20.9956024,38.065785 L20.9956024,38.065785 Z M18.7215149,44.999985 L27.5149653,44.999985 L27.5149653,36.260385 L18.7215149,36.260385 L18.7215149,44.999985 Z" id="Fill-10" fill="#2F043E"></path>
                <path d="M35.4049384,43.18695 C35.4124844,43.25715 35.3614729,43.32015 35.2908416,43.32765 C35.2870685,43.3281 35.2831446,43.32825 35.2793715,43.3284 C34.9956388,43.29435 34.7097932,43.2807 34.4239476,43.2873 L33.8622172,43.2873 C33.5765225,43.2807 33.2906768,43.29435 33.0067932,43.3284 C32.9334453,43.32435 32.8771515,43.26195 32.8812264,43.18905 C32.8812264,43.1883 32.8812264,43.1877 32.8813773,43.18695 C32.8750386,43.1109 32.9305778,43.04355 33.0067932,43.03485 C33.0910075,43.03485 33.1737126,43.0425 33.5685236,43.0425 L33.0236964,41.61735 L31.3096791,41.61735 L30.7388934,43.0425 L30.7986584,43.0425 C31.2011665,43.0425 31.2331619,43.03485 31.3188854,43.03485 C31.3955536,43.0428 31.4515455,43.11075 31.4444522,43.18695 C31.4495835,43.25985 31.3943462,43.32315 31.3208474,43.32825 C31.3203946,43.32825 31.31964,43.32825 31.3188854,43.3284 C31.082693,43.2945 30.8442368,43.2807 30.6057805,43.2873 L30.564428,43.2873 C30.3289902,43.27965 30.0934015,43.2933 29.8605294,43.3284 C29.7870305,43.32435 29.7307368,43.26195 29.7349626,43.18905 C29.7349626,43.1883 29.7349626,43.1877 29.7351135,43.18695 C29.7278692,43.11075 29.7838612,43.0428 29.8605294,43.03485 C29.9445927,43.03485 29.9690421,43.0425 30.3547978,43.0425 L30.4129026,43.0425 L32.4497414,37.8924 C32.4835478,37.8255 32.5003001,37.8012 32.6029268,37.8012 C32.6666158,37.791 32.7280409,37.83045 32.745246,37.8924 L34.7346953,43.0425 C35.1203001,43.0425 35.193799,43.03485 35.2793715,43.03485 C35.3543796,43.0401 35.4109752,43.1049 35.405693,43.17945 C35.4055421,43.182 35.4052402,43.1844 35.4049384,43.18695 L35.4049384,43.18695 Z M28.0822195,45 L36.875519,45 L36.875519,36.2604 L28.0822195,36.2604 L28.0822195,45 Z" id="Fill-12" fill="#2F043E"></path>
                <polygon id="Fill-14" fill="#2F043E" points="31.4276093 41.317665 32.9027176 41.317665 32.1727096 39.427065"></polygon>
                <path d="M33.0718404,14.995815 C34.2239764,14.221965 35.1470132,13.206015 35.8386872,11.944815 C36.5296066,10.685265 36.875519,9.352965 36.875519,7.948965 C36.875519,6.488415 36.5149672,5.149815 35.7949199,3.932115 C35.0747218,2.714415 34.1012771,1.755165 32.8770006,1.053015 C31.6519695,0.351915 30.3049937,1.5e-05 28.8347149,1.5e-05 L16.2403024,1.5e-05 C16.7104234,6.778665 19.5629937,12.496365 24.4527045,17.337765 C26.7758416,19.638015 28.112102,22.463415 28.574375,25.685265 C28.7864199,27.163665 28.7628762,28.646265 28.5325697,30.077115 L28.8347149,30.077115 C30.3049937,30.077115 31.6519695,29.719665 32.8770006,29.003115 C34.1012771,28.287465 35.0747218,27.320715 35.7949199,26.103015 C36.5149672,24.885465 36.875519,23.561265 36.875519,22.128165 C36.875519,20.724915 36.5296066,19.385415 35.8386872,18.110565 C35.1470132,16.836465 34.2239764,15.797865 33.0718404,14.995815" id="Fill-16" fill="#2F043E"></path>
                <g id="Group-20">
                    <mask id="mask-4" fill="white">
                        <use xlink:href="#path-3"></use>
                    </mask>
                    <g id="Clip-19"></g>
                    <path d="M17.2355251,23.10057 C16.1159882,23.43282 14.92582,23.70822 13.7690055,23.70072 L13.7659871,23.66172 L13.7644779,23.70087 C11.7869514,23.70087 11.9974871,22.56507 12.3088385,21.25662 C12.4264065,20.76312 12.0406507,20.32782 11.6476507,20.06802 C10.5619203,19.35042 10.7001645,18.73662 11.7246207,18.07887 C11.4300217,17.87517 11.0921081,17.67462 10.7902647,17.42847 C10.1470366,16.90377 10.119418,16.07907 11.1028235,15.94167 C11.5761138,15.83172 12.199873,15.50787 10.6465873,14.68227 C10.3414237,14.51997 10.1322463,14.36277 9.87613226,14.10897 C9.68974401,13.86252 9.76369562,13.27512 10.2178189,12.78342 C10.8165251,12.06177 11.2434825,12.02097 11.8017417,11.26842 C12.040047,10.94727 12.2584306,10.63317 12.3596991,10.48497 C12.4609675,10.33677 12.5586138,9.96927 12.6230574,9.67557 C12.6698431,9.46227 12.4034664,6.98967 12.4034664,6.98967 C12.3660378,6.24222 12.3660378,6.24222 12.3609065,5.86737 C12.3278546,3.50517 13.1487175,1.58502 14.6538592,-3e-05 L0.301813134,-3e-05 C0.1350447,-3e-05 -3.01843318e-05,0.13437 -3.01843318e-05,0.29997 L-3.01843318e-05,21.81057 C-3.01843318e-05,26.37612 3.72381083,30.07707 8.31726244,30.07707 L20.9969456,30.07707 C21.314032,27.84687 21.0355816,25.60572 19.8686553,23.35872 C18.9521081,21.59397 19.1406092,22.53537 17.2355251,23.10057" id="Fill-18" fill="#8B2D9B" mask="url(#mask-4)"></path>
                </g>
                <path d="M52.5001969,8.56734 C52.8916877,8.56734 53.1994169,8.45829 53.4235356,8.23989 C53.6478052,8.02179 53.7603927,7.76559 53.7603927,7.47159 C53.7603927,7.17759 53.6505218,6.93564 53.4310817,6.74559 C53.2111888,6.55584 52.9250414,6.46104 52.5717338,6.46104 L51.2975022,6.46104 C51.1732937,6.46104 51.0874192,6.48474 51.0394262,6.53214 C50.991584,6.57969 50.9678893,6.65559 50.9678893,6.75984 L50.9678893,8.25414 C50.9678893,8.36799 50.9873582,8.44869 51.0255414,8.49624 C51.0635736,8.54379 51.1256024,8.56734 51.2116278,8.56734 L52.5001969,8.56734 Z M52.5717338,4.26939 C52.9057234,4.26939 53.1730056,4.17939 53.3735805,3.99879 C53.5741554,3.81879 53.6742165,3.58614 53.6742165,3.30159 C53.6742165,2.99799 53.5598179,2.75154 53.3305679,2.56149 C53.1014688,2.37174 52.8153213,2.27679 52.4716727,2.27679 L51.2975022,2.27679 C51.1732937,2.27679 51.0874192,2.29824 51.0394262,2.34099 C50.991584,2.38374 50.9678893,2.45724 50.9678893,2.56149 L50.9678893,3.95619 C50.9678893,4.07004 50.9873582,4.15074 51.0255414,4.19829 C51.0635736,4.24584 51.1256024,4.26939 51.2116278,4.26939 L52.5717338,4.26939 Z M47.81091,10.60959 C47.7485794,10.54779 47.7179423,10.47429 47.7179423,10.38909 L47.7179423,0.51204 C47.7179423,0.40794 47.751145,0.32019 47.8180033,0.24879 C47.8845598,0.17769 47.9705851,0.14229 48.0754757,0.14229 L52.3426347,0.14229 C53.8317787,0.14229 54.9608236,0.37704 55.7293167,0.84669 C56.4972061,1.31634 56.8817545,2.01144 56.8817545,2.93169 C56.8817545,3.43464 56.7435103,3.85914 56.466569,4.20519 C56.1896278,4.55184 55.7029054,4.88619 55.0059492,5.20854 C54.987084,5.21814 54.977425,5.23479 54.977425,5.25849 C54.977425,5.28234 54.987084,5.29884 55.0059492,5.30829 C55.7794227,5.59284 56.327872,5.92974 56.6528063,6.31884 C56.9769861,6.70794 57.1393778,7.21074 57.1393778,7.82724 C57.1393778,8.80464 56.7646393,9.52794 56.0154642,9.99744 C55.2661381,10.46709 54.1185298,10.70199 52.5717338,10.70199 L48.0469515,10.70199 C47.9511162,10.70199 47.8727879,10.67124 47.81091,10.60959 L47.81091,10.60959 Z" id="Fill-21" fill="#2F043E"></path>
                <path d="M58.8723659,0.227475 C58.9196044,0.170475 58.9869154,0.142275 59.0729408,0.142275 L61.7933037,0.142275 C61.9653544,0.142275 62.050927,0.241875 62.050927,0.440925 L62.050927,8.168775 C62.050927,8.244675 62.0626988,8.296875 62.0869972,8.325525 C62.110541,8.353725 62.1558175,8.367975 62.2229776,8.367975 L66.5331493,8.367975 C66.7525894,8.367975 66.8621585,8.458275 66.8621585,8.638425 L66.8621585,10.389075 C66.8621585,10.483875 66.8309177,10.559775 66.7691908,10.616775 C66.7068601,10.673775 66.618571,10.702125 66.5040214,10.702125 L59.1874903,10.702125 C59.0439638,10.702125 58.9439028,10.673775 58.8864016,10.616775 C58.8293532,10.559775 58.8006781,10.469775 58.8006781,10.346325 L58.8006781,0.469575 C58.8006781,0.365025 58.8245237,0.284325 58.8723659,0.227475" id="Fill-23" fill="#2F043E"></path>
                <path d="M74.0212783,6.233265 C74.1266217,6.233265 74.1788406,6.186015 74.1788406,6.091065 C74.1788406,6.072165 74.1690306,6.024765 74.1501654,5.948715 L73.2914212,3.515115 C73.2719523,3.467865 73.243579,3.444015 73.2053959,3.444015 C73.1672127,3.444015 73.1380848,3.467865 73.1192196,3.515115 L72.2458359,5.934465 C72.226518,5.972415 72.2174627,6.019665 72.2174627,6.076665 C72.2174627,6.181215 72.2743601,6.233265 72.3890606,6.233265 L74.0212783,6.233265 Z M68.1934385,10.623765 C68.1454454,10.571565 68.1217507,10.498065 68.1217507,10.403265 C68.1217507,10.336965 68.1363901,10.260765 68.1647634,10.175565 L71.6300756,0.469665 C71.6779177,0.346365 71.7305894,0.260865 71.7876378,0.213315 C71.8451389,0.165915 71.935541,0.142215 72.0597495,0.142215 L74.8806263,0.142215 C74.9951758,0.142215 75.0975007,0.177765 75.1882046,0.248865 C75.2792104,0.320265 75.3480306,0.412665 75.3958728,0.526515 L78.8326608,10.218315 C78.851526,10.294215 78.8610341,10.351065 78.8610341,10.389015 C78.8610341,10.474365 78.8421689,10.547865 78.8039857,10.609515 C78.7658025,10.671315 78.7084523,10.702065 78.6320859,10.702065 L75.8256977,10.702065 C75.6631551,10.702065 75.5584154,10.621515 75.5104224,10.460115 L74.9521631,8.823465 C74.9236389,8.757165 74.8973786,8.711865 74.8736839,8.688165 C74.8493855,8.664615 74.8042599,8.652615 74.7375525,8.652615 L71.7016124,8.652615 C71.5870629,8.652615 71.5153751,8.704965 71.4870018,8.809215 L70.8996147,10.488465 C70.8425664,10.630965 70.7281677,10.702065 70.5559661,10.702065 L68.3799776,10.702065 C68.3030076,10.702065 68.2412806,10.676115 68.1934385,10.623765 L68.1934385,10.623765 Z" id="Fill-25" fill="#2F043E"></path>
                <path d="M86.650931,0.41958 C87.2903861,0.69978 87.8154425,1.08648 88.2262513,1.57953 C88.6366073,2.07288 88.9038895,2.63763 89.028098,3.27318 C89.0566222,3.38718 89.0711107,3.47718 89.0711107,3.54348 C89.0711107,3.62898 89.0539056,3.68583 89.020552,3.71418 C88.9871983,3.74283 88.9275842,3.76188 88.8421626,3.77118 L86.3358066,3.92778 C86.240575,3.92778 86.1782444,3.91128 86.1497202,3.87813 C86.121196,3.84498 86.0926718,3.77118 86.0641476,3.65733 C85.9781222,3.20193 85.82056,2.84403 85.59131,2.58288 C85.3623619,2.32203 85.0277685,2.19153 84.5888884,2.19153 C84.0257997,2.19153 83.5912962,2.43828 83.2858308,2.93163 C82.9803653,3.42513 82.8276326,4.22658 82.8276326,5.33688 C82.8276326,6.48483 82.9685934,7.30083 83.2503642,7.78458 C83.5315312,8.26848 83.973128,8.51043 84.5750036,8.51043 C85.0805911,8.51043 85.512378,8.38233 85.8705151,8.12598 C86.2288031,7.86993 86.5267225,7.44288 86.7654805,6.84528 C86.7940047,6.75978 86.8752006,6.71733 87.0090681,6.71733 C87.0757755,6.71733 87.1279944,6.72213 87.1667812,6.73143 L88.9565612,7.08723 C89.0997858,7.13478 89.1711718,7.24383 89.1711718,7.41453 C89.1711718,7.68033 89.0065162,8.09058 88.6769033,8.64558 C88.3477432,9.20058 87.8324967,9.70593 87.1307109,10.16133 C86.4287743,10.61673 85.5436188,10.84428 84.4743388,10.84428 C83.4627109,10.84428 82.5746879,10.60473 81.8111752,10.12548 C81.0473607,9.64653 80.4578607,8.98728 80.0426752,8.14743 C79.6274897,7.30773 79.4199725,6.35193 79.4199725,5.27988 C79.4199725,4.21728 79.6274897,3.28743 80.0426752,2.49048 C80.4578607,1.69338 81.0500773,1.07913 81.8181176,0.64728 C82.5866107,0.21573 83.4815762,3e-05 84.5030139,3e-05 C85.2956545,3e-05 86.0114759,0.13998 86.650931,0.41958" id="Fill-27" fill="#2F043E"></path>
                <path d="M100.769924,10.48848 C100.769924,10.63098 100.683899,10.70208 100.511697,10.70208 L97.719948,10.70208 C97.4617211,10.70208 97.2901232,10.60743 97.2040978,10.41738 L95.4573305,6.46098 C95.4191474,6.40398 95.3809642,6.37578 95.342781,6.37578 C95.2949388,6.37578 95.2280805,6.42783 95.1422061,6.53208 L94.1257487,7.82733 C94.0687003,7.89378 94.0395725,7.99803 94.0395725,8.14023 L94.0395725,10.28928 C94.0395725,10.44123 94.0013893,10.54788 93.9250229,10.60953 C93.8486566,10.67133 93.7292775,10.70208 93.5673386,10.70208 L91.1762868,10.70208 C91.0326093,10.70208 90.9325483,10.67373 90.8750471,10.61673 C90.8181497,10.55988 90.7894745,10.46973 90.7894745,10.34628 L90.7894745,0.46968 C90.7894745,0.36513 90.8131692,0.28443 90.8611623,0.22743 C90.9084008,0.17043 90.9757119,0.14223 91.0617372,0.14223 L93.7819492,0.14223 C93.9541508,0.14223 94.0395725,0.24183 94.0395725,0.44103 L94.0395725,4.04163 C94.0395725,4.15548 94.0632672,4.21248 94.1111093,4.21248 C94.1492925,4.21248 94.1971347,4.17933 94.2547868,4.11273 L96.8895771,0.44103 C96.9749987,0.32718 97.0583075,0.24888 97.1395033,0.20628 C97.2206992,0.16353 97.3423421,0.14223 97.5047338,0.14223 L99.6813259,0.14223 C99.7960264,0.14223 99.8867303,0.16353 99.9535886,0.20628 C100.020145,0.24888 100.053499,0.30813 100.053499,0.38403 C100.053499,0.45063 100.029955,0.50748 99.9819619,0.55488 L97.6339227,3.41538 C97.5672153,3.49158 97.5338616,3.57213 97.5338616,3.65733 C97.5338616,3.72378 97.5527268,3.79488 97.59091,3.87093 L100.712423,10.26078 C100.750606,10.33698 100.769924,10.41288 100.769924,10.48848" id="Fill-29" fill="#2F043E"></path>
                <path d="M62.3730391,17.32689 C62.4542349,17.39829 62.4951347,17.49549 62.4951347,17.61864 C62.4951347,17.65674 62.4854757,17.71359 62.4660068,17.78949 L59.5595575,27.42429 C59.5118662,27.54774 59.4493847,27.63789 59.373622,27.69474 C59.296652,27.75174 59.1875356,27.78009 59.0438582,27.78009 L57.0679918,27.78009 C56.7910506,27.78009 56.6193017,27.66159 56.5527453,27.42429 L55.0634503,22.41489 C55.0349262,22.29174 55.0009688,22.22964 54.9627856,22.22964 C54.9344123,22.22964 54.8913997,22.30104 54.8343513,22.44324 L53.3595448,27.42429 C53.3209089,27.54774 53.2611439,27.63789 53.1805517,27.69474 C53.0993559,27.75174 52.9869192,27.78009 52.8438455,27.78009 L50.7962914,27.78009 C50.6533685,27.78009 50.5430448,27.75174 50.4671312,27.69474 C50.3903121,27.63789 50.3284342,27.54774 50.2805921,27.42429 L47.3595033,17.78949 C47.3403363,17.71359 47.3311301,17.65674 47.3311301,17.61864 C47.3311301,17.49549 47.3715771,17.39829 47.4527729,17.32689 C47.5339688,17.25579 47.6462545,17.22024 47.7893282,17.22024 L50.1520068,17.22024 C50.2950805,17.22024 50.3999711,17.24394 50.4671312,17.29134 C50.5333858,17.33889 50.581228,17.41479 50.6103559,17.51904 L52.1280241,22.79889 C52.1565483,22.91274 52.189751,22.96974 52.2279342,22.96974 C52.2570621,22.96974 52.2807568,22.93209 52.299622,22.85589 L53.8034054,17.51904 C53.8510967,17.31999 54.0039803,17.22024 54.2616036,17.22024 L56.2659941,17.22024 C56.4090679,17.22024 56.5145621,17.24394 56.5811185,17.29134 C56.6478259,17.33889 56.695819,17.41479 56.7241923,17.51904 L58.2995126,22.92699 C58.3183778,22.98384 58.346751,23.01729 58.3855379,23.02674 C58.4232683,23.03634 58.4474158,23.01249 58.4572257,22.95549 L59.9173927,17.51904 C59.9652349,17.31999 60.1179676,17.22024 60.3755909,17.22024 L62.0367856,17.22024 C62.1800103,17.22024 62.2918432,17.25579 62.3730391,17.32689" id="Fill-31" fill="#902D9E"></path>
                <path d="M69.2393859,25.396275 C69.4875012,25.192425 69.6692108,24.862575 69.7836094,24.407175 C69.898159,23.951625 69.9552074,23.339925 69.9552074,22.571325 C69.9552074,21.395025 69.8213399,20.550375 69.5546613,20.037975 C69.2872281,19.525725 68.8478952,19.269675 68.2368134,19.269675 C67.6162235,19.269675 67.1704009,19.525725 66.8982892,20.037975 C66.6261774,20.550375 66.4900461,21.395025 66.4900461,22.571325 C66.4900461,23.339925 66.5475472,23.951625 66.6622477,24.407175 C66.7767972,24.862575 66.9600161,25.192425 67.2134136,25.396275 C67.4662074,25.600425 67.8077431,25.702275 68.2368134,25.702275 C68.6569793,25.702275 68.9909689,25.600425 69.2393859,25.396275 M65.5090553,27.260475 C64.731356,26.819475 64.132197,26.193225 63.712182,25.382175 C63.2921671,24.570975 63.0823859,23.619675 63.0823859,22.528425 C63.0823859,21.437775 63.29428,20.481675 63.7192753,19.660875 C64.1439689,18.840375 64.7453917,18.204525 65.5235438,17.753925 C66.3012431,17.303325 67.2058675,17.078025 68.2368134,17.078025 C69.2582512,17.078025 70.1557823,17.303325 70.9292558,17.753925 C71.7021256,18.204525 72.3012846,18.840375 72.72628,19.660875 C73.1505207,20.481675 73.3634712,21.437775 73.3634712,22.528425 C73.3634712,23.610075 73.1532373,24.558825 72.7330714,25.374825 C72.3130565,26.191125 71.7166141,26.819475 70.9432915,27.260475 C70.169818,27.701775 69.2679101,27.922275 68.2368134,27.922275 C67.1962085,27.922275 66.2872074,27.701775 65.5090553,27.260475" id="Fill-33" fill="#902D9E"></path>
                <path d="M75.1533417,27.67344 C75.0861816,27.60204 75.0528279,27.50499 75.0528279,27.38154 L75.0528279,17.54769 C75.0528279,17.43369 75.0763717,17.35059 75.1243647,17.29854 C75.1722069,17.24634 75.2485733,17.22024 75.3534638,17.22024 L79.3629995,17.22024 C79.4866044,17.22024 79.5753463,17.23674 79.628018,17.26989 C79.6802369,17.30334 79.7253624,17.37204 79.7635456,17.47629 L81.2528406,22.00194 C81.2818175,22.07814 81.3151712,22.11579 81.3533544,22.11579 C81.3818786,22.11579 81.4104028,22.07814 81.4393797,22.00194 L82.7711124,17.63289 C82.847026,17.35794 82.9760641,17.22024 83.15717,17.22024 L87.2957438,17.22024 C87.4674926,17.22024 87.5533671,17.31999 87.5533671,17.51904 L87.5533671,27.36729 C87.5533671,27.51924 87.5174477,27.62589 87.4459108,27.68754 C87.374374,27.74934 87.2575606,27.78009 87.0951689,27.78009 L84.6755929,27.78009 C84.5320664,27.78009 84.4339673,27.75174 84.3817484,27.69474 C84.3292276,27.63789 84.3028164,27.54774 84.3028164,27.42429 L84.3028164,21.03414 C84.3028164,20.95854 84.2839512,20.92029 84.245768,20.92029 C84.1979258,20.92029 84.1597426,20.96304 84.1312184,21.04854 L82.0691758,27.52404 C82.0026194,27.69474 81.8879189,27.78009 81.7255272,27.78009 L80.2217438,27.78009 C80.0501459,27.78009 79.9355963,27.69474 79.8782461,27.52404 L77.8166562,21.16239 C77.7876793,21.06759 77.7541747,21.02004 77.7159915,21.02004 C77.6681493,21.02004 77.6446055,21.07239 77.6446055,21.17664 L77.6446055,27.46704 C77.6446055,27.59034 77.6251366,27.67344 77.5875571,27.71589 C77.549374,27.75864 77.4633486,27.78009 77.3293302,27.78009 L75.4250007,27.78009 C75.3104512,27.78009 75.2200491,27.74454 75.1533417,27.67344" id="Fill-35" fill="#902D9E"></path>
                <path d="M89.8155771,17.220255 L97.5477464,17.220255 C97.719948,17.220255 97.8053697,17.320005 97.8053697,17.519055 L97.7914849,19.169955 C97.7914849,19.426005 97.6671255,19.554255 97.4187084,19.554255 L93.1231762,19.554255 C92.9037361,19.554255 92.794016,19.644405 92.794016,19.824555 L92.794016,21.034155 C92.794016,21.129405 92.8177107,21.202755 92.8655529,21.254955 C92.913395,21.307005 92.9752729,21.333255 93.0514884,21.333255 L95.6289285,21.333255 C95.8295033,21.333255 95.9301681,21.428055 95.9301681,21.617805 L95.9301681,23.382405 C95.9301681,23.543805 95.8439918,23.624505 95.6719411,23.624505 L93.0231151,23.624505 C92.955955,23.624505 92.9014722,23.643555 92.8584596,23.681505 C92.8154469,23.719455 92.794016,23.766705 92.794016,23.823705 L92.794016,25.246905 C92.794016,25.322805 92.8057879,25.374855 92.8294826,25.403505 C92.853781,25.431855 92.8989066,25.445955 92.9656139,25.445955 L97.6192833,25.445955 C97.8292153,25.445955 97.9345586,25.536255 97.9345586,25.716555 L97.9345586,27.467055 C97.9345586,27.562005 97.9058835,27.637905 97.8485333,27.694755 C97.7914849,27.751755 97.7053086,27.780105 97.59091,27.780105 L89.9301266,27.780105 C89.7870529,27.780105 89.6865391,27.751755 89.6294907,27.694755 C89.5719895,27.637905 89.5433144,27.547755 89.5433144,27.424305 L89.5433144,17.547705 C89.5433144,17.329305 89.6343202,17.220255 89.8155771,17.220255" id="Fill-37" fill="#902D9E"></path>
                <path d="M108.84541,17.220255 C108.988936,17.220255 109.060473,17.300955 109.060473,17.462055 L109.060473,27.524055 C109.060473,27.599955 109.029383,27.661605 108.967505,27.709005 C108.905175,27.756555 108.826545,27.780105 108.730709,27.780105 L106.769331,27.780105 C106.683306,27.780105 106.614033,27.765855 106.561814,27.737355 C106.509143,27.709005 106.449378,27.652005 106.38267,27.566505 L102.444671,22.258305 C102.406488,22.210905 102.373134,22.192005 102.344761,22.201305 C102.316086,22.210905 102.301749,22.239255 102.301749,22.286505 L102.301749,27.467055 C102.311257,27.580905 102.289826,27.661605 102.237154,27.709005 C102.184935,27.756555 102.091967,27.780105 101.957949,27.780105 L100.010607,27.780105 C99.7716978,27.780105 99.6529225,27.685455 99.6529225,27.495405 L99.6529225,17.547705 C99.6529225,17.329305 99.7576621,17.220255 99.9675941,17.220255 L102.301749,17.220255 C102.425957,17.220255 102.518925,17.236755 102.580803,17.269905 C102.643133,17.303355 102.711954,17.372055 102.78832,17.476305 L106.225108,22.229655 C106.28276,22.315155 106.334828,22.357905 106.38267,22.357905 C106.430512,22.357905 106.454207,22.296255 106.454207,22.172805 L106.454207,17.519055 C106.454207,17.320005 106.559098,17.220255 106.769331,17.220255 L108.84541,17.220255 Z" id="Fill-39" fill="#902D9E"></path>
                <path d="M110.978944,21.831135 C110.940157,21.764835 110.935931,21.693735 110.964305,21.617835 L111.565727,20.165985 C111.603911,20.080785 111.623229,20.000385 111.623229,19.924185 C111.623229,19.838985 111.560747,19.781985 111.437142,19.753335 L111.208043,19.724985 C111.074176,19.706085 110.98317,19.675035 110.935931,19.632585 C110.887938,19.589835 110.864394,19.511535 110.864394,19.397685 L110.864394,17.518935 C110.864394,17.319885 110.949967,17.220285 111.121867,17.220285 L113.227073,17.220285 C113.389012,17.220285 113.470208,17.305485 113.470208,17.476185 L113.470208,19.283835 C113.470208,19.359735 113.450739,19.426035 113.413159,19.482885 L111.980913,21.632085 C111.923865,21.726885 111.837688,21.800685 111.72329,21.852585 C111.60874,21.904935 111.49902,21.930885 111.394129,21.930885 L111.164879,21.930885 C111.079005,21.930885 111.016524,21.897735 110.978944,21.831135" id="Fill-41" fill="#902D9E"></path>
                <path d="M120.765716,19.482915 C120.50281,19.350315 120.123544,19.283715 119.627163,19.283715 C119.130781,19.283715 118.763287,19.354815 118.524529,19.497315 C118.285771,19.639515 118.166845,19.810365 118.166845,20.009715 C118.166845,20.351265 118.471857,20.593215 119.083543,20.735415 L121.460106,21.347415 C122.328509,21.565815 122.982604,21.947415 123.422088,22.492965 C123.860968,23.038665 124.080408,23.690865 124.080408,24.449865 C124.080408,25.152015 123.894171,25.764015 123.522149,26.285715 C123.149976,26.807715 122.617524,27.210765 121.925398,27.495315 C121.23312,27.780015 120.42418,27.922215 119.498577,27.922215 C118.448313,27.922215 117.49147,27.749265 116.627746,27.402915 C115.763266,27.056865 115.164258,26.603865 114.830269,26.043915 C114.782275,25.948965 114.758732,25.877865 114.758732,25.830315 C114.758732,25.735665 114.810951,25.650165 114.916294,25.574265 L116.3911,24.563715 C116.495991,24.497415 116.591675,24.464115 116.677701,24.464115 C116.782591,24.464115 116.868616,24.506865 116.935324,24.592065 C117.259654,25.009815 117.589267,25.303815 117.923257,25.474515 C118.257247,25.645365 118.700956,25.730565 119.25499,25.730565 C119.789554,25.730565 120.211682,25.657365 120.522128,25.510215 C120.832423,25.363065 120.987872,25.161315 120.987872,24.905265 C120.987872,24.725115 120.910902,24.568515 120.758773,24.435765 C120.605437,24.302865 120.381167,24.203115 120.085361,24.136815 L117.908769,23.610165 C117.049873,23.401665 116.367255,23.010315 115.861365,22.435965 C115.355174,21.862215 115.102531,21.200415 115.102531,20.450715 C115.102531,19.834065 115.283637,19.267215 115.646755,18.750015 C116.009118,18.233115 116.524968,17.824965 117.192947,17.526315 C117.860926,17.227365 118.6344,17.077965 119.512613,17.077965 C120.372112,17.077965 121.169129,17.218065 121.903816,17.497665 C122.638955,17.777715 123.16869,18.150015 123.493474,18.614865 C123.560332,18.700365 123.593535,18.781065 123.593535,18.856965 C123.593535,18.923265 123.560332,18.985065 123.493474,19.041915 L121.932793,20.166015 C121.884951,20.204265 121.832128,20.223015 121.77508,20.223015 C121.707919,20.223015 121.617668,20.166015 121.503119,20.052165 C121.273869,19.805715 121.028168,19.615965 120.765716,19.482915" id="Fill-43" fill="#902D9E"></path>
                <path d="M53.3090464,36.560655 C53.0465937,36.428055 52.6668748,36.361605 52.1710971,36.361605 C51.6745649,36.361605 51.3066179,36.432555 51.0684635,36.575055 C50.8297054,36.717255 50.7103264,36.888105 50.7103264,37.087455 C50.7103264,37.429005 51.0157918,37.670955 51.6268736,37.813155 L54.0038897,38.425155 C54.8724439,38.643555 55.5263874,39.025155 55.9654185,39.570705 C56.4042987,40.116405 56.6241916,40.768605 56.6241916,41.527605 C56.6241916,42.229755 56.4381052,42.841905 56.0654796,43.363605 C55.6933068,43.885455 55.1613079,44.288505 54.4691812,44.573205 C53.7770545,44.857755 52.9681144,44.999955 52.0419082,44.999955 C50.9916444,44.999955 50.034801,44.827005 49.1710764,44.480655 C48.306748,44.134605 47.7081927,43.681605 47.3742031,43.121655 C47.32621,43.026705 47.3026662,42.955605 47.3026662,42.908055 C47.3026662,42.813555 47.3548851,42.727905 47.4596248,42.652005 L48.9350349,41.641455 C49.0397745,41.575155 49.1350061,41.541855 49.2210315,41.541855 C49.325922,41.541855 49.4120983,41.584605 49.4786547,41.669805 C49.8034381,42.087555 50.1325983,42.381555 50.4671916,42.552405 C50.8011812,42.723105 51.2448909,42.808305 51.7987734,42.808305 C52.3328851,42.808305 52.7556167,42.735255 53.0660626,42.587955 C53.3757538,42.440955 53.5312031,42.239055 53.5312031,41.983005 C53.5312031,41.802855 53.4548368,41.646255 53.302104,41.513505 C53.1492204,41.380605 52.9251017,41.281005 52.6292953,41.214705 L50.4527031,40.687905 C49.5932043,40.479405 48.9107365,40.088205 48.405149,39.513705 C47.8991086,38.939955 47.6463149,38.278155 47.6463149,37.528455 C47.6463149,36.911805 47.8275718,36.345105 48.1900856,35.827755 C48.5530522,35.310855 49.0682987,34.902855 49.7368817,34.604055 C50.4048609,34.305105 51.1781835,34.155855 52.0563967,34.155855 C52.9154427,34.155855 53.71246,34.295805 54.4475994,34.575405 C55.1828897,34.855455 55.7126248,35.227755 56.0368045,35.692605 C56.1036628,35.778105 56.1374692,35.858805 56.1374692,35.934705 C56.1374692,36.001005 56.1036628,36.062805 56.0368045,36.119655 L54.4761236,37.243905 C54.4282815,37.282005 54.3760626,37.300755 54.3185614,37.300755 C54.251854,37.300755 54.1609992,37.243905 54.0470533,37.129905 C53.8178033,36.883605 53.5714992,36.693855 53.3090464,36.560655" id="Fill-45" fill="#902D9E"></path>
                <g id="Group-49" transform="translate(58.104839, 34.200000)">
                    <mask id="mask-6" fill="white">
                        <use xlink:href="#path-5"></use>
                    </mask>
                    <g id="Clip-48"></g>
                    <path d="M8.01250634,9.811065 C7.22031855,10.470465 6.08931164,10.800015 4.61888191,10.800015 C2.96719528,10.800015 1.79091187,10.420665 1.08972984,9.661665 C0.387793203,8.902665 0.0370512673,7.749915 0.0370512673,6.203265 L0.0370512673,0.425415 C0.0370512673,0.320865 0.0607459677,0.240165 0.108739055,0.183165 C0.155977535,0.126315 0.223288594,0.097965 0.30931394,0.097965 L3.02952592,0.097965 C3.20172753,0.097965 3.28714919,0.197715 3.28714919,0.396765 L3.28714919,6.544815 C3.28714919,7.247115 3.42328053,7.754415 3.6955432,8.067615 C3.96750403,8.380665 4.35627823,8.537265 4.86246947,8.537265 C5.35885081,8.537265 5.75954781,8.380665 6.06516417,8.067615 C6.37047869,7.754415 6.52336233,7.233015 6.52336233,6.502215 L6.52336233,0.425415 C6.52336233,0.207015 6.61406624,0.097965 6.79547408,0.097965 L8.94354205,0.097965 C9.11513998,0.097965 9.20116532,0.197715 9.20116532,0.396765 L9.20116532,6.487815 C9.20116532,8.044215 8.80469412,9.151665 8.01250634,9.811065" id="Fill-47" fill="#902D9E" mask="url(#mask-6)"></path>
                </g>
                <path d="M69.2533915,34.38324 C69.30063,34.32639 69.367941,34.29804 69.4539664,34.29804 L77.0856219,34.29804 C77.2578235,34.29804 77.3432452,34.39764 77.3432452,34.59684 L77.3293604,36.24774 C77.3293604,36.50379 77.2099813,36.63204 76.9712233,36.63204 L72.7615654,36.63204 C72.5416726,36.63204 72.4321035,36.72204 72.4321035,36.90219 L72.4321035,38.24019 C72.4321035,38.42994 72.5179779,38.52489 72.6900286,38.52489 L75.3104813,38.52489 C75.5012463,38.52489 75.5964779,38.61969 75.5964779,38.80944 L75.5964779,40.54569 C75.5964779,40.70709 75.5110562,40.78749 75.3388546,40.78749 L72.6610516,40.78749 C72.5944952,40.78749 72.5394088,40.80684 72.4963961,40.84449 C72.4533834,40.88244 72.4321035,40.93479 72.4321035,41.00109 L72.4321035,44.44524 C72.4321035,44.59689 72.3937694,44.70354 72.317403,44.76534 C72.2410366,44.82714 72.1216576,44.85789 71.9598696,44.85789 L69.5686668,44.85789 C69.4249894,44.85789 69.3250793,44.82954 69.2674272,44.77254 C69.2103788,44.71569 69.1818546,44.62554 69.1818546,44.50209 L69.1818546,34.62534 C69.1818546,34.52079 69.2055493,34.44009 69.2533915,34.38324" id="Fill-50" fill="#902D9E"></path>
                <path d="M79.0616694,34.38324 C79.1095115,34.32639 79.1763698,34.29804 79.2622442,34.29804 L86.8945035,34.29804 C87.0661014,34.29804 87.1521267,34.39764 87.1521267,34.59684 L87.1377892,36.24774 C87.1377892,36.50379 87.0184101,36.63204 86.7801048,36.63204 L82.5699942,36.63204 C82.3505541,36.63204 82.2406832,36.72204 82.2406832,36.90219 L82.2406832,38.24019 C82.2406832,38.42994 82.3268594,38.52489 82.4983065,38.52489 L85.1187592,38.52489 C85.3095242,38.52489 85.4053594,38.61969 85.4053594,38.80944 L85.4053594,40.54569 C85.4053594,40.70709 85.3193341,40.78749 85.1477362,40.78749 L82.4699332,40.78749 C82.402773,40.78749 82.3482903,40.80684 82.3052776,40.84449 C82.262265,40.88244 82.2406832,40.93479 82.2406832,41.00109 L82.2406832,44.44524 C82.2406832,44.59689 82.2026509,44.70354 82.1262846,44.76534 C82.0499182,44.82714 81.9305392,44.85789 81.7681475,44.85789 L79.3769447,44.85789 C79.233871,44.85789 79.1333571,44.82954 79.0763088,44.77254 C79.0186567,44.71569 78.9901325,44.62554 78.9901325,44.50209 L78.9901325,34.62534 C78.9901325,34.52079 79.0139781,34.44009 79.0616694,34.38324" id="Fill-52" fill="#902D9E"></path>
                <path d="M94.5617916,38.26155 C94.757537,38.07645 94.8554851,37.8273 94.8554851,37.51425 C94.8554851,37.1634 94.7388227,36.8904 94.5047432,36.69585 C94.2708146,36.5016 93.9819506,36.4044 93.6384529,36.4044 L92.378257,36.4044 C92.2540485,36.4044 92.1686268,36.4257 92.1206338,36.46815 C92.0727916,36.51105 92.0490969,36.5844 92.0490969,36.68895 L92.0490969,38.2401 C92.0490969,38.34465 92.0658492,38.4204 92.0992029,38.46795 C92.1324056,38.5155 92.1970001,38.53905 92.2922317,38.53905 L93.7243273,38.53905 C94.0869921,38.53905 94.3660462,38.4465 94.5617916,38.26155 M98.1200715,44.559 C98.1200715,44.6442 98.0936603,44.7156 98.0415923,44.7726 C97.9887697,44.82945 97.9199494,44.8578 97.8339241,44.8578 L95.05606,44.8578 C94.8554851,44.8578 94.7268999,44.7582 94.6693987,44.559 L93.3231775,40.88715 C93.2946533,40.8114 93.2468112,40.7544 93.1802547,40.71645 C93.1133964,40.6785 93.0128826,40.65945 92.8796188,40.65945 L92.2206948,40.65945 C92.1636464,40.65945 92.1206338,40.6785 92.0921096,40.71645 C92.0629817,40.7544 92.0490969,40.78755 92.0490969,40.8162 L92.0490969,44.44515 C92.0490969,44.59695 92.0109137,44.7036 91.9345474,44.76525 C91.858181,44.82705 91.738802,44.8578 91.5764103,44.8578 L89.1705681,44.8578 C89.0276453,44.8578 88.929848,44.82945 88.8776291,44.7726 C88.8248066,44.7156 88.7983953,44.6256 88.7983953,44.50215 L88.7983953,34.6254 C88.7983953,34.407 88.889401,34.29795 89.0706579,34.29795 L93.8530635,34.29795 C95.2373169,34.29795 96.3114264,34.5612 97.07509,35.0877 C97.8387536,35.61435 98.2205854,36.3567 98.2205854,37.3152 C98.2205854,37.9698 98.0464218,38.55315 97.6977927,39.06555 C97.3494656,39.5778 96.8980589,39.9384 96.3446291,40.1472 C96.2877317,40.17555 96.2586038,40.2231 96.2586038,40.2894 C96.2586038,40.3179 96.2684137,40.3608 96.2877317,40.41765 L98.0915474,44.4024 C98.1110162,44.44035 98.1200715,44.4927 98.1200715,44.559" id="Fill-54" fill="#902D9E"></path>
                <path d="M105.394103,40.389015 C105.499597,40.389015 105.551665,40.341765 105.551665,40.246815 C105.551665,40.227915 105.542006,40.180515 105.523141,40.104465 L104.664246,37.670865 C104.644928,37.623615 104.616555,37.599765 104.578372,37.599765 C104.540037,37.599765 104.51091,37.623615 104.492195,37.670865 L103.618812,40.090215 C103.599343,40.128165 103.590287,40.175565 103.590287,40.232415 C103.590287,40.336965 103.647336,40.389015 103.761885,40.389015 L105.394103,40.389015 Z M99.5662632,44.779515 C99.5184211,44.727315 99.4947264,44.653965 99.4947264,44.559015 C99.4947264,44.492715 99.5093658,44.416515 99.5377391,44.331315 L103.0029,34.625415 C103.050893,34.502115 103.103565,34.416615 103.160463,34.369065 C103.218115,34.321815 103.308517,34.297965 103.432725,34.297965 L106.253602,34.297965 C106.368151,34.297965 106.470325,34.333515 106.56118,34.404615 C106.652186,34.476015 106.721006,34.568415 106.768698,34.682265 L110.205486,44.374065 C110.224351,44.449965 110.23401,44.506965 110.23401,44.544915 C110.23401,44.630115 110.215145,44.703615 110.176961,44.765265 C110.138778,44.827065 110.081277,44.857815 110.004911,44.857815 L107.198522,44.857815 C107.036131,44.857815 106.93124,44.777415 106.883398,44.615865 L106.325139,42.979215 C106.296615,42.912915 106.270354,42.867615 106.246509,42.843915 C106.222361,42.820365 106.177085,42.808365 106.110528,42.808365 L103.074588,42.808365 C102.959888,42.808365 102.888351,42.860865 102.859978,42.964965 L102.27259,44.644215 C102.215542,44.786715 102.101143,44.857815 101.928942,44.857815 L99.7529533,44.857815 C99.6759833,44.857815 99.6141054,44.831865 99.5662632,44.779515 L99.5662632,44.779515 Z" id="Fill-56" fill="#902D9E"></path>
                <path d="M113.177043,44.31714 C112.418208,43.86174 111.830821,43.22829 111.415636,42.41709 C111.00045,41.60589 110.792782,40.67364 110.792782,39.62064 C110.792782,38.53899 111.012222,37.58544 111.451555,36.76014 C111.890586,35.93469 112.504234,35.29404 113.291592,34.83864 C114.07895,34.38324 114.978745,34.15584 115.990373,34.15584 C116.811689,34.15584 117.544263,34.30509 118.188396,34.60404 C118.832832,34.90284 119.35336,35.28954 119.749228,35.76399 C120.145699,36.23844 120.405435,36.74109 120.529644,37.27239 C120.558621,37.38624 120.572657,37.47654 120.572657,37.54284 C120.572657,37.62819 120.553339,37.68504 120.515608,37.71369 C120.477425,37.74204 120.415094,37.76124 120.329673,37.77024 L117.880818,38.14044 C117.775475,38.14044 117.708616,38.12154 117.680243,38.08359 C117.651719,38.04594 117.623195,37.96974 117.594218,37.85589 C117.517851,37.41969 117.338707,37.06119 117.057389,36.78144 C116.775619,36.50154 116.396352,36.36159 115.918836,36.36159 C115.355748,36.36159 114.928639,36.60129 114.637813,37.08024 C114.346233,37.55949 114.200442,38.37789 114.200442,39.53514 C114.200442,40.74984 114.358004,41.59419 114.67328,42.06834 C114.988404,42.54294 115.441773,42.78009 116.033386,42.78009 C116.806859,42.78009 117.322559,42.44814 117.580182,41.78364 L117.623195,41.65569 L117.651719,41.54184 C117.651719,41.45649 117.599047,41.41374 117.494006,41.41374 L116.148086,41.41374 C116.043045,41.41374 115.969395,41.39019 115.926382,41.34264 C115.88337,41.29539 115.861788,41.21469 115.861788,41.10084 L115.861788,39.73449 C115.861788,39.57324 115.961849,39.49254 116.162424,39.49254 L120.17196,39.52089 C120.343407,39.52089 120.477425,39.56124 120.572657,39.64209 C120.667888,39.72279 120.71573,39.82944 120.71573,39.96219 L120.71573,44.61594 C120.71573,44.68254 120.692036,44.73939 120.644193,44.78664 C120.596351,44.83434 120.539303,44.85774 120.472596,44.85774 L119.928221,44.85774 C119.756774,44.85774 119.603438,44.76774 119.470023,44.58729 L118.897275,43.76199 C118.887616,43.73334 118.868902,43.71924 118.840227,43.71924 C118.820909,43.71924 118.787706,43.74294 118.739713,43.79034 C118.491749,44.02764 118.255104,44.22699 118.030834,44.38824 C117.806715,44.54964 117.508645,44.69184 117.135869,44.81499 C116.763847,44.93829 116.319986,44.99994 115.804287,44.99994 C114.811524,44.99994 113.935877,44.77254 113.177043,44.31714" id="Fill-58" fill="#902D9E"></path>
                <g id="Group-62" transform="translate(122.397465, 34.200000)">
                    <mask id="mask-8" fill="white">
                        <use xlink:href="#path-7"></use>
                    </mask>
                    <g id="Clip-61"></g>
                    <path d="M0.380201843,0.09798 L8.11252212,0.09798 C8.28412005,0.09798 8.37014539,0.19773 8.37014539,0.39678 L8.35565691,2.04768 C8.35565691,2.30373 8.23129747,2.43213 7.9834841,2.43213 L3.68795184,2.43213 C3.46790806,2.43213 3.35818802,2.52213 3.35818802,2.70228 L3.35818802,3.91188 C3.35818802,4.00713 3.38188272,4.08063 3.42972488,4.13268 C3.47756705,4.18488 3.53944493,4.21098 3.61626406,4.21098 L6.19370415,4.21098 C6.39427903,4.21098 6.49434009,4.30593 6.49434009,4.49568 L6.49434009,6.26013 C6.49434009,6.42153 6.40816382,6.50223 6.23671682,6.50223 L3.5872871,6.50223 C3.52073065,6.50223 3.46564424,6.52128 3.42278249,6.55923 C3.37976982,6.59718 3.35818802,6.64458 3.35818802,6.70143 L3.35818802,8.12463 C3.35818802,8.20053 3.37011083,8.25258 3.39425829,8.28123 C3.417953,8.30958 3.46307857,8.32368 3.53023871,8.32368 L8.18405899,8.32368 C8.39384009,8.32368 8.49873065,8.41398 8.49873065,8.59428 L8.49873065,10.34493 C8.49873065,10.43973 8.47020645,10.51563 8.41330899,10.57263 C8.35565691,10.62948 8.26948065,10.65783 8.15508203,10.65783 L0.494902304,10.65783 C0.351224885,10.65783 0.251314747,10.62948 0.193662673,10.57263 C0.136614286,10.51563 0.108090092,10.42563 0.108090092,10.30203 L0.108090092,0.42543 C0.108090092,0.20703 0.198492166,0.09798 0.380201843,0.09798" id="Fill-60" fill="#902D9E" mask="url(#mask-8)"></path>
                </g>
            </g>
        </g>
    </g>
</svg>