<?xml version="1.0" encoding="UTF-8"?>
<svg width="100px" height="35px" viewBox="0 0 100 35" version="1.1" xmlns="http://www.w3.org/2000/svg" xmlns:xlink="http://www.w3.org/1999/xlink">
    <title>mobile/logo/dpla_bws-logo-color-nav-mobile</title>
    <defs>
        <filter id="filter-1">
            <feColorMatrix in="SourceGraphic" type="matrix" values="0 0 0 0 0.184000 0 0 0 0 0.016000 0 0 0 0 0.243000 0 0 0 1.000000 0"></feColorMatrix>
        </filter>
        <polygon id="path-2" points="0 0.0833906667 6.64542062 0.0833906667 6.64542062 6.686644 0 6.686644"></polygon>
        <filter id="filter-4">
            <feColorMatrix in="SourceGraphic" type="matrix" values="0 0 0 0 0.545000 0 0 0 0 0.176000 0 0 0 0 0.608000 0 0 0 1.000000 0"></feColorMatrix>
        </filter>
        <polygon id="path-5" points="0 0 15.9597985 0 15.9597985 22.7248973 0 22.7248973"></polygon>
        <filter id="filter-7">
            <feColorMatrix in="SourceGraphic" type="matrix" values="0 0 0 0 0.545000 0 0 0 0 0.176000 0 0 0 0 0.608000 0 0 0 1.000000 0"></feColorMatrix>
        </filter>
        <polygon id="path-8" points="0.028000576 0.074018 6.95355242 0.074018 6.95355242 8.16 0.028000576 8.16"></polygon>
        <filter id="filter-10">
            <feColorMatrix in="SourceGraphic" type="matrix" values="0 0 0 0 0.545000 0 0 0 0 0.176000 0 0 0 0 0.608000 0 0 0 1.000000 0"></feColorMatrix>
        </filter>
        <polygon id="path-11" points="0.0816864055 0.0740293333 6.42268203 0.0740293333 6.42268203 8.05258267 0.0816864055 8.05258267"></polygon>
    </defs>
    <g id="DPLA" stroke="none" stroke-width="1" fill="none" fill-rule="evenodd">
        <g id="4.1-Key-Figures---Sojourner-Truth---Mobile" transform="translate(-20.000000, -13.000000)">
            <g id="dpla_bws-logo-color-mobile" transform="translate(20.000000, 13.000000)">
                <path d="M10.5113136,28.906732 L10.175991,28.906732 L10.175991,30.808692 L10.5113136,30.808692 C10.986582,30.808692 11.1508217,30.5695587 11.1508217,29.8524987 C11.1508217,29.1354387 10.9912583,28.906732 10.5113136,28.906732" id="Fill-1" fill="#2F043E"></path>
                <path d="M10.6131194,31.0338967 L10.1759454,31.0338967 L10.1759454,32.5209433 C10.4858336,32.5209433 10.5494765,32.5152767 10.6131194,32.5152767 C10.6710594,32.5212833 10.7132599,32.57251 10.7078993,32.6300833 C10.7117772,32.6851633 10.6700329,32.73299 10.6147161,32.7369567 C10.6141459,32.7369567 10.6135756,32.7369567 10.6131194,32.7369567 C10.3985813,32.7113433 10.1825606,32.7009167 9.96653986,32.7060167 L9.57339124,32.7060167 C9.35737051,32.7009167 9.14134977,32.71123 8.92692581,32.7369567 C8.87320576,32.7361633 8.83054908,32.6920767 8.83146152,32.63881 C8.83157558,32.6358633 8.83168963,32.63303 8.8320318,32.6300833 C8.82484631,32.5740967 8.86476567,32.52287 8.92122304,32.51573 C8.92304793,32.5155033 8.92498687,32.51539 8.92692581,32.5152767 C8.99045461,32.5152767 9.05409747,32.5209433 9.35828295,32.5209433 L9.35828295,28.8700233 C9.05409747,28.8700233 8.99045461,28.87569 8.92692581,28.87569 C8.87024032,28.8717233 8.82746959,28.8227633 8.83146152,28.7664367 C8.83157558,28.7646233 8.83180369,28.7626967 8.8320318,28.76077 C8.82815392,28.7058033 8.86989816,28.6579767 8.92532903,28.65401 C8.92578525,28.6538967 8.92635553,28.6538967 8.92692581,28.6538967 C9.14134977,28.6796233 9.35737051,28.69005 9.57339124,28.68495 L9.89023687,28.68495 C10.2070825,28.67917 10.3018624,28.67237 10.6131194,28.67237 C11.5313786,28.67237 12.025238,29.1377167 12.025238,29.8502433 C12.025238,30.56277 11.5313786,31.0338967 10.6131194,31.0338967 L10.6131194,31.0338967 Z M7.07421152,33.9999433 L13.7195295,33.9999433 L13.7195295,27.39669 L7.07421152,27.39669 L7.07421152,33.9999433 Z" id="Fill-3" fill="#2F043E"></path>
                <path d="M3.55048445,28.906732 C3.19554435,28.906732 2.87858468,28.9194253 2.87858468,28.9194253 L2.87858468,32.4703853 C2.87858468,32.4703853 3.16315265,32.4830787 3.55048445,32.4830787 C4.16467224,32.4830787 4.49999482,32.0417587 4.49999482,30.6949053 C4.49999482,29.348052 4.16467224,28.906732 3.55048445,28.906732" id="Fill-5" fill="#2F043E"></path>
                <g filter="url(#filter-1)" id="Group-9">
                    <g transform="translate(0.000000, 27.313333)">
                        <mask id="mask-3" fill="white">
                            <use xlink:href="#path-2"></use>
                        </mask>
                        <g id="Clip-8"></g>
                        <path d="M3.70085495,5.41447733 C3.42221786,5.41447733 3.11221555,5.389204 2.59166717,5.389204 L2.27607615,5.389204 C2.06005541,5.38421733 1.84403468,5.39453067 1.62949666,5.42025733 L1.62949666,5.42139067 C1.57589067,5.42037067 1.53311993,5.37639733 1.53414643,5.32313067 C1.53426048,5.320184 1.53437454,5.31735067 1.53471671,5.31451733 C1.52753122,5.25853067 1.56745058,5.207304 1.62379389,5.200164 C1.62573283,5.199824 1.62755772,5.19971067 1.62949666,5.19959733 C1.69302546,5.19959733 1.75666832,5.20537733 2.0608538,5.20537733 L2.0608538,1.55661067 C1.75666832,1.55661067 1.69428007,1.56239067 1.62949666,1.56239067 C1.57281118,1.558424 1.53015449,1.509464 1.53414643,1.45313733 C1.53426048,1.45121067 1.53448859,1.44939733 1.53471671,1.44747067 C1.53083882,1.39239067 1.57258306,1.344564 1.62789988,1.34071067 C1.62847016,1.34059733 1.62904044,1.34059733 1.62949666,1.34059733 C1.84403468,1.36621067 2.06005541,1.37663733 2.27607615,1.37165067 L2.59292177,1.37165067 C3.08678122,1.37165067 3.41640104,1.35329067 3.70199551,1.35329067 C4.62036878,1.35329067 5.40666601,2.16577733 5.40666601,3.38037067 C5.40666601,4.59507733 4.62036878,5.41447733 3.70085495,5.41447733 L3.70085495,5.41447733 Z M-1.140553e-05,6.686644 L6.64542062,6.686644 L6.64542062,0.0833906667 L-1.140553e-05,0.0833906667 L-1.140553e-05,6.686644 Z" id="Fill-7" fill="#2F043E" mask="url(#mask-3)"></path>
                    </g>
                </g>
                <path d="M15.8669056,28.7608153 C15.8630278,28.7057353 15.904772,28.6579087 15.9600888,28.6540553 C15.9606591,28.6540553 15.9612294,28.653942 15.9616856,28.653942 C16.1762236,28.6796687 16.3922444,28.689982 16.608151,28.6849953 L17.0014137,28.6849953 C17.2174344,28.689982 17.4334552,28.6796687 17.6478791,28.653942 C17.7028538,28.6592687 17.7442559,28.705962 17.7427732,28.7608153 C17.7481338,28.818502 17.7058192,28.8696153 17.6478791,28.8757353 C17.5843503,28.8757353 17.5207075,28.8699553 17.2107052,28.8699553 L17.2107052,32.483022 L18.1926073,32.483022 L18.1937478,32.483022 C18.6679897,32.483022 18.8275531,32.1808753 18.8275531,31.678582 C18.833598,31.6230487 18.8836683,31.5828153 18.9395554,31.588822 C18.9871165,31.593922 19.0247547,31.631322 19.0298872,31.678582 C19.0298872,31.741822 18.9987501,32.1820087 18.9987501,32.440522 L18.9987501,32.6359087 C19.002628,32.6909887 18.9607697,32.7388153 18.9054529,32.7426687 C18.9045404,32.7426687 18.903628,32.742782 18.9027156,32.742782 C18.8460301,32.742782 18.6493987,32.7175087 18.5476614,32.7175087 L16.7666879,32.7048153 L16.608151,32.7048153 C16.3922444,32.6998287 16.1762236,32.7102553 15.9616856,32.7358687 C15.9080796,32.7348487 15.8653089,32.6908753 15.8663354,32.6376087 C15.8663354,32.6347753 15.8665635,32.6318287 15.8669056,32.6289953 C15.8597202,32.5730087 15.8996395,32.521782 15.9559828,32.514642 C15.9579218,32.5144153 15.9597467,32.5141887 15.9616856,32.5140753 C16.0253285,32.5140753 16.0888573,32.5198553 16.3930427,32.5198553 L16.3930427,28.8699553 C16.0888573,28.8699553 16.0253285,28.8757353 15.9616856,28.8757353 C15.9050001,28.8717687 15.8623434,28.8228087 15.8663354,28.766482 C15.8664494,28.7645553 15.8666775,28.762742 15.8669056,28.7608153 L15.8669056,28.7608153 Z M14.1483204,33.9999887 L20.7937524,33.9999887 L20.7937524,27.3967353 L14.1483204,27.3967353 L14.1483204,33.9999887 Z" id="Fill-10" fill="#2F043E"></path>
                <path d="M26.7564038,32.63014 C26.7621066,32.68318 26.7235559,32.73078 26.670178,32.7364467 C26.6673266,32.7367867 26.6643612,32.7369 26.6615098,32.7370133 C26.4470858,32.7112867 26.2310651,32.7009733 26.0150444,32.70596 L25.5905305,32.70596 C25.3746238,32.7009733 25.1586031,32.7112867 24.9440651,32.7370133 C24.8886342,32.7339533 24.8460916,32.6868067 24.8491711,32.6317267 C24.8491711,32.63116 24.8491711,32.6307067 24.8492851,32.63014 C24.8444948,32.57268 24.8864672,32.5217933 24.9440651,32.51522 C25.0077079,32.51522 25.0702103,32.521 25.3685789,32.521 L24.9568393,31.44422 L23.6615132,31.44422 L23.2301561,32.521 L23.275322,32.521 C23.5795075,32.521 23.6036872,32.51522 23.6684706,32.51522 C23.7264107,32.5212267 23.7687252,32.5725667 23.7633646,32.63014 C23.7672425,32.68522 23.7254983,32.7330467 23.6699533,32.7369 C23.6696112,32.7369 23.6690409,32.7369 23.6684706,32.7370133 C23.4899741,32.7114 23.3097667,32.7009733 23.1295593,32.70596 L23.0983082,32.70596 C22.9203819,32.70018 22.7423416,32.7104933 22.5663543,32.7370133 C22.5108093,32.7339533 22.4682667,32.6868067 22.4714603,32.6317267 C22.4714603,32.63116 22.4714603,32.6307067 22.4715743,32.63014 C22.4660997,32.5725667 22.5084142,32.5212267 22.5663543,32.51522 C22.6298831,32.51522 22.64836,32.521 22.9398854,32.521 L22.9837967,32.521 L24.523087,28.6298133 C24.5486354,28.5792667 24.5612955,28.5609067 24.6388531,28.5609067 C24.6869844,28.5532 24.733405,28.5830067 24.7464073,28.6298133 L26.2498842,32.521 C26.5412955,32.521 26.5968404,32.51522 26.6615098,32.51522 C26.7181953,32.5191867 26.760966,32.5681467 26.7569741,32.6244733 C26.75686,32.6264 26.7566319,32.6282133 26.7564038,32.63014 L26.7564038,32.63014 Z M21.2224407,34 L27.8677586,34 L27.8677586,27.3967467 L21.2224407,27.3967467 L21.2224407,34 Z" id="Fill-12" fill="#2F043E"></path>
                <polygon id="Fill-14" fill="#2F043E" points="23.7506361 31.2177913 24.8654126 31.2177913 24.3137271 29.789338"></polygon>
                <path d="M24.9932229,11.3301713 C25.8639211,10.7454847 26.5614833,9.977878 27.0841987,9.02497133 C27.6063439,8.07331133 27.8677586,7.06668467 27.8677586,6.00588467 C27.8677586,4.902358 27.5952805,3.89097133 27.0511227,2.97093133 C26.5068508,2.05089133 25.7711941,1.32612467 24.8459775,0.795611333 C23.9201907,0.265891333 22.9022471,1.13333333e-05 21.7911204,1.13333333e-05 L12.2732056,1.13333333e-05 C12.6284879,5.121658 14.7842471,9.441698 18.4795248,13.0996447 C20.235178,14.8376113 21.2450236,16.972358 21.594375,19.4066447 C21.7546227,20.523658 21.7368301,21.6438447 21.5627817,22.7249313 L21.7911204,22.7249313 C22.9022471,22.7249313 23.9201907,22.454858 24.8459775,21.9134647 C25.7711941,21.3727513 26.5068508,20.642318 27.0511227,19.722278 C27.5952805,18.8023513 27.8677586,17.8018447 27.8677586,16.719058 C27.8677586,15.6588247 27.6063439,14.646758 27.0841987,13.683538 C26.5614833,12.7208847 25.8639211,11.9361647 24.9932229,11.3301713" id="Fill-16" fill="#2F043E"></path>
                <g filter="url(#filter-4)" id="Group-20">
                    <g>
                        <mask id="mask-6" fill="white">
                            <use xlink:href="#path-5"></use>
                        </mask>
                        <g id="Clip-19"></g>
                        <path d="M13.0253205,17.453764 C12.1792583,17.7047973 11.2798182,17.9128773 10.4055843,17.9072107 L10.4033032,17.877744 L10.4021627,17.907324 C8.90769608,17.907324 9.06680323,17.049164 9.30209931,16.0605573 C9.39094839,15.6876907 9.09942304,15.3587973 8.80242304,15.162504 C7.98190922,14.6203173 8.08638387,14.1565573 8.86059124,13.6595907 C8.6379553,13.505684 8.38258548,13.3541573 8.15447488,13.1681773 C7.6683712,12.7717373 7.64749908,12.1486307 8.39068341,12.0448173 C8.74836083,11.961744 9.21975138,11.7170573 8.04589424,11.0932707 C7.81527442,10.970644 7.65719378,10.8518707 7.46364194,10.6601107 C7.32278364,10.473904 7.37867074,10.0300907 7.72186313,9.658584 C8.17432051,9.11333733 8.49698295,9.08251067 8.9188735,8.51391733 C9.09896682,8.27127067 9.26400484,8.03395067 9.34053594,7.92197733 C9.41706705,7.810004 9.49086083,7.53233733 9.53956244,7.31043067 C9.57491959,7.14927067 9.37361198,5.281084 9.37361198,5.281084 C9.34532627,4.716344 9.34532627,4.716344 9.34144839,4.433124 C9.31647028,2.64835067 9.93681705,1.19757067 11.0742906,-2.26666667e-05 L0.228087788,-2.26666667e-05 C0.102056682,-2.26666667e-05 -2.28110599e-05,0.101524 -2.28110599e-05,0.226644 L-2.28110599e-05,16.4790973 C-2.28110599e-05,19.928624 2.81417765,22.7248973 6.28556475,22.7248973 L15.8679207,22.7248973 C16.1075509,21.0398573 15.8971189,19.346544 15.0152433,17.6488107 C14.3225855,16.315444 14.4650406,17.026724 13.0253205,17.453764" id="Fill-18" fill="#8B2D9B" mask="url(#mask-6)"></path>
                    </g>
                </g>
                <path d="M39.6757213,6.47310133 C39.9715808,6.47310133 40.2041395,6.390708 40.3735116,6.22569467 C40.5429978,6.060908 40.6280831,5.86733467 40.6280831,5.64520133 C40.6280831,5.423068 40.5450508,5.24026133 40.3792144,5.096668 C40.2130358,4.95330133 39.996787,4.88167467 39.7297835,4.88167467 L38.7668146,4.88167467 C38.6729471,4.88167467 38.6080497,4.89958133 38.5717801,4.93539467 C38.5356245,4.97132133 38.5177179,5.028668 38.5177179,5.10743467 L38.5177179,6.23646133 C38.5177179,6.32248133 38.532431,6.38345467 38.561287,6.41938133 C38.5900289,6.455308 38.6369056,6.47310133 38.7019172,6.47310133 L39.6757213,6.47310133 Z M39.7297835,3.22576133 C39.9821879,3.22576133 40.1841798,3.15776133 40.3357593,3.021308 C40.4873388,2.885308 40.5629575,2.709528 40.5629575,2.49453467 C40.5629575,2.265148 40.4765036,2.07894133 40.3032536,1.935348 C40.1301176,1.79198133 39.9138688,1.72024133 39.6541649,1.72024133 L38.7668146,1.72024133 C38.6729471,1.72024133 38.6080497,1.736448 38.5717801,1.768748 C38.5356245,1.801048 38.5177179,1.85658133 38.5177179,1.935348 L38.5177179,2.98912133 C38.5177179,3.07514133 38.532431,3.13611467 38.561287,3.17204133 C38.5900289,3.207968 38.6369056,3.22576133 38.7019172,3.22576133 L39.7297835,3.22576133 Z M36.1319091,8.01613467 C36.0848043,7.96944133 36.061651,7.913908 36.061651,7.84953467 L36.061651,0.386874667 C36.061651,0.308221333 36.0867432,0.241921333 36.1372697,0.187974667 C36.1875681,0.134254667 36.2525796,0.107508 36.331848,0.107508 L39.5566476,0.107508 C40.6820312,0.107508 41.5352789,0.284874667 42.1160485,0.639721333 C42.6963619,0.994568 42.9869748,1.51975467 42.9869748,2.21505467 C42.9869748,2.59506133 42.8825001,2.91579467 42.6732086,3.17725467 C42.4639172,3.439168 42.0960888,3.691788 41.5693815,3.93534133 C41.5551245,3.94259467 41.547825,3.95517467 41.547825,3.97308133 C41.547825,3.99110133 41.5551245,4.003568 41.5693815,4.010708 C42.1539149,4.22570133 42.5683918,4.480248 42.8139529,4.77423467 C43.0589437,5.06822133 43.1816672,5.44811467 43.1816672,5.91391467 C43.1816672,6.65239467 42.8984679,7.198888 42.3322974,7.55362133 C41.7660128,7.908468 40.8987363,8.085948 39.7297835,8.085948 L36.3102916,8.085948 C36.2378665,8.085948 36.1786718,8.06271467 36.1319091,8.01613467 L36.1319091,8.01613467 Z" id="Fill-21" fill="#2F043E"></path>
                <path d="M44.49133,0.17187 C44.5270293,0.128803333 44.5778979,0.107496667 44.6429094,0.107496667 L46.6987562,0.107496667 C46.8287793,0.107496667 46.8934486,0.18275 46.8934486,0.333143333 L46.8934486,6.17196333 C46.8934486,6.22931 46.9023449,6.26875 46.9207078,6.29039667 C46.9385005,6.31170333 46.9727171,6.32247 47.0234717,6.32247 L50.280777,6.32247 C50.4466134,6.32247 50.5294175,6.39069667 50.5294175,6.52681 L50.5294175,7.84952333 C50.5294175,7.92115 50.5058081,7.97849667 50.4591594,8.02156333 C50.4120546,8.06463 50.3453323,8.08605 50.2587643,8.08605 L44.7294774,8.08605 C44.6210108,8.08605 44.5453922,8.06463 44.5019371,8.02156333 C44.4588242,7.97849667 44.4371537,7.91049667 44.4371537,7.81722333 L44.4371537,0.35479 C44.4371537,0.275796667 44.4551744,0.214823333 44.49133,0.17187" id="Fill-23" fill="#2F043E"></path>
                <path d="M55.9397447,4.709578 C56.0193553,4.709578 56.0588184,4.673878 56.0588184,4.60214467 C56.0588184,4.587858 56.0514048,4.55204467 56.0371479,4.49458467 L55.3881733,2.65586467 C55.3734601,2.62016467 55.3520177,2.60214467 55.3231618,2.60214467 C55.2943058,2.60214467 55.2722931,2.62016467 55.2580362,2.65586467 L54.5979982,4.483818 C54.5833991,4.51249133 54.5765558,4.54819133 54.5765558,4.591258 C54.5765558,4.67025133 54.6195546,4.709578 54.7062366,4.709578 L55.9397447,4.709578 Z M51.5354993,8.02684467 C51.4992297,7.98740467 51.481323,7.93187133 51.481323,7.86024467 C51.481323,7.81015133 51.4923864,7.752578 51.5138288,7.68820467 L54.1326525,0.354858 C54.1688081,0.261698 54.2086134,0.197098 54.2517263,0.161171333 C54.2951813,0.125358 54.3635005,0.107451333 54.457368,0.107451333 L56.5891756,0.107451333 C56.6757435,0.107451333 56.753073,0.134311333 56.8216203,0.188031333 C56.8903956,0.241978 56.9424048,0.311791333 56.9785604,0.397811333 L59.5758276,7.72050467 C59.5900846,7.77785133 59.59727,7.82080467 59.59727,7.849478 C59.59727,7.91396467 59.5830131,7.969498 59.5541571,8.016078 C59.5253012,8.06277133 59.4819601,8.08600467 59.4242482,8.08600467 L57.3033899,8.08600467 C57.1805523,8.08600467 57.1013979,8.02514467 57.0651283,7.903198 L56.6432378,6.666618 C56.6216813,6.61652467 56.6018357,6.582298 56.583929,6.56439133 C56.5655661,6.546598 56.5314636,6.53753133 56.4810512,6.53753133 L54.1867147,6.53753133 C54.1001468,6.53753133 54.0459705,6.57708467 54.0245281,6.65585133 L53.5806249,7.924618 C53.537512,8.03228467 53.4510581,8.08600467 53.320921,8.08600467 L51.6764717,8.08600467 C51.6183035,8.08600467 51.5716548,8.066398 51.5354993,8.02684467 L51.5354993,8.02684467 Z" id="Fill-25" fill="#2F043E"></path>
                <path d="M65.4842914,0.317016 C65.9675437,0.528722667 66.3643421,0.820896 66.6748006,1.19342267 C66.9849169,1.566176 67.1869089,1.992876 67.2807764,2.47306933 C67.3023328,2.55920267 67.3132821,2.62720267 67.3132821,2.677296 C67.3132821,2.741896 67.3002798,2.78484933 67.2750736,2.80626933 C67.2498674,2.827916 67.2048156,2.84230933 67.1402603,2.849336 L65.2461439,2.967656 C65.174175,2.967656 65.1270702,2.95518933 65.1055137,2.93014267 C65.0839573,2.905096 65.0624008,2.849336 65.0408444,2.763316 C64.9758328,2.419236 64.8567591,2.14882267 64.6835091,1.95150933 C64.5104872,1.75442267 64.2576266,1.65582267 63.9259538,1.65582267 C63.5004135,1.65582267 63.1720483,1.842256 62.9412003,2.21500933 C62.7103524,2.587876 62.5949285,3.193416 62.5949285,4.03230933 C62.5949285,4.89964933 62.7014561,5.51618267 62.9143974,5.88168267 C63.1268824,6.247296 63.4606082,6.43010267 63.9154607,6.43010267 C64.297546,6.43010267 64.6238582,6.333316 64.8945114,6.13962933 C65.1652787,5.94616933 65.3904238,5.62350933 65.5708593,5.17198933 C65.5924158,5.10738933 65.6537775,5.075316 65.7549446,5.075316 C65.805357,5.075316 65.8448202,5.07894267 65.8741324,5.08596933 L67.2267142,5.354796 C67.3349526,5.39072267 67.3889008,5.473116 67.3889008,5.60208933 C67.3889008,5.802916 67.2644665,6.11288267 67.0153697,6.532216 C66.7666151,6.95154933 66.3772303,7.33336933 65.8468732,7.67744933 C65.316402,8.02152933 64.6474676,8.193456 63.8393858,8.193456 C63.0748732,8.193456 62.4037718,8.01246267 61.826766,7.65036267 C61.2495321,7.28848933 60.8040321,6.79038933 60.490266,6.155836 C60.1764999,5.521396 60.0196738,4.799236 60.0196738,3.98924267 C60.0196738,3.18638933 60.1764999,2.483836 60.490266,1.881696 C60.8040321,1.27944267 61.2515851,0.815342667 61.8320126,0.489056 C62.4127821,0.162996 63.0891301,2.26666667e-05 63.8610563,2.26666667e-05 C64.4600748,2.26666667e-05 65.0010391,0.105762667 65.4842914,0.317016" id="Fill-27" fill="#2F043E"></path>
                <path d="M76.1543699,7.92462933 C76.1543699,8.032296 76.0893584,8.086016 75.9592213,8.086016 L73.8494264,8.086016 C73.6542778,8.086016 73.5245969,8.01450267 73.4595854,7.87090933 L72.1395093,4.88162933 C72.1106533,4.83856267 72.0817974,4.817256 72.0529414,4.817256 C72.0167858,4.817256 71.9662593,4.85658267 71.9013619,4.93534933 L71.1331994,5.91398267 C71.0900865,5.96418933 71.0680738,6.042956 71.0680738,6.150396 L71.0680738,7.77412267 C71.0680738,7.88892933 71.0392179,7.96950933 70.9815059,8.01608933 C70.9237939,8.06278267 70.8335762,8.086016 70.7111948,8.086016 L68.9042167,8.086016 C68.7956361,8.086016 68.7200174,8.064596 68.6765623,8.02152933 C68.6335635,7.978576 68.611893,7.91046267 68.611893,7.81718933 L68.611893,0.354869333 C68.611893,0.275876 68.6297997,0.214902667 68.6660692,0.171836 C68.7017685,0.128769333 68.7526372,0.107462667 68.8176487,0.107462667 L70.8733815,0.107462667 C71.0035185,0.107462667 71.0680738,0.182716 71.0680738,0.333222667 L71.0680738,3.053676 C71.0680738,3.139696 71.0859805,3.18276267 71.1221361,3.18276267 C71.1509921,3.18276267 71.1871476,3.157716 71.2307167,3.107396 L73.2218941,0.333222667 C73.2864494,0.247202667 73.3494079,0.188042667 73.4107697,0.155856 C73.4721315,0.123556 73.56406,0.107462667 73.6867835,0.107462667 L75.3316891,0.107462667 C75.4183711,0.107462667 75.4869183,0.123556 75.5374448,0.155856 C75.5877432,0.188042667 75.6129494,0.232809333 75.6129494,0.290156 C75.6129494,0.340476 75.5951568,0.383429333 75.5588872,0.419242667 L73.7844149,2.58050933 C73.7340024,2.63808267 73.7087962,2.69894267 73.7087962,2.763316 C73.7087962,2.81352267 73.7230531,2.86724267 73.7519091,2.92470267 L76.1109149,7.75258933 C76.1397709,7.81016267 76.1543699,7.86750933 76.1543699,7.92462933" id="Fill-29" fill="#2F043E"></path>
                <path d="M47.1368768,13.091428 C47.1982386,13.1453747 47.2291476,13.2188147 47.2291476,13.3118613 C47.2291476,13.340648 47.221848,13.3836013 47.2071349,13.440948 L45.0106579,20.7205747 C44.9746165,20.813848 44.9273976,20.8819613 44.8701418,20.9249147 C44.8119736,20.9679813 44.7295116,20.9894013 44.620931,20.9894013 L43.127719,20.9894013 C42.9184275,20.9894013 42.7886326,20.899868 42.7383342,20.7205747 L41.6128365,16.9356947 C41.5912801,16.842648 41.5656176,16.795728 41.5367616,16.795728 C41.5153192,16.795728 41.4828135,16.8496747 41.4397006,16.9571147 L40.3251522,20.7205747 C40.295954,20.813848 40.2507881,20.8819613 40.1898826,20.9249147 C40.1285209,20.9679813 40.0435497,20.9894013 39.9354252,20.9894013 L38.388037,20.9894013 C38.2800266,20.9894013 38.1966522,20.9679813 38.1392824,20.9249147 C38.0812282,20.8819613 38.0344656,20.813848 37.99831,20.7205747 L35.7907697,13.440948 C35.7762847,13.3836013 35.7693273,13.340648 35.7693273,13.3118613 C35.7693273,13.2188147 35.7998941,13.1453747 35.8612559,13.091428 C35.9226176,13.037708 36.0074748,13.010848 36.1155992,13.010848 L37.9011349,13.010848 C38.0092593,13.010848 38.0885278,13.0287547 38.1392824,13.064568 C38.1893526,13.1004947 38.2255082,13.1578413 38.2475209,13.236608 L39.3944609,17.225828 C39.4160174,17.311848 39.4411096,17.3549147 39.4699656,17.3549147 C39.4919782,17.3549147 39.5098849,17.326468 39.5241418,17.2688947 L40.6605888,13.236608 C40.6966303,13.0862147 40.8121683,13.010848 41.0068607,13.010848 L42.5216291,13.010848 C42.6297536,13.010848 42.7094782,13.0287547 42.7597766,13.064568 C42.8101891,13.1004947 42.8464586,13.1578413 42.867901,13.236608 L44.0584103,17.3226147 C44.0726672,17.365568 44.0941096,17.3908413 44.1234218,17.3979813 C44.1519356,17.4052347 44.1701844,17.3872147 44.177598,17.344148 L45.2810831,13.236608 C45.3172386,13.0862147 45.4326626,13.010848 45.627355,13.010848 L46.8827616,13.010848 C46.9910001,13.010848 47.0755151,13.037708 47.1368768,13.091428" id="Fill-31" fill="#8B2D9B"></path>
                <path d="M52.3259482,19.1882967 C52.5134551,19.0342767 52.6507776,18.7850567 52.7372316,18.4409767 C52.8237995,18.0967833 52.8669124,17.63461 52.8669124,17.05389 C52.8669124,16.16513 52.7657454,15.52695 52.5642097,15.1398033 C52.3621037,14.75277 52.0300887,14.55931 51.5682788,14.55931 C51.0992834,14.55931 50.7623641,14.75277 50.5567224,15.1398033 C50.3510806,15.52695 50.2482028,16.16513 50.2482028,17.05389 C50.2482028,17.63461 50.2916578,18.0967833 50.3783399,18.4409767 C50.4649078,18.7850567 50.603371,19.0342767 50.7948698,19.1882967 C50.9859124,19.3425433 51.2440196,19.4194967 51.5682788,19.4194967 C51.8858088,19.4194967 52.1382131,19.3425433 52.3259482,19.1882967 M49.5068433,20.5968033 C48.9191164,20.2636033 48.4663168,19.7904367 48.1489009,19.1776433 C47.831485,18.5647367 47.6729482,17.8459767 47.6729482,17.0214767 C47.6729482,16.19743 47.8330818,15.4750433 48.1542615,14.8548833 C48.4752131,14.23495 48.9297235,13.75453 49.5177926,13.4140767 C50.1055196,13.0736233 50.7891671,12.9033967 51.5682788,12.9033967 C52.3402051,12.9033967 53.0184919,13.0736233 53.6030253,13.4140767 C54.1871025,13.75453 54.6399021,14.23495 54.9610818,14.8548833 C55.2816912,15.4750433 55.4426233,16.19743 55.4426233,17.0214767 C55.4426233,17.8387233 55.2837442,18.5555567 54.9662143,19.17209 C54.6487984,19.78885 54.1980518,20.2636033 53.6136325,20.5968033 C53.0290991,20.93023 52.3475046,21.09683 51.5682788,21.09683 C50.7818675,21.09683 50.0949124,20.93023 49.5068433,20.5968033" id="Fill-33" fill="#8B2D9B"></path>
                <path d="M56.7952735,20.9088213 C56.7445189,20.8548747 56.7193127,20.781548 56.7193127,20.6882747 L56.7193127,13.2582547 C56.7193127,13.1721213 56.7371053,13.1093347 56.7733749,13.070008 C56.8095304,13.030568 56.8672424,13.010848 56.9465108,13.010848 L59.976618,13.010848 C60.0700293,13.010848 60.1370938,13.0233147 60.1768991,13.0483613 C60.2163622,13.0736347 60.2504647,13.1255413 60.2793207,13.204308 L61.4048184,16.623688 C61.4267171,16.6812613 61.4519233,16.709708 61.4807793,16.709708 C61.5023357,16.709708 61.5238922,16.6812613 61.5457908,16.623688 L62.5522147,13.322628 C62.6095846,13.114888 62.7071018,13.010848 62.8439682,13.010848 L65.9715926,13.010848 C66.1013876,13.010848 66.166285,13.0862147 66.166285,13.236608 L66.166285,20.677508 C66.166285,20.7923147 66.1391399,20.8728947 66.0850776,20.9194747 C66.0310154,20.966168 65.9427366,20.9894013 65.8200131,20.9894013 L63.9914786,20.9894013 C63.883012,20.9894013 63.808876,20.9679813 63.7694129,20.9249147 C63.7297217,20.8819613 63.709762,20.813848 63.709762,20.7205747 L63.709762,15.8924613 C63.709762,15.8353413 63.6955051,15.8064413 63.6666491,15.8064413 C63.6304935,15.8064413 63.6016376,15.8387413 63.5800811,15.9033413 L62.0217435,20.7959413 C61.9714452,20.9249147 61.8847631,20.9894013 61.7620396,20.9894013 L60.6255926,20.9894013 C60.4959118,20.9894013 60.4093438,20.9249147 60.3660028,20.7959413 L58.8080074,15.9893613 C58.7861088,15.9177347 58.7607885,15.881808 58.7319325,15.881808 C58.695777,15.881808 58.6779843,15.9213613 58.6779843,16.000128 L58.6779843,20.7528747 C58.6779843,20.8460347 58.6632712,20.9088213 58.6348714,20.9408947 C58.6060154,20.9731947 58.5410039,20.9894013 58.4397228,20.9894013 L57.000573,20.9894013 C56.9140051,20.9894013 56.8456859,20.9625413 56.7952735,20.9088213" id="Fill-35" fill="#8B2D9B"></path>
                <path d="M67.8758941,13.0108593 L73.7192893,13.0108593 C73.8494264,13.0108593 73.9139817,13.086226 73.9139817,13.2366193 L73.9034886,14.483966 C73.9034886,14.677426 73.809507,14.774326 73.621772,14.774326 L70.3755301,14.774326 C70.2096937,14.774326 70.1267755,14.8424393 70.1267755,14.9785527 L70.1267755,15.8924727 C70.1267755,15.9644393 70.1446821,16.0198593 70.1808377,16.0592993 C70.2169932,16.098626 70.2637559,16.1184593 70.3213538,16.1184593 L72.2691902,16.1184593 C72.4207697,16.1184593 72.4968446,16.190086 72.4968446,16.3334527 L72.4968446,17.666706 C72.4968446,17.7886527 72.431719,17.849626 72.301696,17.849626 L70.2999114,17.849626 C70.2491568,17.849626 70.2079828,17.8640193 70.1754771,17.8926927 C70.1429713,17.921366 70.1267755,17.957066 70.1267755,18.0001327 L70.1267755,19.0754393 C70.1267755,19.132786 70.1356718,19.1721127 70.1535785,19.1937593 C70.1719414,19.2151793 70.2060439,19.2258327 70.2564563,19.2258327 L73.7733515,19.2258327 C73.9320024,19.2258327 74.011613,19.2940593 74.011613,19.430286 L74.011613,20.752886 C74.011613,20.824626 73.9899425,20.8819727 73.9466015,20.924926 C73.9034886,20.9679927 73.838363,20.9894127 73.7519091,20.9894127 L67.9624621,20.9894127 C67.8543377,20.9894127 67.7783768,20.9679927 67.7352639,20.924926 C67.6918089,20.8819727 67.6701384,20.8138593 67.6701384,20.720586 L67.6701384,13.258266 C67.6701384,13.0932527 67.7389137,13.0108593 67.8758941,13.0108593" id="Fill-37" fill="#8B2D9B"></path>
                <path d="M82.2572181,13.0108593 C82.3656847,13.0108593 82.4197469,13.0718327 82.4197469,13.1935527 L82.4197469,20.7959527 C82.4197469,20.8532993 82.3962515,20.8998793 82.3494888,20.9356927 C82.302384,20.9716193 82.2429612,20.9894127 82.1705361,20.9894127 L80.6882734,20.9894127 C80.6232619,20.9894127 80.5709105,20.978646 80.5314474,20.9571127 C80.4916421,20.9356927 80.4464762,20.892626 80.3960637,20.828026 L77.4200188,16.817386 C77.3911628,16.7815727 77.3659566,16.7672927 77.3445142,16.7743193 C77.3228437,16.7815727 77.3120084,16.8029927 77.3120084,16.8386927 L77.3120084,20.752886 C77.3191939,20.838906 77.302998,20.8998793 77.2631927,20.9356927 C77.2237296,20.9716193 77.1534715,20.9894127 77.0521904,20.9894127 L75.5805349,20.9894127 C75.3999854,20.9894127 75.3102238,20.9178993 75.3102238,20.774306 L75.3102238,13.258266 C75.3102238,13.0932527 75.3893782,13.0108593 75.5480291,13.0108593 L77.3120084,13.0108593 C77.4058759,13.0108593 77.476134,13.023326 77.5228967,13.0483727 C77.5700015,13.073646 77.6220107,13.1255527 77.6797227,13.2043193 L80.27699,16.7957393 C80.3205591,16.8603393 80.3599082,16.8926393 80.3960637,16.8926393 C80.4322192,16.8926393 80.4501259,16.8460593 80.4501259,16.752786 L80.4501259,13.2366193 C80.4501259,13.086226 80.5293944,13.0108593 80.6882734,13.0108593 L82.2572181,13.0108593 Z" id="Fill-39" fill="#8B2D9B"></path>
                <path d="M83.8695836,16.4946353 C83.8402714,16.444542 83.8370779,16.390822 83.8585203,16.3334753 L84.3130306,15.236522 C84.3418866,15.1721487 84.3564857,15.111402 84.3564857,15.0538287 C84.3564857,14.9894553 84.3092668,14.9463887 84.2158555,14.924742 L84.0427196,14.903322 C83.9415525,14.889042 83.8727772,14.865582 83.8370779,14.8335087 C83.8008083,14.8012087 83.7830157,14.7420487 83.7830157,14.6560287 L83.7830157,13.2365287 C83.7830157,13.0861353 83.847685,13.010882 83.977594,13.010882 L85.5685514,13.010882 C85.6909327,13.010882 85.7522945,13.0752553 85.7522945,13.2042287 L85.7522945,14.5700087 C85.7522945,14.6273553 85.7375813,14.6774487 85.7091816,14.720402 L84.6267968,16.344242 C84.5836839,16.4158687 84.5185583,16.4716287 84.4321044,16.510842 C84.3455364,16.5503953 84.2626182,16.570002 84.1833498,16.570002 L84.0100998,16.570002 C83.9452023,16.570002 83.8979834,16.5449553 83.8695836,16.4946353" id="Fill-41" fill="#8B2D9B"></path>
                <path d="M91.2656934,14.7204247 C91.0670091,14.620238 90.7803881,14.569918 90.4052603,14.569918 C90.0301324,14.569918 89.7524077,14.623638 89.5719722,14.7313047 C89.3915368,14.8387447 89.3016612,14.9678313 89.3016612,15.1184513 C89.3016612,15.3765113 89.5321669,15.559318 89.9944331,15.666758 L91.7904619,16.129158 C92.4467361,16.2941713 92.9410517,16.5824913 93.2731808,16.9946847 C93.6048536,17.4069913 93.77069,17.8997647 93.77069,18.4732313 C93.77069,19.0037447 93.6299457,19.4661447 93.3487994,19.860318 C93.0675391,20.254718 92.665152,20.5592447 92.1420944,20.774238 C91.6189227,20.9893447 91.0075863,21.0967847 90.3080851,21.0967847 C89.5143743,21.0967847 88.7912637,20.9661113 88.1385252,20.7044247 C87.4852165,20.4429647 87.032531,20.100698 86.7801266,19.6776247 C86.743857,19.6058847 86.7260644,19.5521647 86.7260644,19.516238 C86.7260644,19.4447247 86.7655275,19.3801247 86.8451381,19.322778 L87.9596865,18.5592513 C88.038955,18.509158 88.111266,18.483998 88.1762775,18.483998 C88.255546,18.483998 88.3205575,18.516298 88.3709699,18.5806713 C88.6160748,18.8963047 88.8651715,19.118438 89.1175759,19.2474113 C89.3699803,19.376498 89.7053029,19.4408713 90.1239999,19.4408713 C90.5279838,19.4408713 90.8469964,19.3855647 91.0816082,19.2743847 C91.3161059,19.1632047 91.4335828,19.0107713 91.4335828,18.8173113 C91.4335828,18.681198 91.3754146,18.562878 91.2604469,18.462578 C91.1445667,18.3621647 90.9750805,18.286798 90.7515321,18.2367047 L89.1066266,17.8387913 C88.4575379,17.681258 87.9416658,17.3855713 87.5593524,16.951618 C87.1768109,16.518118 86.9858824,16.0180913 86.9858824,15.4516513 C86.9858824,14.985738 87.1227487,14.5574513 87.3971658,14.166678 C87.6710126,13.7761313 88.0608536,13.4677513 88.5656623,13.2421047 C89.0704711,13.0162313 89.6550045,12.9033513 90.3186923,12.9033513 C90.9682372,12.9033513 91.5705632,13.0092047 92.1257844,13.220458 C92.6813478,13.4320513 93.0816819,13.7133447 93.3271289,14.0645647 C93.3776554,14.1291647 93.4027476,14.190138 93.4027476,14.2474847 C93.4027476,14.297578 93.3776554,14.3442713 93.3271289,14.3872247 L92.1476831,15.2365447 C92.1115275,15.2654447 92.0716082,15.2796113 92.0284953,15.2796113 C91.9777407,15.2796113 91.9095356,15.2365447 91.8229676,15.1505247 C91.6497176,14.964318 91.4640356,14.8209513 91.2656934,14.7204247" id="Fill-43" fill="#8B2D9B"></path>
                <path d="M40.2869893,27.623606 C40.0886471,27.5234193 39.801684,27.4732127 39.4270123,27.4732127 C39.0517704,27.4732127 38.7737036,27.5268193 38.5937243,27.634486 C38.4132888,27.741926 38.3230711,27.8710127 38.3230711,28.0216327 C38.3230711,28.2796927 38.553919,28.4624993 39.0157289,28.5699393 L40.8120999,29.0323393 C41.4684881,29.1973527 41.9626897,29.4856727 42.2944766,29.897866 C42.6261494,30.3101727 42.792328,30.802946 42.792328,31.3764127 C42.792328,31.906926 42.6516978,32.3694393 42.3700953,32.7636127 C42.0888349,33.1578993 41.68679,33.462426 41.1637324,33.6775327 C40.6406748,33.892526 40.0293384,33.999966 39.329381,33.999966 C38.5356702,33.999966 37.8125596,33.8692927 37.1598211,33.607606 C36.5066264,33.346146 36.0542831,33.0038793 35.8018787,32.580806 C35.7656091,32.509066 35.7478165,32.455346 35.7478165,32.4194193 C35.7478165,32.3480193 35.7872796,32.283306 35.866434,32.2259593 L36.9814386,31.4624327 C37.060593,31.4123393 37.1325619,31.3871793 37.1975734,31.3871793 C37.2768418,31.3871793 37.3419674,31.4194793 37.3922658,31.4838527 C37.6377128,31.799486 37.8864674,32.0216193 38.139328,32.150706 C38.3917324,32.2796793 38.727055,32.3440527 39.1456379,32.3440527 C39.5492796,32.3440527 39.8687485,32.2888593 40.1033603,32.177566 C40.3374017,32.0664993 40.4548787,31.9139527 40.4548787,31.7204927 C40.4548787,31.5843793 40.3971667,31.4660593 40.2817427,31.3657593 C40.1662047,31.265346 39.9968326,31.1900927 39.7732842,31.1399993 L38.1283787,30.7419727 C37.4788338,30.5844393 36.9630757,30.288866 36.5809904,29.8547993 C36.198563,29.4212993 36.0075204,28.9212727 36.0075204,28.3548327 C36.0075204,27.8889193 36.1445008,27.460746 36.4184616,27.0698593 C36.6927646,26.6793127 37.0821494,26.371046 37.5874144,26.145286 C38.0922232,25.9194127 38.6766425,25.806646 39.3403303,25.806646 C39.9895331,25.806646 40.5918591,25.912386 41.1474225,26.1236393 C41.7030999,26.3352327 42.103434,26.616526 42.3484248,26.967746 C42.3989513,27.032346 42.4244997,27.0933193 42.4244997,27.150666 C42.4244997,27.2007593 42.3989513,27.2474527 42.3484248,27.290406 L41.1689789,28.1398393 C41.1328234,28.168626 41.0933603,28.1827927 41.0499052,28.1827927 C40.9994927,28.1827927 40.9308315,28.1398393 40.8447197,28.053706 C40.6714697,27.8676127 40.4853315,27.724246 40.2869893,27.623606" id="Fill-45" fill="#8B2D9B"></path>
                <g filter="url(#filter-7)" id="Group-49">
                    <g transform="translate(43.911290, 25.840000)">
                        <mask id="mask-9" fill="white">
                            <use xlink:href="#path-8"></use>
                        </mask>
                        <g id="Clip-48"></g>
                        <path d="M6.05525288,7.41280467 C5.45657661,7.911018 4.6018462,8.16001133 3.49060541,8.16001133 C2.24238422,8.16001133 1.35343721,7.87339133 0.82353629,7.29992467 C0.293065092,6.726458 0.028000576,5.85549133 0.028000576,4.68691133 L0.028000576,0.321424667 C0.028000576,0.242431333 0.0459072581,0.181458 0.0821768433,0.138391333 C0.117876152,0.095438 0.168744816,0.074018 0.233756336,0.074018 L2.28948906,0.074018 C2.41962615,0.074018 2.48418145,0.149384667 2.48418145,0.299778 L2.48418145,4.94497133 C2.48418145,5.475598 2.58705933,5.85889133 2.79281509,6.09553133 C2.99834274,6.332058 3.29214919,6.450378 3.67469067,6.450378 C4.04981855,6.450378 4.35263537,6.332058 4.58359735,6.09553133 C4.81433122,5.85889133 4.92986924,5.46494467 4.92986924,4.91278467 L4.92986924,0.321424667 C4.92986924,0.156411333 4.99841647,0.074018 5.13551094,0.074018 L6.75886002,0.074018 C6.8885409,0.074018 6.95355242,0.149384667 6.95355242,0.299778 L6.95355242,4.90190467 C6.95355242,6.07785133 6.65392915,6.91459133 6.05525288,7.41280467" id="Fill-47" fill="#902D9E" mask="url(#mask-9)"></path>
                    </g>
                </g>
                <path d="M52.3365325,25.978448 C52.3722318,25.9354947 52.4231005,25.9140747 52.488112,25.9140747 L58.2555463,25.9140747 C58.3856834,25.9140747 58.4502387,25.989328 58.4502387,26.1398347 L58.4397456,27.3871813 C58.4397456,27.5806413 58.3495279,27.6775413 58.1690924,27.6775413 L54.9877479,27.6775413 C54.8215694,27.6775413 54.7387652,27.7455413 54.7387652,27.8816547 L54.7387652,28.892588 C54.7387652,29.0359547 54.8036627,29.1076947 54.9336857,29.1076947 L56.9140279,29.1076947 C57.0581938,29.1076947 57.1301627,29.1793213 57.1301627,29.322688 L57.1301627,30.6345213 C57.1301627,30.756468 57.0656074,30.8172147 56.9354703,30.8172147 L54.9117871,30.8172147 C54.8614887,30.8172147 54.8198585,30.8318347 54.7873528,30.8602813 C54.754847,30.8889547 54.7387652,30.928508 54.7387652,30.9786013 L54.7387652,33.580848 C54.7387652,33.695428 54.7097952,33.776008 54.6520832,33.8227013 C54.5943712,33.8693947 54.5041535,33.892628 54.3818862,33.892628 L52.574794,33.892628 C52.4662134,33.892628 52.3907088,33.871208 52.3471396,33.8281413 C52.3040267,33.785188 52.2824703,33.7170747 52.2824703,33.6238013 L52.2824703,26.161368 C52.2824703,26.0823747 52.300377,26.0214013 52.3365325,25.978448" id="Fill-50" fill="#8B2D9B"></path>
                <path d="M59.7488952,25.978448 C59.7850507,25.9354947 59.8355772,25.9140747 59.9004747,25.9140747 L65.6683652,25.9140747 C65.7980461,25.9140747 65.8630576,25.989328 65.8630576,26.1398347 L65.8522224,27.3871813 C65.8522224,27.5806413 65.7620046,27.6775413 65.5819113,27.6775413 L62.4002247,27.6775413 C62.2343882,27.6775413 62.151356,27.7455413 62.151356,27.8816547 L62.151356,28.892588 C62.151356,29.0359547 62.2164816,29.1076947 62.3460484,29.1076947 L64.3263906,29.1076947 C64.4705565,29.1076947 64.5429816,29.1793213 64.5429816,29.322688 L64.5429816,30.6345213 C64.5429816,30.756468 64.47797,30.8172147 64.3482892,30.8172147 L62.324606,30.8172147 C62.2738514,30.8172147 62.2326774,30.8318347 62.2001717,30.8602813 C62.1676659,30.8889547 62.151356,30.928508 62.151356,30.9786013 L62.151356,33.580848 C62.151356,33.695428 62.1226141,33.776008 62.0649021,33.8227013 C62.0071901,33.8693947 61.9169724,33.892628 61.7942488,33.892628 L59.9871567,33.892628 C59.8790323,33.892628 59.8030714,33.871208 59.7599585,33.8281413 C59.7163894,33.785188 59.6948329,33.7170747 59.6948329,33.6238013 L59.6948329,26.161368 C59.6948329,26.0823747 59.7128537,26.0214013 59.7488952,25.978448" id="Fill-52" fill="#8B2D9B"></path>
                <path d="M71.462728,28.9087267 C71.6106577,28.7688733 71.6846796,28.5806267 71.6846796,28.3441 C71.6846796,28.0790133 71.5965149,27.8727467 71.4196151,27.7257533 C71.2428294,27.5789867 71.0245275,27.5055467 70.7649377,27.5055467 L69.8125759,27.5055467 C69.7187084,27.5055467 69.6541531,27.52164 69.6178835,27.5537133 C69.581728,27.5861267 69.5638213,27.6415467 69.5638213,27.72054 L69.5638213,28.89252 C69.5638213,28.9715133 69.5764815,29.0287467 69.6016877,29.0646733 C69.6267798,29.1006 69.6755955,29.1183933 69.7475644,29.1183933 L70.8298351,29.1183933 C71.10391,29.1183933 71.3147983,29.0484667 71.462728,28.9087267 M74.1518098,33.6668 C74.1518098,33.7311733 74.1318501,33.78512 74.092501,33.8281867 C74.0525817,33.87114 74.0005725,33.89256 73.9355609,33.89256 L71.8362591,33.89256 C71.6846796,33.89256 71.5875045,33.8173067 71.5440494,33.6668 L70.5266762,30.8925133 C70.5051197,30.83528 70.4689642,30.7922133 70.4186658,30.76354 C70.3681393,30.7348667 70.2921785,30.7204733 70.1914676,30.7204733 L69.6935022,30.7204733 C69.6503893,30.7204733 69.6178835,30.7348667 69.5963271,30.76354 C69.5743144,30.7922133 69.5638213,30.81726 69.5638213,30.8389067 L69.5638213,33.58078 C69.5638213,33.6954733 69.5349653,33.7760533 69.4772533,33.8226333 C69.4195414,33.8693267 69.3293236,33.89256 69.2066001,33.89256 L67.3884446,33.89256 C67.2804342,33.89256 67.2065264,33.87114 67.1670632,33.8281867 C67.1271439,33.78512 67.1071842,33.71712 67.1071842,33.6238467 L67.1071842,26.1614133 C67.1071842,25.9964 67.1759596,25.9140067 67.31294,25.9140067 L70.9271243,25.9140067 C71.9732395,25.9140067 72.7849711,26.1129067 73.3620909,26.5107067 C73.9392107,26.90862 74.2277706,27.4695067 74.2277706,28.1937067 C74.2277706,28.6882933 74.0961508,29.1290467 73.8326831,29.5161933 C73.5694434,29.9032267 73.228304,30.17568 72.8100632,30.33344 C72.7670644,30.35486 72.7450517,30.3907867 72.7450517,30.44088 C72.7450517,30.4624133 72.7524653,30.4948267 72.7670644,30.53778 L74.1302533,33.54848 C74.1449665,33.5771533 74.1518098,33.6167067 74.1518098,33.6668" id="Fill-54" fill="#8B2D9B"></path>
                <path d="M79.6489787,30.5161447 C79.7287033,30.5161447 79.7680524,30.4804447 79.7680524,30.4087113 C79.7680524,30.3944247 79.7607529,30.3586113 79.746496,30.3011513 L79.0974073,28.4624313 C79.0828082,28.4267313 79.0613658,28.4087113 79.0325098,28.4087113 C79.0035397,28.4087113 78.9815271,28.4267313 78.9673842,28.4624313 L78.3073462,30.2903847 C78.2926331,30.319058 78.2857897,30.3548713 78.2857897,30.3978247 C78.2857897,30.476818 78.3289026,30.5161447 78.4154706,30.5161447 L79.6489787,30.5161447 Z M75.2447333,33.8334113 C75.2085778,33.7939713 75.1906711,33.7385513 75.1906711,33.6668113 C75.1906711,33.616718 75.2017344,33.5591447 75.2231768,33.4947713 L77.8418865,26.1614247 C77.8781561,26.0682647 77.9179614,26.0036647 77.9609603,25.967738 C78.0045294,25.932038 78.0728485,25.914018 78.166716,25.914018 L80.2985236,25.914018 C80.3850916,25.914018 80.462307,25.940878 80.5309683,25.994598 C80.5997437,26.0485447 80.6517529,26.118358 80.6877944,26.204378 L83.2850616,33.5270713 C83.2993185,33.584418 83.3066181,33.6274847 83.3066181,33.656158 C83.3066181,33.7205313 83.2923612,33.7760647 83.2635052,33.8226447 C83.2346492,33.869338 83.1911941,33.8925713 83.1334821,33.8925713 L81.0126238,33.8925713 C80.8899003,33.8925713 80.8106319,33.8318247 80.7744764,33.7097647 L80.3525858,32.4731847 C80.3310294,32.4230913 80.3111838,32.3888647 80.293163,32.370958 C80.2749142,32.3531647 80.2406976,32.344098 80.1903992,32.344098 L77.8960628,32.344098 C77.8093808,32.344098 77.7553185,32.3837647 77.7338762,32.462418 L77.2899729,33.7311847 C77.24686,33.8388513 77.1604061,33.8925713 77.030269,33.8925713 L75.3858197,33.8925713 C75.3276515,33.8925713 75.2808888,33.8729647 75.2447333,33.8334113 L75.2447333,33.8334113 Z" id="Fill-56" fill="#8B2D9B"></path>
                <path d="M85.5307421,33.4840613 C84.957272,33.1399813 84.5133688,32.6613747 84.1996026,32.048468 C83.8858365,31.4355613 83.7288964,30.7311947 83.7288964,29.9355947 C83.7288964,29.118348 83.8947328,28.397888 84.2267478,27.774328 C84.5585347,27.1506547 85.0222835,26.666608 85.61731,26.322528 C86.2123365,25.978448 86.8923342,25.8066347 87.6568469,25.8066347 C88.2775358,25.8066347 88.8311603,25.9194013 89.3179483,26.1452747 C89.8049644,26.3710347 90.1983411,26.663208 90.4975082,27.0216813 C90.7971315,27.3801547 90.9934206,27.7599347 91.0872881,28.1613613 C91.1091868,28.2473813 91.1197939,28.315608 91.1197939,28.3657013 C91.1197939,28.430188 91.1051948,28.4731413 91.076681,28.494788 C91.047825,28.516208 91.0007202,28.5307147 90.9361649,28.5375147 L89.0855036,28.8172213 C89.005893,28.8172213 88.9553665,28.8029413 88.9339241,28.774268 C88.9123676,28.7458213 88.8908112,28.688248 88.8689126,28.602228 C88.8112006,28.2726547 88.6758169,28.001788 88.4632179,27.7904213 C88.2502766,27.5789413 87.9636556,27.4732013 87.6027847,27.4732013 C87.1772444,27.4732013 86.8544679,27.654308 86.6346833,28.0161813 C86.4143285,28.3782813 86.304151,28.996628 86.304151,29.8709947 C86.304151,30.788768 86.4232248,31.4267213 86.6614863,31.784968 C86.8996338,32.1435547 87.2422559,32.3227347 87.6893526,32.3227347 C88.2738861,32.3227347 88.663613,32.071928 88.8583054,31.5698613 L88.8908112,31.473188 L88.9123676,31.387168 C88.9123676,31.3226813 88.8725623,31.2903813 88.7931798,31.2903813 L87.7760347,31.2903813 C87.6966522,31.2903813 87.6409932,31.272588 87.6084874,31.2366613 C87.5759817,31.2009613 87.5596718,31.139988 87.5596718,31.053968 L87.5596718,30.0216147 C87.5596718,29.8997813 87.6352904,29.838808 87.7868699,29.838808 L90.8169771,29.860228 C90.9465439,29.860228 91.047825,29.8907147 91.1197939,29.9518013 C91.1917628,30.0127747 91.2279183,30.0933547 91.2279183,30.1936547 L91.2279183,33.7098213 C91.2279183,33.7601413 91.2100116,33.8030947 91.1738561,33.8387947 C91.1377006,33.8748347 91.0945877,33.8925147 91.0441752,33.8925147 L90.6327778,33.8925147 C90.5032109,33.8925147 90.3873308,33.8245147 90.2865059,33.6881747 L89.853666,33.0646147 C89.8463665,33.042968 89.8322236,33.0323147 89.8105531,33.0323147 C89.795954,33.0323147 89.7708619,33.0502213 89.7345923,33.0860347 C89.5471994,33.265328 89.3683607,33.415948 89.1988745,33.5377813 C89.0295024,33.659728 88.8042432,33.767168 88.5225266,33.8602147 C88.2413803,33.9533747 87.9059437,33.9999547 87.5162167,33.9999547 C86.7659609,33.9999547 86.1042121,33.8281413 85.5307421,33.4840613" id="Fill-58" fill="#8B2D9B"></path>
                <g filter="url(#filter-10)" id="Group-62">
                    <g transform="translate(92.498848, 25.840000)">
                        <mask id="mask-12" fill="white">
                            <use xlink:href="#path-11"></use>
                        </mask>
                        <g id="Clip-61"></g>
                        <path d="M0.287328111,0.0740293333 L6.13083733,0.0740293333 C6.2605182,0.0740293333 6.32552972,0.149396 6.32552972,0.299789333 L6.31458041,1.547136 C6.31458041,1.740596 6.22059885,1.83760933 6.03332005,1.83760933 L2.78707811,1.83760933 C2.62078548,1.83760933 2.53786728,1.90560933 2.53786728,2.04172267 L2.53786728,2.95564267 C2.53786728,3.02760933 2.55577396,3.08314267 2.59192949,3.12246933 C2.62808502,3.16190933 2.6748477,3.18162933 2.73290184,3.18162933 L4.68073825,3.18162933 C4.83231774,3.18162933 4.90793641,3.25336933 4.90793641,3.396736 L4.90793641,4.729876 C4.90793641,4.85182267 4.84281083,4.912796 4.71324401,4.912796 L2.71100323,4.912796 C2.66070484,4.912796 2.61907465,4.92718933 2.58668295,4.95586267 C2.55417719,4.984536 2.53786728,5.02034933 2.53786728,5.06330267 L2.53786728,6.13860933 C2.53786728,6.195956 2.54687765,6.23528267 2.5651265,6.25692933 C2.58303318,6.27834933 2.61713571,6.28900267 2.66789032,6.28900267 L6.18489954,6.28900267 C6.34343641,6.28900267 6.42270484,6.35722933 6.42270484,6.493456 L6.42270484,7.81616933 C6.42270484,7.887796 6.40114839,7.94514267 6.35814954,7.98820933 C6.31458041,8.03116267 6.24945484,8.05258267 6.16300092,8.05258267 L0.374010138,8.05258267 C0.265429493,8.05258267 0.189924885,8.03116267 0.14635576,7.98820933 C0.103242857,7.94514267 0.0816864055,7.87714267 0.0816864055,7.783756 L0.0816864055,0.321436 C0.0816864055,0.156422667 0.15000553,0.0740293333 0.287328111,0.0740293333" id="Fill-60" fill="#902D9E" mask="url(#mask-12)"></path>
                    </g>
                </g>
            </g>
        </g>
    </g>
</svg>