<?xml version="1.0" encoding="UTF-8"?>
<svg width="21px" height="11px" viewBox="0 0 21 11" version="1.1" xmlns="http://www.w3.org/2000/svg" xmlns:xlink="http://www.w3.org/1999/xlink">
    <title>icon/button-arrow</title>
    <g id="DPLA" stroke="none" stroke-width="1" fill="none" fill-rule="evenodd">
        <g id="5.1-Timeline---Collections---Mobile" transform="translate(-205.000000, -1418.000000)" fill="#8B2D9B">
            <g id="body" transform="translate(25.000000, 612.000000)">
                <g id="content" transform="translate(0.000000, 149.000000)">
                    <g id="button" transform="translate(0.000000, 652.000000)">
                        <path d="M194.310729,5.15558577 C193.949383,4.89264199 193.446079,4.97087986 193.183942,5.33061276 C192.920192,5.68953907 192.999236,6.19445564 193.357356,6.45739942 L197.780619,9.69338231 L180,9.69338231 L180,11.3065343 L197.825787,11.3065343 L193.361389,14.540904 C193.00085,14.8014281 192.920192,15.3063446 193.182329,15.6668841 C193.340418,15.8838531 193.586424,16 193.836462,16 C194.000197,16 194.165545,15.9499923 194.308309,15.8467506 L199.447811,12.1227892 C200.001123,11.7219209 200.318914,11.1387665 200.319888,10.523349 C200.32214,9.90793152 200.006769,9.32316392 199.455071,8.91987593 L194.310729,5.15558577 Z" id="icon/button-arrow"></path>
                    </g>
                </g>
            </g>
        </g>
    </g>
</svg>