<?xml version="1.0" standalone="no"?>
<!DOCTYPE svg PUBLIC "-//W3C//DTD SVG 20010904//EN"
 "http://www.w3.org/TR/2001/REC-SVG-20010904/DTD/svg10.dtd">
<svg version="1.0" xmlns="http://www.w3.org/2000/svg"
 width="244.000000pt" height="200.000000pt" viewBox="0 0 244.000000 200.000000"
 preserveAspectRatio="xMidYMid meet">

<g transform="translate(0.000000,200.000000) scale(0.100000,-0.100000)"
fill="#000000" stroke="none">
<path d="M0 1193 l0 -807 40 -82 c54 -111 145 -195 280 -259 l95 -45 493 0
492 0 0 104 c0 157 -34 285 -99 374 -35 47 -38 47 -116 12 -83 -37 -160 -53
-251 -54 -124 -1 -128 3 -120 114 l6 85 -40 30 c-60 46 -65 94 -11 121 24 12
15 25 -30 42 -29 11 -54 54 -45 77 3 9 22 23 41 31 51 21 45 44 -22 91 -84 56
-83 74 7 154 84 76 121 134 120 187 0 20 -1 118 -2 217 l-2 180 34 70 c19 39
49 91 67 118 l33 47 -485 0 -485 0 0 -807z"/>
<path d="M1070 1953 c0 -27 9 -88 20 -138 11 -49 29 -136 39 -192 20 -104 25
-116 142 -328 79 -142 156 -246 300 -406 53 -59 117 -136 144 -170 114 -153
179 -367 173 -574 -2 -60 -7 -118 -12 -128 -7 -15 -2 -17 50 -17 199 1 367
103 449 274 49 101 65 164 65 255 0 149 -68 310 -177 418 l-63 62 34 26 c41
31 116 125 144 181 79 156 81 356 6 507 -33 64 -151 182 -223 221 -101 54
-116 56 -623 56 l-468 0 0 -47z"/>
</g>
</svg>
