<?xml version="1.0" encoding="UTF-8"?>
<svg width="14px" height="14px" viewBox="0 0 14 14" version="1.1" xmlns="http://www.w3.org/2000/svg" xmlns:xlink="http://www.w3.org/1999/xlink">
    <title>icon/search/icon-search-result-view</title>
    <g id="DPLA" stroke="none" stroke-width="1" fill="none" fill-rule="evenodd">
        <g id="8.0.0-Search-Discovery" transform="translate(-847.000000, -3757.000000)" fill="#8B2D9B" fill-rule="nonzero" stroke="#8B2D9B" stroke-width="0.75">
            <g id="section" transform="translate(480.000000, 202.000000)">
                <g id="results" transform="translate(0.000000, 68.000000)">
                    <g id="result" transform="translate(0.000000, 3417.000000)">
                        <g id="content" transform="translate(260.000000, 6.000000)">
                            <g id="link" transform="translate(0.000000, 62.000000)">
                                <path d="M119.98036,3.35351882 L119.98036,6.61374795 C119.98036,6.8101473 119.823241,6.94762684 119.646481,6.94762684 C119.450082,6.94762684 119.312602,6.79050736 119.312602,6.61374795 L119.312602,4.17839607 L114.0491,9.44189853 C113.99018,9.50081833 113.89198,9.5400982 113.813421,9.5400982 C113.734861,9.5400982 113.636661,9.50081833 113.577741,9.44189853 C113.440262,9.30441899 113.440262,9.08837971 113.577741,8.95090016 L118.841244,3.68739771 L116.405892,3.68739771 C116.209493,3.68739771 116.072013,3.53027823 116.072013,3.35351882 C116.072013,3.15711948 116.229133,3.01963993 116.405892,3.01963993 L119.666121,3.01963993 C119.823241,3 119.98036,3.15711948 119.98036,3.35351882 Z M119.626841,8.85270049 C119.430442,8.85270049 119.292962,9.00981997 119.292962,9.18657938 L119.292962,12.5057283 C119.292962,13.487725 118.487725,14.2929624 117.505728,14.2929624 L110.474632,14.2929624 C109.492635,14.2929624 108.687398,13.487725 108.687398,12.5057283 L108.687398,6.90834697 L108.687398,5.45499182 C108.687398,4.47299509 109.492635,3.66775777 110.474632,3.66775777 L113.754501,3.66775777 C113.9509,3.66775777 114.08838,3.5106383 114.08838,3.33387889 C114.08838,3.13747954 113.93126,3 113.754501,3 L110.474632,3 C109.119476,3 108,4.09983633 108,5.47463175 L108,6.92798691 L108,12.5253682 C108,13.8805237 109.099836,15 110.474632,15 L117.505728,15 C118.860884,15 119.98036,13.9001637 119.98036,12.5253682 L119.98036,9.20621931 C119.98036,9.00981997 119.823241,8.85270049 119.626841,8.85270049 Z" id="icon/search/icon-search-result-view"></path>
                            </g>
                        </g>
                    </g>
                </g>
            </g>
        </g>
    </g>
</svg>