<?xml version="1.0" encoding="UTF-8"?>
<svg width="20px" height="20px" viewBox="0 0 20 20" version="1.1" xmlns="http://www.w3.org/2000/svg" xmlns:xlink="http://www.w3.org/1999/xlink">
    <title>icon/search/icon-search-view-list-selected</title>
    <g id="DPLA" stroke="none" stroke-width="1" fill="none" fill-rule="evenodd">
        <g id="8.0.1-Search-Discovery---Filters" transform="translate(-1246.000000, -252.000000)" fill="#8B2D9B" fill-rule="nonzero">
            <g id="section" transform="translate(480.000000, 245.000000)">
                <g id="list" transform="translate(761.000000, 2.000000)">
                    <path d="M10.2830189,16.6959064 C11.9375907,16.6959064 13.2728592,18.0409357 13.2728592,19.7076023 L13.2728592,22.0175439 C13.2438316,23.6549708 11.9085631,25 10.2539913,25 L7.96081277,25 C6.33526851,25 5,23.6549708 5,22.0175439 L5,19.7076023 C5,18.0409357 6.33526851,16.6959064 7.98984035,16.6959064 L10.2830189,16.6959064 Z M24.4654328,22.0760234 C24.7505353,22.0760234 25,22.4561404 25,22.9532164 C24.9821811,23.4502924 24.7505353,23.8304094 24.4654328,23.8304094 L16.5360186,23.8304094 C16.2509161,23.8304094 16.0014514,23.4502924 16.0014514,22.9532164 C16.0014514,22.4853801 16.2330972,22.0760234 16.5360186,22.0760234 L24.4654328,22.0760234 Z M10.2830189,18.4502924 L7.98984035,18.4502924 C7.29317852,18.4502924 6.74165457,19.0350877 6.74165457,19.7076023 L6.74165457,22.0175439 C6.74165457,22.7192982 7.3222061,23.2748538 7.98984035,23.2748538 L10.2830189,23.2748538 C10.9796807,23.2748538 11.5602322,22.6900585 11.5602322,22.0175439 L11.5602322,19.7076023 C11.5602322,19.005848 10.9796807,18.4502924 10.2830189,18.4502924 Z M24.4622381,17.8654971 C24.7490445,17.8654971 25,18.245614 25,18.7426901 C25,19.2105263 24.7669699,19.619883 24.4622381,19.619883 L16.5392132,19.619883 C16.2524069,19.619883 16.0014514,19.2397661 16.0014514,18.7426901 C16.0014514,18.2748538 16.2344815,17.8654971 16.5392132,17.8654971 L24.4622381,17.8654971 Z M10.2830189,5 C11.9375907,5 13.2728592,6.34502924 13.2728592,8.01169591 L13.2728592,10.3216374 C13.2438316,11.9883041 11.9085631,13.3333333 10.2539913,13.3333333 L7.96081277,13.3333333 C6.33526851,13.3333333 5,11.9883041 5,10.3216374 L5,8.01169591 C5,6.34502924 6.33526851,5 7.98984035,5 L10.2830189,5 Z M24.4654328,10.4093567 C24.7505353,10.4093567 25,10.7894737 25,11.2865497 C24.9821811,11.7836257 24.7505353,12.1637427 24.4654328,12.1637427 L16.5360186,12.1637427 C16.2509161,12.1637427 16.0014514,11.7836257 16.0014514,11.2865497 C16.0014514,10.8187135 16.2330972,10.4093567 16.5360186,10.4093567 L24.4654328,10.4093567 Z M10.2830189,6.75438596 L7.98984035,6.75438596 C7.29317852,6.75438596 6.74165457,7.33918129 6.74165457,8.01169591 L6.74165457,10.3216374 C6.74165457,11.0233918 7.3222061,11.5789474 7.98984035,11.5789474 L10.2830189,11.5789474 C10.9796807,11.5789474 11.5602322,10.994152 11.5602322,10.3216374 L11.5602322,8.01169591 C11.5602322,7.30994152 10.9796807,6.75438596 10.2830189,6.75438596 Z M24.4622381,6.16959064 C24.7490445,6.16959064 25,6.5497076 25,7.04678363 C25,7.54385965 24.7669699,7.92397661 24.4622381,7.92397661 L16.5392132,7.92397661 C16.2524069,7.92397661 16.0014514,7.54385965 16.0014514,7.04678363 C16.0014514,6.57894737 16.2344815,6.16959064 16.5392132,6.16959064 L24.4622381,6.16959064 Z" id="icon/search/icon-search-view-list-selected"></path>
                </g>
            </g>
        </g>
    </g>
</svg>