<?xml version="1.0" encoding="UTF-8"?>
<svg width="21px" height="20px" viewBox="0 0 21 20" version="1.1" xmlns="http://www.w3.org/2000/svg" xmlns:xlink="http://www.w3.org/1999/xlink">
    <title>icon/search/icon-search-view-grid-inactive</title>
    <g id="DPLA" stroke="none" stroke-width="1" fill="none" fill-rule="evenodd" opacity="0.454915365">
        <g id="8.0.1-Search-Discovery---Filters" transform="translate(-1284.000000, -252.000000)" fill="#282830" fill-rule="nonzero">
            <g id="section" transform="translate(480.000000, 245.000000)">
                <g id="view" transform="translate(761.000000, 2.000000)">
                    <g id="grid" transform="translate(38.812500, 0.000000)">
                        <path d="M10.3138686,16.6959064 C11.9781022,16.6959064 13.3211679,18.0409357 13.3211679,19.7076023 L13.3211679,22.0175439 C13.2919708,23.6549708 11.9489051,25 10.2846715,25 L7.97810219,25 C6.34306569,25 5,23.6549708 5,22.0175439 L5,19.7076023 C5,18.0409357 6.34306569,16.6959064 8.00729927,16.6959064 L10.3138686,16.6959064 Z M21.9927007,16.6959064 C23.6569343,16.6959064 25,18.0409357 25,19.7076023 L25,22.0175439 C24.9708029,23.6549708 23.6277372,25 21.9635036,25 L19.6569343,25 C18.0218978,25 16.6788321,23.6549708 16.6788321,22.0175439 L16.6788321,19.7076023 C16.6788321,18.0409357 18.0218978,16.6959064 19.6861314,16.6959064 L21.9927007,16.6959064 Z M10.3138686,18.4502924 L8.00729927,18.4502924 C7.30656934,18.4502924 6.75182482,19.0350877 6.75182482,19.7076023 L6.75182482,22.0175439 C6.75182482,22.7192982 7.33576642,23.2748538 8.00729927,23.2748538 L10.3138686,23.2748538 C11.0145985,23.2748538 11.5985401,22.6900585 11.5985401,22.0175439 L11.5985401,19.7076023 C11.5985401,19.005848 11.0145985,18.4502924 10.3138686,18.4502924 Z M21.9927007,18.4502924 L19.6861314,18.4502924 C18.9854015,18.4502924 18.4306569,19.0350877 18.4306569,19.7076023 L18.4306569,22.0175439 C18.4306569,22.7192982 19.0145985,23.2748538 19.6861314,23.2748538 L21.9927007,23.2748538 C22.6934307,23.2748538 23.2773723,22.6900585 23.2773723,22.0175439 L23.2773723,19.7076023 C23.2773723,19.005848 22.6934307,18.4502924 21.9927007,18.4502924 Z M10.3138686,5 C11.9781022,5 13.3211679,6.34502924 13.3211679,8.01169591 L13.3211679,10.3216374 C13.2919708,11.9883041 11.9489051,13.3333333 10.2846715,13.3333333 L7.97810219,13.3333333 C6.34306569,13.3333333 5,11.9883041 5,10.3216374 L5,8.01169591 C5,6.34502924 6.34306569,5 8.00729927,5 L10.3138686,5 Z M21.9927007,5 C23.6569343,5 25,6.34502924 25,8.01169591 L25,10.3216374 C24.9708029,11.9883041 23.6277372,13.3333333 21.9635036,13.3333333 L19.6569343,13.3333333 C18.0218978,13.3333333 16.6788321,11.9883041 16.6788321,10.3216374 L16.6788321,8.01169591 C16.6788321,6.34502924 18.0218978,5 19.6861314,5 L21.9927007,5 Z M10.3138686,6.75438596 L8.00729927,6.75438596 C7.30656934,6.75438596 6.75182482,7.33918129 6.75182482,8.01169591 L6.75182482,10.3216374 C6.75182482,11.0233918 7.33576642,11.5789474 8.00729927,11.5789474 L10.3138686,11.5789474 C11.0145985,11.5789474 11.5985401,10.994152 11.5985401,10.3216374 L11.5985401,8.01169591 C11.5985401,7.30994152 11.0145985,6.75438596 10.3138686,6.75438596 Z M21.9927007,6.75438596 L19.6861314,6.75438596 C18.9854015,6.75438596 18.4306569,7.33918129 18.4306569,8.01169591 L18.4306569,10.3216374 C18.4306569,11.0233918 19.0145985,11.5789474 19.6861314,11.5789474 L21.9927007,11.5789474 C22.6934307,11.5789474 23.2773723,10.994152 23.2773723,10.3216374 L23.2773723,8.01169591 C23.2773723,7.30994152 22.6934307,6.75438596 21.9927007,6.75438596 Z" id="icon/search/icon-search-view-grid-inactive"></path>
                    </g>
                </g>
            </g>
        </g>
    </g>
</svg>