<?xml version="1.0" encoding="UTF-8"?>
<svg width="19px" height="19px" viewBox="0 0 19 19" version="1.1" xmlns="http://www.w3.org/2000/svg" xmlns:xlink="http://www.w3.org/1999/xlink">
    <title>icon/search/search-bar</title>
    <g id="DPLA" stroke="none" stroke-width="1" fill="none" fill-rule="evenodd" opacity="0.6">
        <g id="1.0-Home" transform="translate(-422.000000, -472.000000)" fill="#282830" stroke="#282830" stroke-width="1.25">
            <g id="search" transform="translate(403.000000, 451.000000)">
                <path d="M27.2482583,35.9720102 C25.453093,35.9720102 23.7660701,35.2798982 22.5116171,34.0038168 C19.8945688,31.3867684 19.8945688,27.1259542 22.5116171,24.5305344 C23.7876985,23.2544529 25.453093,22.562341 27.2482583,22.562341 C29.0434237,22.562341 30.7306629,23.2544529 31.9848996,24.5305344 C34.6019479,27.1475827 34.6019479,31.4083969 31.9848996,34.0038168 C30.7306629,35.2798982 29.0434237,35.9720102 27.2482583,35.9720102 M36.8947851,38.5025445 L32.5904975,34.1984733 C35.2291744,31.3435115 35.1645052,26.9096692 32.395841,24.1195929 C30.9683601,22.692112 29.1085255,22 27.2698868,22 C25.4314645,22 23.5497851,22.7137405 22.1439326,24.1195929 C19.2889708,26.9745547 19.2889708,31.5814249 22.1223041,34.4147583 C23.5497851,35.8422392 25.409836,36.5345674 27.2482583,36.5345674 C29.0217952,36.5345674 30.7953321,35.8857125 32.1795561,34.6094148 L36.4836273,38.9137023 C36.5485128,38.9783715 36.6133983,39 36.6785001,39 C36.7431693,39 36.8296833,38.9783715 36.8729403,38.9137023 C37.0029276,38.8055598 37.0029276,38.610687 36.8947851,38.5025445" id="icon/search/search-bar"></path>
            </g>
        </g>
    </g>
</svg>