<?xml version="1.0" encoding="UTF-8"?>
<svg width="23px" height="23px" viewBox="0 0 23 23" version="1.1" xmlns="http://www.w3.org/2000/svg" xmlns:xlink="http://www.w3.org/1999/xlink">
    <title>icon/search/search-nav</title>
    <g id="DPLA" stroke="none" stroke-width="1" fill="none" fill-rule="evenodd" opacity="0.6">
        <g id="8.0.1-Search-Discovery---Filters" transform="translate(-1393.000000, -26.000000)" fill="#282830" stroke="#282830" stroke-width="1.25">
            <g id="global/nav" transform="translate(0.000000, 0.000000)">
                <g id="links" transform="translate(726.000000, 20.000000)">
                    <path d="M676.96779,24.259542 C674.74675,24.259542 672.659509,23.4045802 671.107457,21.8282443 C667.869557,18.5954198 667.869557,13.3320611 671.107457,10.1259542 C672.686268,8.54961832 674.74675,7.69465649 676.96779,7.69465649 C679.188829,7.69465649 681.276338,8.54961832 682.828122,10.1259542 C686.066022,13.3587786 686.066022,18.6221374 682.828122,21.8282443 C681.276338,23.4045802 679.188829,24.259542 676.96779,24.259542 M688.902797,27.3854962 L683.577388,22.0687023 C686.842048,18.5419847 686.762037,13.0648855 683.336552,9.61832061 C681.570425,7.85496183 679.269375,7 676.994549,7 C674.719991,7 672.391914,7.88167939 670.652546,9.61832061 C667.120291,13.1450382 667.120291,18.8358779 670.625786,22.3358779 C672.391914,24.0992366 674.693231,24.9544656 676.96779,24.9544656 C679.162069,24.9544656 681.356349,24.1529389 683.068957,22.5763359 L688.394099,27.8933969 C688.474378,27.9732824 688.554656,28 688.635202,28 C688.715213,28 688.822251,27.9732824 688.87577,27.8933969 C689.036595,27.7598092 689.036595,27.519084 688.902797,27.3854962" id="icon/search/search-nav"></path>
                </g>
            </g>
        </g>
    </g>
</svg>