<?xml version="1.0" encoding="UTF-8"?>
<svg width="19px" height="19px" viewBox="0 0 19 19" version="1.1" xmlns="http://www.w3.org/2000/svg" xmlns:xlink="http://www.w3.org/1999/xlink">
    <title>icon/search/search-bar</title>
    <g id="DPLA" stroke="none" stroke-width="1" fill="none" fill-rule="evenodd" opacity="0.6">
        <g id="0.0-Search" transform="translate(-129.000000, -27.000000)" fill="#282830" stroke="#282830" stroke-width="1.25">
            <g id="search" transform="translate(130.000000, 11.000000)">
                <path d="M7.24825835,30.9720102 C5.45309295,30.9720102 3.76607005,30.2798982 2.51161712,29.0038168 C-0.105431222,26.3867684 -0.105431222,22.1259542 2.51161712,19.5305344 C3.78769855,18.2544529 5.45309295,17.562341 7.24825835,17.562341 C9.04342374,17.562341 10.7306629,18.2544529 11.9848996,19.5305344 C14.6019479,22.1475827 14.6019479,26.4083969 11.9848996,29.0038168 C10.7306629,30.2798982 9.04342374,30.9720102 7.24825835,30.9720102 M16.8947851,33.5025445 L12.5904975,29.1984733 C15.2291744,26.3435115 15.1645052,21.9096692 12.395841,19.1195929 C10.9683601,17.692112 9.10852552,17 7.26988684,17 C5.43146445,17 3.54978506,17.7137405 2.14393265,19.1195929 C-0.711029186,21.9745547 -0.711029186,26.5814249 2.12230415,29.4147583 C3.54978506,30.8422392 5.40983595,31.5345674 7.24825835,31.5345674 C9.02179524,31.5345674 10.7953321,30.8857125 12.1795561,29.6094148 L16.4836273,33.9137023 C16.5485128,33.9783715 16.6133983,34 16.6785001,34 C16.7431693,34 16.8296833,33.9783715 16.8729403,33.9137023 C17.0029276,33.8055598 17.0029276,33.610687 16.8947851,33.5025445" id="icon/search/search-bar"></path>
            </g>
        </g>
    </g>
</svg>