<?xml version="1.0" encoding="UTF-8"?>
<svg width="24px" height="13px" viewBox="0 0 24 13" version="1.1" xmlns="http://www.w3.org/2000/svg" xmlns:xlink="http://www.w3.org/1999/xlink">
    <title>icon/carousel/corousel-arrow-right</title>
    <g id="DPLA" stroke="none" stroke-width="1" fill="none" fill-rule="evenodd">
        <g id="1.0-Home" transform="translate(-148.000000, -2278.000000)" fill="#FFFFFF">
            <g id="section" transform="translate(130.000000, 1764.000000)">
                <g id="button-right" transform="translate(0.000000, 490.000000)">
                    <path d="M34.9025287,24.1837637 C34.4757397,23.8731985 33.8812836,23.9656059 33.571671,24.3904897 C33.2601531,24.8144207 33.3535132,25.4107821 33.7764916,25.7213474 L39.0008464,29.5433954 L18,29.5433954 L18,31.4487035 L39.054195,31.4487035 L33.7812549,35.2688462 C33.3554185,35.5765535 33.2601531,36.1729149 33.5697657,36.5987513 C33.7564859,36.8550152 34.0470454,36.9921974 34.3423681,36.9921974 C34.5357569,36.9921974 34.731051,36.9331329 34.8996707,36.8111932 L40.9699823,32.4127894 C41.623503,31.9393203 41.9988487,31.2505515 42,30.5236764 C42.0026593,29.7968014 41.6301716,29.1061272 40.9785562,28.6298002 L34.9025287,24.1837637 Z" id="icon/carousel/corousel-arrow-right"></path>
                </g>
            </g>
        </g>
    </g>
</svg>