<?xml version="1.0" encoding="UTF-8"?>
<svg width="23px" height="23px" viewBox="0 0 23 23" version="1.1" xmlns="http://www.w3.org/2000/svg" xmlns:xlink="http://www.w3.org/1999/xlink">
    <title>icon/search/search-nav</title>
    <g id="DPLA" stroke="none" stroke-width="1" fill="none" fill-rule="evenodd" opacity="0.6">
        <g id="1.0-Home" transform="translate(-1393.000000, -26.000000)" fill="#282830" stroke="#282830" stroke-width="1.25">
            <g id="global/nav">
                <path d="M1402.96779,44.259542 C1400.74675,44.259542 1398.65951,43.4045802 1397.10746,41.8282443 C1393.86956,38.5954198 1393.86956,33.3320611 1397.10746,30.1259542 C1398.68627,28.5496183 1400.74675,27.6946565 1402.96779,27.6946565 C1405.18883,27.6946565 1407.27634,28.5496183 1408.82812,30.1259542 C1412.06602,33.3587786 1412.06602,38.6221374 1408.82812,41.8282443 C1407.27634,43.4045802 1405.18883,44.259542 1402.96779,44.259542 M1414.9028,47.3854962 L1409.57739,42.0687023 C1412.84205,38.5419847 1412.76204,33.0648855 1409.33655,29.6183206 C1407.57042,27.8549618 1405.26937,27 1402.99455,27 C1400.71999,27 1398.39191,27.8816794 1396.65255,29.6183206 C1393.12029,33.1450382 1393.12029,38.8358779 1396.62579,42.3358779 C1398.39191,44.0992366 1400.69323,44.9544656 1402.96779,44.9544656 C1405.16207,44.9544656 1407.35635,44.1529389 1409.06896,42.5763359 L1414.3941,47.8933969 C1414.47438,47.9732824 1414.55466,48 1414.6352,48 C1414.71521,48 1414.82225,47.9732824 1414.87577,47.8933969 C1415.0366,47.7598092 1415.0366,47.519084 1414.9028,47.3854962" id="icon/search/search-nav"></path>
            </g>
        </g>
    </g>
</svg>