<?xml version="1.0" encoding="UTF-8"?>
<svg width="725px" height="435px" viewBox="0 0 725 435" version="1.1" xmlns="http://www.w3.org/2000/svg" xmlns:xlink="http://www.w3.org/1999/xlink">
    <title>graphic/home/home-graphic-hero</title>
    <g id="DPLA" stroke="none" stroke-width="1" fill="none" fill-rule="evenodd">
        <g id="1.0-Home" transform="translate(-715.000000, -76.000000)">
            <g id="hero" transform="translate(0.000000, 76.000000)">
                <g id="graphic/home/home-graphic-hero" transform="translate(715.000000, 0.000000)">
                    <path d="M145,217.5 C145,257.540714 112.540714,290 72.5,290 C32.4592857,290 0,257.540714 0,217.5 C0,177.459286 32.4592857,145 72.5,145 C112.540714,145 145,177.459286 145,217.5" id="Fill-1" fill="#FEDFDF"></path>
                    <path d="M290,72.5 C290,112.540714 257.540714,145 217.5,145 C177.459286,145 145,112.540714 145,72.5 C145,32.4592857 177.459286,0 217.5,0 C257.540714,0 290,32.4592857 290,72.5" id="Fill-3" fill="#F48C8C"></path>
                    <path d="M580,362.5 C580,402.540714 547.540714,435 507.5,435 C467.459286,435 435,402.540714 435,362.5 C435,322.459286 467.459286,290 507.5,290 C547.540714,290 580,322.459286 580,362.5" id="Fill-5" fill="#FEDFDF"></path>
                    <path d="M145,435 L0,435 C0,354.918571 64.9185714,290 145,290 L145,290 L145,435 Z" id="Fill-7" fill="#8B2D9B"></path>
                    <path d="M0,0 L145,0 L145,0 C145,80.0814286 80.0814286,145 0,145 L0,0 Z" id="Fill-9" fill="#BFCADD"></path>
                    <path d="M725,145 L725,0 C644.918571,0 580,64.9185714 580,145 L725,145 Z" id="Fill-11" fill="#4E4294"></path>
                    <path d="M435,145 L580,145 C580,64.9185714 515.081429,0 435,0 L435,0 L435,145 Z" id="Fill-13" fill="#CBCBD4"></path>
                    <path d="M435,145 L435,0 C354.918571,0 290,64.9185714 290,145 L435,145 Z" id="Fill-15" fill="#FEDFDF"></path>
                    <path d="M580,145 L725,145 C725,225.081429 660.081429,290 580,290 L580,145 Z" id="Fill-17" fill="#2F043E"></path>
                    <path d="M580,145 L435,145 C435,225.081429 499.918571,290 580,290 L580,145 Z" id="Fill-19" fill="#8B2D9B"></path>
                    <path d="M725,290 L725,435 C644.918571,435 580,370.081429 580,290 L725,290 Z" id="Fill-21" fill="#CBCBD4"></path>
                    <path d="M290,290 L290,435 C209.918571,435 145,370.081429 145,290 L290,290 Z" id="Fill-23" fill="#EC5938"></path>
                    <path d="M290,290 L290,145 C209.918571,145 145,209.918571 145,290 L290,290 Z" id="Fill-25" fill="#EC5938"></path>
                    <path d="M290,435 L435,435 C435,354.918571 370.081429,290 290,290 L290,290 L290,435 Z" id="Fill-27" fill="#BFCADD"></path>
                    <path d="M290,145 L435,145 C435,225.081429 370.081429,290 290,290 L290,290 L290,145 Z" id="Fill-29" fill="#F48C8C"></path>
                </g>
            </g>
        </g>
    </g>
</svg>