<?xml version="1.0" encoding="UTF-8"?>
<svg width="300px" height="300px" viewBox="0 0 300 300" version="1.1" xmlns="http://www.w3.org/2000/svg" xmlns:xlink="http://www.w3.org/1999/xlink">
    <title>mobile/graphic/about/about-graphic-body-2-mobile</title>
    <g id="DPLA" stroke="none" stroke-width="1" fill="none" fill-rule="evenodd">
        <g id="2.1-About---Mobile" transform="translate(-123.000000, -3608.000000)">
            <g id="section" transform="translate(0.000000, 2471.000000)">
                <g id="mobile/graphic/about/about-graphic-body-2-mobile" transform="translate(123.000000, 1137.000000)">
                    <path d="M95.6043956,252.197802 C95.6043956,278.598273 74.2026688,300 47.8021978,300 C21.4017268,300 0,278.598273 0,252.197802 C0,225.797331 21.4017268,204.395604 47.8021978,204.395604 C74.2026688,204.395604 95.6043956,225.797331 95.6043956,252.197802" id="Fill-5" fill="#8B2D9B"></path>
                    <path d="M299.604396,47.8021978 C299.604396,74.2026688 278.202669,95.6043956 251.802198,95.6043956 C225.401727,95.6043956 204,74.2026688 204,47.8021978 C204,21.4017268 225.401727,0 251.802198,0 C278.202669,0 299.604396,21.4017268 299.604396,47.8021978" id="Fill-5-Copy-2" fill="#FFD2D2"></path>
                    <path d="M197.802198,150 C197.802198,176.400471 176.400471,197.802198 150,197.802198 C123.599529,197.802198 102.197802,176.400471 102.197802,150 C102.197802,123.599529 123.599529,102.197802 150,102.197802 C176.400471,102.197802 197.802198,123.599529 197.802198,150" id="Fill-5-Copy-3" fill="#F18787"></path>
                    <path d="M299.604396,251.802198 C299.604396,278.202669 278.202669,299.604396 251.802198,299.604396 C225.401727,299.604396 204,278.202669 204,251.802198 C204,225.401727 225.401727,204 251.802198,204 C278.202669,204 299.604396,225.401727 299.604396,251.802198" id="Fill-5-Copy" fill="#2F043E"></path>
                </g>
            </g>
        </g>
    </g>
</svg>