<?xml version="1.0" encoding="UTF-8"?>
<svg width="131px" height="46px" viewBox="0 0 131 46" version="1.1" xmlns="http://www.w3.org/2000/svg" xmlns:xlink="http://www.w3.org/1999/xlink">
    <title>logo/dpla_bws-logo-white-footer</title>
    <defs>
        <polygon id="path-1" points="0 0 22.1332187 0 22.1332187 31.7157075 0 31.7157075"></polygon>
        <polygon id="path-3" points="0.171945 0.1807425 9.43677 0.1807425 9.43677 11.025 0.171945 11.025"></polygon>
        <polygon id="path-5" points="0.049365 0.180765 9.91179 0.180765 9.91179 11.025 0.049365 11.025"></polygon>
    </defs>
    <g id="DPLA" stroke="none" stroke-width="1" fill="none" fill-rule="evenodd">
        <g id="1.0-Home" transform="translate(-50.000000, -3014.000000)">
            <g id="global/footer" transform="translate(0.000000, 2710.000000)">
                <g id="logo/dpla_bws-logo-white-footer" transform="translate(50.000000, 304.000000)">
                    <g transform="translate(0.000000, 0.000000)">
                        <path d="M15.464025,39.21174 C15.464025,38.21094 15.242625,37.891665 14.577075,37.891665 L14.112,37.891665 L14.112,40.546215 L14.577075,40.546215 C15.236325,40.546215 15.464025,40.212315 15.464025,39.21174" id="Fill-1" fill="#FFFFFF"></path>
                        <path d="M12.248325,37.68795 C12.242925,37.611225 12.30075,37.5444 12.3777,37.539 C12.378375,37.539 12.37905,37.539 12.379725,37.538775 C12.677175,37.574775 12.976875,37.5894 13.27635,37.5822 L13.715775,37.5822 C14.1552,37.5741 14.286825,37.564425 14.718375,37.564425 C15.99165,37.564425 16.67655,38.214 16.67655,39.2085 C16.67655,40.203 15.99165,40.86045 14.718375,40.86045 L14.112,40.86045 L14.112,42.93585 C14.54175,42.93585 14.62995,42.92775 14.718375,42.92775 C14.798475,42.9363 14.8572,43.00785 14.849775,43.088175 C14.855175,43.165125 14.79735,43.231725 14.7204,43.237125 C14.719725,43.23735 14.718825,43.23735 14.718375,43.23735 C14.4207,43.201575 14.121225,43.18695 13.82175,43.19415 L13.27635,43.19415 C12.976875,43.18695 12.677175,43.201575 12.379725,43.23735 C12.30525,43.236 12.246075,43.174575 12.24765,43.100325 C12.24765,43.09605 12.247875,43.092225 12.248325,43.088175 C12.238425,43.009875 12.293775,42.93855 12.37185,42.92865 C12.37455,42.9282 12.37725,42.927975 12.379725,42.92775 C12.46815,42.92775 12.55635,42.93585 12.978,42.93585 L12.978,37.8405 C12.55635,37.8405 12.46815,37.848375 12.379725,37.848375 C12.3012,37.84275 12.242025,37.774575 12.24765,37.695825 C12.24765,37.693125 12.2481,37.69065 12.248325,37.68795 L12.248325,37.68795 Z M9.81045,45 L19.026225,45 L19.026225,35.784225 L9.81045,35.784225 L9.81045,45 Z" id="Fill-3" fill="#FFFFFF"></path>
                        <path d="M6.240555,40.387275 C6.240555,38.507625 5.77548,37.891575 4.923855,37.891575 C4.43133,37.891575 3.991905,37.90935 3.991905,37.90935 L3.991905,42.8652 C3.991905,42.8652 4.386555,42.882975 4.923855,42.882975 C5.77548,42.882975 6.240555,42.266925 6.240555,40.387275" id="Fill-5" fill="#FFFFFF"></path>
                        <path d="M2.2597875,37.84833 C2.1812625,37.84293 2.1220875,37.77453 2.1277125,37.69578 C2.1277125,37.693305 2.1279375,37.690605 2.1283875,37.687905 C2.1229875,37.61118 2.1808125,37.544355 2.2577625,37.538955 C2.2584375,37.538955 2.2591125,37.538955 2.2597875,37.53873 C2.5572375,37.574505 2.8569375,37.58913 3.1564125,37.582155 L3.5958375,37.582155 C4.2807375,37.582155 4.7377125,37.556505 5.1339375,37.556505 C6.4074375,37.556505 7.4980125,38.690505 7.4980125,40.385655 C7.4980125,42.08103 6.4074375,43.224705 5.1323625,43.224705 C4.7458125,43.224705 4.3160625,43.189155 3.5942625,43.189155 L3.1564125,43.189155 C2.8569375,43.18218 2.5572375,43.196805 2.2597875,43.23258 L2.2597875,43.234155 C2.1853125,43.232805 2.1263625,43.17138 2.1277125,43.096905 C2.1277125,43.09308 2.1279375,43.08903 2.1283875,43.08498 C2.1184875,43.006905 2.1738375,42.93513 2.2519125,42.92523 C2.2546125,42.92478 2.2570875,42.92478 2.2597875,42.92478 C2.3479875,42.92478 2.4361875,42.932655 2.8580625,42.932655 L2.8580625,37.840455 C2.4361875,37.840455 2.3495625,37.84833 2.2597875,37.84833 L2.2597875,37.84833 Z M0.0001125,44.999955 L9.2158875,44.999955 L9.2158875,35.78418 L0.0001125,35.78418 L0.0001125,44.999955 Z" id="Fill-7" fill="#FFFFFF"></path>
                        <path d="M22.00419,37.68795 C21.99879,37.611 22.056615,37.5444 22.133565,37.539 L22.13559,37.539 C22.43304,37.574775 22.73274,37.589175 23.032215,37.5822 L23.577615,37.5822 C23.87709,37.589175 24.17679,37.57455 24.47424,37.539 C24.55029,37.546425 24.607665,37.61145 24.60564,37.68795 C24.613065,37.7685 24.554565,37.84005 24.47424,37.848375 C24.385815,37.848375 24.297615,37.8405 23.867865,37.8405 L23.867865,42.882975 L25.229565,42.882975 L25.23114,42.882975 C25.888815,42.882975 26.110215,42.4611 26.110215,41.760225 C26.118315,41.682825 26.18784,41.626575 26.265465,41.6349 C26.33139,41.641875 26.38359,41.6943 26.39079,41.760225 C26.39079,41.848425 26.347365,42.462675 26.347365,42.823575 L26.347365,43.096275 C26.352765,43.173225 26.29494,43.239825 26.21799,43.245225 L26.21439,43.245225 C26.13564,43.245225 25.863165,43.210125 25.721865,43.210125 L23.25204,43.192575 L23.032215,43.192575 C22.73274,43.1856 22.43304,43.2 22.13559,43.235775 C22.06134,43.234425 22.002165,43.173 22.003515,43.09875 C22.003515,43.094475 22.00374,43.09065 22.00419,43.0866 C21.99429,43.0083 22.04964,42.936975 22.127715,42.92685 L22.13559,42.926175 C22.224015,42.926175 22.312215,42.93405 22.733865,42.93405 L22.733865,37.8405 C22.312215,37.8405 22.224015,37.848375 22.13559,37.848375 C22.057065,37.84275 21.99789,37.774575 22.003515,37.695825 C22.00374,37.693125 22.003965,37.69065 22.00419,37.68795 L22.00419,37.68795 Z M19.62099,45 L28.83654,45 L28.83654,35.784225 L19.62099,35.784225 L19.62099,45 Z" id="Fill-9" fill="#FFFFFF"></path>
                        <path d="M37.105785,43.0881525 C37.113885,43.1621775 37.060335,43.2285525 36.98631,43.2366525 C36.98226,43.2368775 36.97821,43.2373275 36.974385,43.2373275 C36.676935,43.2015525 36.377235,43.1869275 36.07776,43.1941275 L35.48916,43.1941275 C35.18946,43.1869275 34.889985,43.2015525 34.592535,43.2373275 C34.515585,43.2332775 34.456635,43.1673525 34.46091,43.0904025 C34.46091,43.0897275 34.46091,43.0888275 34.461135,43.0881525 C34.454385,43.0080525 34.51266,42.9369525 34.592535,42.9277275 C34.680735,42.9277275 34.76736,42.9358275 35.181135,42.9358275 L34.61031,41.4330525 L32.81391,41.4330525 L32.215635,42.9358275 L32.278185,42.9358275 C32.70006,42.9358275 32.733585,42.9277275 32.82336,42.9277275 C32.90391,42.9362775 32.96241,43.0078275 32.954985,43.0881525 C32.960385,43.1651025 32.90256,43.2317025 32.82561,43.2371025 C32.824935,43.2373275 32.82426,43.2373275 32.82336,43.2373275 C32.576085,43.2015525 32.325885,43.1869275 32.076135,43.1941275 L32.032935,43.1941275 C31.78611,43.1860275 31.53906,43.2004275 31.294935,43.2373275 C31.21821,43.2332775 31.159035,43.1673525 31.16331,43.0904025 C31.16331,43.0897275 31.163535,43.0888275 31.163535,43.0881525 C31.15611,43.0078275 31.21461,42.9362775 31.294935,42.9277275 C31.383135,42.9277275 31.40901,42.9358275 31.81311,42.9358275 L31.874085,42.9358275 L34.00866,37.5052275 C34.043985,37.4345775 34.06176,37.4089275 34.169085,37.4089275 C34.236135,37.3983525 34.30026,37.4397525 34.31826,37.5052275 L36.403335,42.9358275 C36.807435,42.9358275 36.884385,42.9277275 36.974385,42.9277275 C37.05291,42.9333525 37.112085,43.0015275 37.10646,43.0802775 C37.106235,43.0829775 37.10601,43.0854525 37.105785,43.0881525 L37.105785,43.0881525 Z M29.43126,44.9999775 L38.647035,44.9999775 L38.647035,35.7842025 L29.43126,35.7842025 L29.43126,44.9999775 Z" id="Fill-11" fill="#FFFFFF"></path>
                        <polygon id="Fill-13" fill="#FFFFFF" points="32.937345 41.116995 34.483545 41.116995 33.718545 39.123495"></polygon>
                        <path d="M34.660665,15.8128425 C35.868015,14.9967675 36.835515,13.9255425 37.560465,12.5955675 C38.284515,11.2673925 38.64699,9.8627175 38.64699,8.3822175 C38.64699,6.8418675 38.269215,5.4302175 37.514565,4.1461425 C36.759915,2.8622925 35.73954,1.8506925 34.45659,1.1104425 C33.172515,0.3708675 31.760865,6.75e-05 30.220065,6.75e-05 L17.02044,6.75e-05 C17.51319,7.1478675 20.502765,13.1771925 25.627365,18.2824425 C28.062315,20.7079425 29.46249,23.6871675 29.94714,27.0846675 C30.16944,28.6434675 30.14469,30.2069925 29.903265,31.7158425 L30.220065,31.7158425 C31.760865,31.7158425 33.172515,31.3387425 34.45659,30.5831925 C35.73954,29.8285425 36.759915,28.8092925 37.514565,27.5252175 C38.269215,26.2413675 38.64699,24.8450175 38.64699,23.3336925 C38.64699,21.8540925 38.284515,20.4415425 37.560465,19.0971675 C36.835515,17.7536925 35.868015,16.6586175 34.660665,15.8128425" id="Fill-15" fill="#FFFFFF"></path>
                        <g id="Group-19">
                            <mask id="mask-2" fill="white">
                                <use xlink:href="#path-1"></use>
                            </mask>
                            <g id="Clip-18"></g>
                            <path d="M18.0636075,24.3591075 C16.8902325,24.7094325 15.6428325,24.9999075 14.4307575,24.9920325 L14.4271575,24.9508575 L14.4258075,24.9920325 C12.3533325,24.9920325 12.5740575,23.7943575 12.9003075,22.4144325 C13.0233825,21.8942325 12.6190575,21.4352325 12.2070825,21.1614075 C11.0694825,20.4047325 11.2143825,19.7576325 12.2880825,19.0637325 C11.9791575,18.8490825 11.6250075,18.6375825 11.3086575,18.3779325 C10.6345575,17.8246575 10.6055325,16.9552575 11.6362575,16.8101325 C12.1321575,16.6942575 12.7860075,16.3527075 11.1581325,15.4821825 C10.8381825,15.3109575 10.6190325,15.1453575 10.3508325,14.8776075 C10.1553075,14.6177325 10.2327075,13.9983075 10.7085825,13.4799075 C11.3361075,12.7189575 11.7834075,12.6757575 12.3686325,11.8824075 C12.6186075,11.5435575 12.8474325,11.2123575 12.9536325,11.0562075 C13.0596075,10.9000575 13.1617575,10.5123825 13.2294825,10.2027825 C13.2785325,9.9777825 12.9995325,7.3704825 12.9995325,7.3704825 C12.9601575,6.5823075 12.9601575,6.5823075 12.9545325,6.1869825 C12.9201075,3.6962325 13.7802825,1.6712325 15.3577575,-6.75e-05 L0.3162825,-6.75e-05 C0.1416825,-6.75e-05 -6.75e-05,0.1416825 -6.75e-05,0.3165075 L-6.75e-05,22.9987575 C-6.75e-05,27.8130825 3.9025575,31.7157075 8.7168825,31.7157075 L22.0058325,31.7157075 C22.3381575,29.3640075 22.0461075,27.0006075 20.8232325,24.6313575 C19.8627075,22.7703825 20.0602575,23.7630825 18.0636075,24.3591075" id="Fill-17" fill="#FFFFFF" mask="url(#mask-2)"></path>
                        </g>
                        <path d="M50.8772475,6.7598775 C50.8772475,6.6554775 50.9008725,6.5796525 50.9483475,6.5319525 C50.9958225,6.4847025 51.0815475,6.4610775 51.2050725,6.4610775 L52.4711475,6.4610775 C52.8225975,6.4610775 53.1067725,6.5558025 53.3254725,6.7457025 C53.5437225,6.9356025 53.6526225,7.1774775 53.6526225,7.4715525 C53.6526225,7.7656275 53.5407975,8.0216775 53.3180475,8.2399275 C53.0950725,8.4584025 52.7892975,8.5673025 52.4002725,8.5673025 L51.1195725,8.5673025 C51.0338475,8.5673025 50.9724225,8.5439025 50.9343975,8.4962025 C50.8963725,8.4487275 50.8772475,8.3679525 50.8772475,8.2541025 L50.8772475,6.7598775 Z M50.8772475,2.5616025 C50.8772475,2.4572025 50.9008725,2.3838525 50.9483475,2.3408775 C50.9958225,2.2983525 51.0815475,2.2767525 51.2050725,2.2767525 L52.3719225,2.2767525 C52.7134725,2.2767525 52.9978725,2.3717025 53.2255725,2.5616025 C53.4532725,2.7515025 53.5671225,2.9978775 53.5671225,3.3016275 C53.5671225,3.5862525 53.4676725,3.8189025 53.2683225,3.9989025 C53.0689725,4.1791275 52.8032475,4.2693525 52.4711475,4.2693525 L51.1195725,4.2693525 C51.0338475,4.2693525 50.9724225,4.2457275 50.9343975,4.1982525 C50.8963725,4.1505525 50.8772475,4.0700025 50.8772475,3.9561525 L50.8772475,2.5616025 Z M47.9742975,10.7021025 L52.4711475,10.7021025 C54.0085725,10.7021025 55.1493225,10.4672025 55.8938475,9.9976275 C56.6385975,9.5278275 57.0111975,8.8046775 57.0111975,7.8272775 C57.0111975,7.2107775 56.8496475,6.7081275 56.5274475,6.3188775 C56.2045725,5.9296275 55.6591725,5.5928025 54.8905725,5.3081775 C54.8718975,5.2989525 54.8622225,5.2823025 54.8622225,5.2584525 C54.8622225,5.2348275 54.8718975,5.2181775 54.8905725,5.2085025 C55.5833475,4.8863025 56.0670975,4.5519525 56.3424975,4.2052275 C56.6176725,3.8589525 56.7551475,3.4348275 56.7551475,2.9315025 C56.7551475,2.0114775 56.3728725,1.3164525 55.6096725,0.8466525 C54.8457975,0.3770775 53.7237225,0.1421775 52.2436725,0.1421775 L48.0026475,0.1421775 C47.8982475,0.1421775 47.8127475,0.1777275 47.7463725,0.2488275 C47.6802225,0.3201525 47.6471475,0.4079025 47.6471475,0.5120775 L47.6471475,10.3891275 C47.6471475,10.4744025 47.6775225,10.5477525 47.7396225,10.6094025 C47.8010475,10.6712775 47.8791225,10.7021025 47.9742975,10.7021025 L47.9742975,10.7021025 Z" id="Fill-20" fill="#FFFFFF"></path>
                        <path d="M59.0466825,10.7020125 L66.3184575,10.7020125 C66.4325325,10.7020125 66.5200575,10.6736625 66.5821575,10.6167375 C66.6435825,10.5598125 66.6744075,10.4839875 66.6744075,10.3890375 L66.6744075,8.6383125 C66.6744075,8.4583125 66.5655075,8.3680875 66.3474825,8.3680875 L62.0637075,8.3680875 C61.9968825,8.3680875 61.9518825,8.3536875 61.9284825,8.3253375 C61.9044075,8.2969875 61.8924825,8.2447875 61.8924825,8.1687375 L61.8924825,0.4411125 C61.8924825,0.2419875 61.8076575,0.1420875 61.6364325,0.1420875 L58.9328325,0.1420875 C58.8473325,0.1420875 58.7805075,0.1704375 58.7334825,0.2273625 C58.6857825,0.2842875 58.6623825,0.3650625 58.6623825,0.4694625 L58.6623825,10.3462875 C58.6623825,10.4698125 58.6907325,10.5598125 58.7472075,10.6167375 C58.8045825,10.6736625 58.9040325,10.7020125 59.0466825,10.7020125" id="Fill-22" fill="#FFFFFF"></path>
                        <path d="M72.0252675,5.934375 L72.8933175,3.515175 C72.9119925,3.4677 72.9410175,3.444075 72.9788175,3.444075 C73.0168425,3.444075 73.0451925,3.4677 73.0645425,3.515175 L73.9181925,5.94855 C73.9368675,6.024825 73.9465425,6.072075 73.9465425,6.090975 C73.9465425,6.185925 73.8945675,6.233175 73.7897175,6.233175 L72.1674675,6.233175 C72.0536175,6.233175 71.9969175,6.1812 71.9969175,6.076575 C71.9969175,6.01965 72.0061425,5.9724 72.0252675,5.934375 M68.1829425,10.7019 L70.3458675,10.7019 C70.5168675,10.7019 70.6307175,10.6308 70.6874175,10.488375 L71.2710675,8.8092 C71.2994175,8.7048 71.3705175,8.6526 71.4843675,8.6526 L74.5018425,8.6526 C74.5682175,8.6526 74.6129925,8.66475 74.6370675,8.68815 C74.6604675,8.712 74.6867925,8.757225 74.7151425,8.823375 L75.2699925,10.460025 C75.3174675,10.621575 75.4218675,10.7019 75.5831925,10.7019 L78.3722925,10.7019 C78.4483425,10.7019 78.5054925,10.6713 78.5435175,10.609425 C78.5815425,10.547775 78.6002175,10.474425 78.6002175,10.38915 C78.6002175,10.351125 78.5905425,10.2942 78.5718675,10.21815 L75.1561425,0.5265 C75.1084425,0.41265 75.0400425,0.320175 74.9498175,0.248625 C74.8593675,0.17775 74.7578925,0.1422 74.6440425,0.1422 L71.8403175,0.1422 C71.7167925,0.1422 71.6270175,0.165825 71.5698675,0.2133 C71.5131675,0.260775 71.4607425,0.346275 71.4132675,0.469575 L67.9691925,10.175625 C67.9408425,10.2609 67.9264425,10.33695 67.9264425,10.4031 C67.9264425,10.49805 67.9500675,10.5714 67.9975425,10.623825 C68.0452425,10.676025 68.1064425,10.7019 68.1829425,10.7019" id="Fill-24" fill="#FFFFFF"></path>
                        <path d="M88.6339575,7.087275 L86.8551075,6.73155 C86.8166325,6.7221 86.7646575,6.71715 86.6982825,6.71715 C86.5653075,6.71715 86.4845325,6.7599 86.4561825,6.8454 C86.2190325,7.443 85.9229325,7.87005 85.5667575,8.1261 C85.2108075,8.382375 84.7815075,8.5104 84.2790825,8.5104 C83.6810325,8.5104 83.2420575,8.268525 82.9623825,7.78455 C82.6824825,7.300575 82.5423075,6.484725 82.5423075,5.337 C82.5423075,4.226625 82.6941825,3.425175 82.9977075,2.931525 C83.3014575,2.438325 83.7332325,2.1915 84.2930325,2.1915 C84.7293075,2.1915 85.0616325,2.322 85.2893325,2.582775 C85.5170325,2.844 85.6736325,3.20175 85.7593575,3.657375 C85.7874825,3.771225 85.8158325,3.845025 85.8441825,3.8781 C85.8725325,3.911175 85.9346325,3.927825 86.0291325,3.927825 L88.5201075,3.771225 C88.6051575,3.761775 88.6645575,3.742875 88.6976325,3.7143 C88.7307075,3.68595 88.7478075,3.629025 88.7478075,3.543525 C88.7478075,3.47715 88.7334075,3.38715 88.7050575,3.2733 C88.5815325,2.637675 88.3158075,2.072925 87.9081075,1.5795 C87.4997325,1.086525 86.9779575,0.699525 86.3423325,0.419625 C85.7069325,0.13995 84.9954825,0 84.2075325,0 C83.1923325,0 82.3029075,0.215775 81.5390325,0.647325 C80.7758325,1.079325 80.1870075,1.69335 79.7745825,2.4903 C79.3619325,3.28725 79.1556075,4.217175 79.1556075,5.27985 C79.1556075,6.35175 79.3619325,7.30755 79.7745825,8.147475 C80.1870075,8.987175 80.7729075,9.64665 81.5320575,10.12545 C82.2912075,10.6047 83.1736575,10.8441 84.1791825,10.8441 C85.2418575,10.8441 86.1216075,10.61685 86.8193325,10.161225 C87.5168325,9.70605 88.0289325,9.200475 88.3560825,8.645625 C88.6836825,8.09055 88.8472575,7.680375 88.8472575,7.41465 C88.8472575,7.24365 88.7761575,7.13475 88.6339575,7.087275" id="Fill-26" fill="#FFFFFF"></path>
                        <path d="M90.840015,10.7020125 L93.21669,10.7020125 C93.377565,10.7020125 93.49614,10.6711875 93.57219,10.6095375 C93.648015,10.5476625 93.685815,10.4412375 93.685815,10.2893625 L93.685815,8.1401625 C93.685815,7.9979625 93.71484,7.8940125 93.77154,7.8274125 L94.78179,6.5320875 C94.86729,6.4279125 94.93344,6.3757125 94.98114,6.3757125 C95.019165,6.3757125 95.056965,6.4040625 95.09499,6.4609875 L96.83109,10.4173875 C96.916815,10.6072875 97.087365,10.7020125 97.34364,10.7020125 L100.118565,10.7020125 C100.289565,10.7020125 100.37529,10.6309125 100.37529,10.4884875 C100.37529,10.4128875 100.35594,10.3370625 100.317915,10.2607875 L97.215615,3.8710125 C97.17759,3.7949625 97.158915,3.7238625 97.158915,3.6572625 C97.158915,3.5722125 97.191765,3.4916625 97.25814,3.4153875 L99.592065,0.5547375 C99.63954,0.5074875 99.663165,0.4505625 99.663165,0.3841875 C99.663165,0.3081375 99.629865,0.2487375 99.563715,0.2064375 C99.497565,0.1634625 99.407115,0.1420875 99.293265,0.1420875 L97.12989,0.1420875 C96.968565,0.1420875 96.84774,0.1634625 96.76719,0.2064375 C96.68619,0.2487375 96.60339,0.3272625 96.51834,0.4411125 L93.89979,4.1128875 C93.84264,4.1792625 93.79494,4.2123375 93.756915,4.2123375 C93.70944,4.2123375 93.685815,4.1554125 93.685815,4.0415625 L93.685815,0.4411125 C93.685815,0.2419875 93.60099,0.1420875 93.429765,0.1420875 L90.726165,0.1420875 C90.640665,0.1420875 90.57384,0.1704375 90.526815,0.2273625 C90.479115,0.2842875 90.455715,0.3650625 90.455715,0.4694625 L90.455715,10.3462875 C90.455715,10.4698125 90.484065,10.5598125 90.54054,10.6167375 C90.597915,10.6736625 90.697365,10.7020125 90.840015,10.7020125" id="Fill-28" fill="#FFFFFF"></path>
                        <path d="M59.616,27.6947775 C59.691375,27.6378525 59.75325,27.5478525 59.80095,27.4243275 L62.6895,17.7896025 C62.70885,17.7135525 62.718525,17.6566275 62.718525,17.6188275 C62.718525,17.4955275 62.6778,17.3981025 62.59725,17.3267775 C62.516475,17.2556775 62.4051,17.2201275 62.2629,17.2201275 L60.61185,17.2201275 C60.3558,17.2201275 60.203925,17.3200275 60.15645,17.5189275 L58.7052,22.9556025 C58.695525,23.0123025 58.67145,23.0363775 58.6341,23.0267025 C58.5954,23.0172525 58.56705,22.9839525 58.548375,22.9270275 L56.982825,17.5189275 C56.954475,17.4149775 56.906775,17.3389275 56.840625,17.2914525 C56.774475,17.2439775 56.669625,17.2201275 56.527425,17.2201275 L54.53505,17.2201275 C54.279225,17.2201275 54.12735,17.3200275 54.079875,17.5189275 L52.5852,22.8559275 C52.5663,22.9319775 52.5429,22.9697775 52.5141,22.9697775 C52.476075,22.9697775 52.443,22.9128525 52.41465,22.7987775 L50.90625,17.5189275 C50.877225,17.4149775 50.82975,17.3389275 50.76405,17.2914525 C50.697225,17.2439775 50.592825,17.2201275 50.45085,17.2201275 L48.102525,17.2201275 C47.960325,17.2201275 47.848725,17.2556775 47.76795,17.3267775 C47.687175,17.3981025 47.647125,17.4955275 47.647125,17.6188275 C47.647125,17.6566275 47.656125,17.7135525 47.675475,17.7896025 L50.578425,27.4243275 C50.626125,27.5478525 50.68755,27.6378525 50.76405,27.6947775 C50.839425,27.7517025 50.949,27.7800525 51.0912,27.7800525 L53.1261,27.7800525 C53.2683,27.7800525 53.380125,27.7517025 53.460675,27.6947775 C53.541,27.6378525 53.600175,27.5478525 53.63865,27.4243275 L55.104525,22.4430525 C55.161225,22.3008525 55.203975,22.2297525 55.232325,22.2297525 C55.270125,22.2297525 55.303875,22.2916275 55.332225,22.4147025 L56.812275,27.4243275 C56.878425,27.6617025 57.0492,27.7800525 57.324375,27.7800525 L59.288175,27.7800525 C59.43105,27.7800525 59.5395,27.7517025 59.616,27.6947775" id="Fill-30" fill="#FFFFFF"></path>
                        <path d="M69.9624675,24.40701 C69.8486175,24.86241 69.6679425,25.19226 69.4215675,25.39611 C69.1747425,25.600635 68.8426425,25.702335 68.4250425,25.702335 C67.9986675,25.702335 67.6591425,25.600635 67.4078175,25.39611 C67.1560425,25.19226 66.9737925,24.86241 66.8599425,24.40701 C66.7463175,23.951835 66.6889425,23.339835 66.6889425,22.571235 C66.6889425,21.394935 66.8241675,20.550285 67.0946175,20.03796 C67.3652925,19.52586 67.8083175,19.269585 68.4250425,19.269585 C69.0323175,19.269585 69.4692675,19.52586 69.7347675,20.03796 C70.0000425,20.550285 70.1330175,21.394935 70.1330175,22.571235 C70.1330175,23.339835 70.0763175,23.951835 69.9624675,24.40701 M72.8939925,25.37496 C73.3113675,24.558885 73.5203925,23.61006 73.5203925,22.528485 C73.5203925,21.437685 73.3086675,20.481885 72.8870175,19.66086 C72.4646925,18.84051 71.8691175,18.20466 71.1011925,17.753985 C70.3323675,17.30331 69.4402425,17.078085 68.4250425,17.078085 C67.4003925,17.078085 66.5012925,17.30331 65.7284175,17.753985 C64.9548675,18.20466 64.3572675,18.84051 63.9349425,19.66086 C63.5126175,20.481885 63.3020175,21.437685 63.3020175,22.528485 C63.3020175,23.619735 63.5105925,24.571035 63.9281925,25.38216 C64.3455675,26.19306 64.9411425,26.81946 65.7140175,27.26046 C66.4875675,27.70191 67.3907175,27.922185 68.4250425,27.922185 C69.4499175,27.922185 70.3463175,27.70191 71.1149175,27.26046 C71.8837425,26.81946 72.4763925,26.19126 72.8939925,25.37496" id="Fill-32" fill="#FFFFFF"></path>
                        <path d="M87.36768,17.220195 L83.254455,17.220195 C83.07423,17.220195 82.94598,17.357895 82.870605,17.632845 L81.54693,22.001895 C81.51813,22.07817 81.48978,22.115745 81.46143,22.115745 C81.42363,22.115745 81.390555,22.07817 81.36153,22.001895 L79.88148,17.476245 C79.843455,17.37207 79.798455,17.30322 79.746705,17.26992 C79.69428,17.23662 79.60608,17.220195 79.48323,17.220195 L75.498255,17.220195 C75.39408,17.220195 75.31803,17.246295 75.270555,17.29872 C75.222855,17.350695 75.19923,17.43372 75.19923,17.54757 L75.19923,27.38142 C75.19923,27.504945 75.23253,27.602145 75.299355,27.67347 C75.36573,27.744345 75.455505,27.78012 75.569355,27.78012 L77.462055,27.78012 C77.595255,27.78012 77.680755,27.758745 77.71878,27.71577 C77.75613,27.67347 77.77548,27.59022 77.77548,27.467145 L77.77548,21.176595 C77.77548,21.07242 77.79888,21.019995 77.84658,21.019995 C77.88438,21.019995 77.91768,21.067695 77.946255,21.16242 L79.99533,27.52407 C80.05248,27.694845 80.16633,27.78012 80.33688,27.78012 L81.831555,27.78012 C81.99288,27.78012 82.10673,27.694845 82.173105,27.52407 L84.222405,21.04857 C84.250755,20.96307 84.28878,20.92032 84.336255,20.92032 C84.37428,20.92032 84.392955,20.95857 84.392955,21.03417 L84.392955,27.424395 C84.392955,27.547695 84.41928,27.63792 84.47148,27.694845 C84.523455,27.75177 84.620655,27.78012 84.763305,27.78012 L87.16833,27.78012 C87.329655,27.78012 87.445755,27.749295 87.516855,27.68742 C87.587955,27.62577 87.62373,27.51912 87.62373,27.36747 L87.62373,17.518995 C87.62373,17.31987 87.53823,17.220195 87.36768,17.220195" id="Fill-34" fill="#FFFFFF"></path>
                        <path d="M89.985825,27.78003 L97.599825,27.78003 C97.713675,27.78003 97.799175,27.75168 97.855875,27.694755 C97.913025,27.63783 97.941375,27.562005 97.941375,27.467055 L97.941375,25.71633 C97.941375,25.53633 97.836525,25.446105 97.628175,25.446105 L93.00285,25.446105 C92.936475,25.446105 92.8917,25.431705 92.867625,25.403355 C92.844,25.375005 92.8323,25.322805 92.8323,25.246755 L92.8323,23.82363 C92.8323,23.766705 92.853675,23.719455 92.896425,23.68143 C92.939175,23.643405 92.993175,23.624505 93.06,23.624505 L95.692725,23.624505 C95.863725,23.624505 95.949,23.54373 95.949,23.382405 L95.949,21.61773 C95.949,21.42828 95.8491,21.33333 95.64975,21.33333 L93.08835,21.33333 C93.012525,21.33333 92.950875,21.307005 92.9034,21.25503 C92.8557,21.20283 92.8323,21.129255 92.8323,21.034305 L92.8323,19.82448 C92.8323,19.64448 92.9412,19.554255 93.15945,19.554255 L97.428825,19.554255 C97.67565,19.554255 97.799175,19.426005 97.799175,19.169955 L97.813125,17.51913 C97.813125,17.320005 97.728075,17.220105 97.557075,17.220105 L89.871975,17.220105 C89.69175,17.220105 89.601525,17.32923 89.601525,17.54748 L89.601525,27.424305 C89.601525,27.54783 89.629875,27.63783 89.687025,27.694755 C89.743725,27.75168 89.843625,27.78003 89.985825,27.78003" id="Fill-36" fill="#FFFFFF"></path>
                        <path d="M99.6492825,17.5475925 L99.6492825,27.4955175 C99.6492825,27.6854175 99.7671825,27.7801425 100.004783,27.7801425 L101.940458,27.7801425 C102.073208,27.7801425 102.165908,27.7565175 102.217658,27.7088175 C102.270083,27.6615675 102.291458,27.5810175 102.281783,27.4671675 L102.281783,22.2865425 C102.281783,22.2392925 102.296408,22.2109425 102.324758,22.2014925 C102.353108,22.1920425 102.386183,22.2109425 102.423983,22.2584175 L106.338083,27.5663925 C106.404233,27.6521175 106.463633,27.7088175 106.516058,27.7371675 C106.567808,27.7659675 106.636883,27.7801425 106.722383,27.7801425 L108.671783,27.7801425 C108.766733,27.7801425 108.844808,27.7565175 108.907133,27.7088175 C108.968333,27.6615675 108.999608,27.5999175 108.999608,27.5240925 L108.999608,17.4620925 C108.999608,17.3007675 108.928283,17.2202175 108.785408,17.2202175 L106.722383,17.2202175 C106.513358,17.2202175 106.408958,17.3198925 106.408958,17.5190175 L106.408958,22.1726925 C106.408958,22.2959925 106.385333,22.3578675 106.338083,22.3578675 C106.290383,22.3578675 106.238408,22.3151175 106.181258,22.2298425 L102.765758,17.4762675 C102.689708,17.3720925 102.621308,17.3032425 102.559433,17.2699425 C102.497783,17.2366425 102.405308,17.2202175 102.281783,17.2202175 L99.9620325,17.2202175 C99.7534575,17.2202175 99.6492825,17.3291175 99.6492825,17.5475925" id="Fill-38" fill="#FFFFFF"></path>
                        <path d="M111.133732,19.725075 L111.361657,19.753425 C111.484507,19.782 111.546607,19.838925 111.546607,19.9242 C111.546607,20.000475 111.527257,20.0808 111.489232,20.166075 L110.891632,21.617775 C110.863282,21.693825 110.867557,21.7647 110.906032,21.831075 C110.943382,21.897675 111.005707,21.930975 111.091207,21.930975 L111.318682,21.930975 C111.423082,21.930975 111.532207,21.904875 111.645832,21.85245 C111.759682,21.8007 111.845182,21.7269 111.901882,21.632175 L113.325457,19.482975 C113.362807,19.42605 113.382157,19.359675 113.382157,19.28385 L113.382157,17.4762 C113.382157,17.305425 113.301382,17.22015 113.140507,17.22015 L111.048232,17.22015 C110.877232,17.22015 110.792182,17.32005 110.792182,17.51895 L110.792182,19.3977 C110.792182,19.51155 110.815807,19.589625 110.863282,19.6326 C110.910532,19.675125 111.000757,19.706175 111.133732,19.725075" id="Fill-40" fill="#FFFFFF"></path>
                        <path d="M123.37272,26.28567 C123.74262,25.76412 123.92757,25.151895 123.92757,24.449895 C123.92757,23.69097 123.70932,23.038695 123.27327,22.49307 C122.836545,21.947445 122.18652,21.56562 121.32342,21.34737 L118.961145,20.73537 C118.353195,20.59317 118.050345,20.351295 118.050345,20.00952 C118.050345,19.810395 118.16847,19.63962 118.405845,19.49742 C118.642995,19.35477 119.00817,19.283895 119.501595,19.283895 C119.994795,19.283895 120.37167,19.350495 120.63312,19.48302 C120.893895,19.615995 121.138245,19.80567 121.365945,20.05227 C121.479795,20.16612 121.56957,20.223045 121.636395,20.223045 C121.693095,20.223045 121.745745,20.20437 121.792995,20.16612 L123.34437,19.04202 C123.41052,18.985095 123.443595,18.92322 123.443595,18.856845 C123.443595,18.78102 123.41052,18.700245 123.34437,18.614745 C123.02127,18.15012 122.494995,17.777745 121.76442,17.49762 C121.033845,17.217945 120.241845,17.077995 119.387745,17.077995 C118.514745,17.077995 117.746145,17.227395 117.08217,17.526195 C116.41842,17.824995 115.905645,18.233145 115.54542,18.750195 C115.18452,19.267245 115.00452,19.83402 115.00452,20.45052 C115.00452,21.20022 115.25562,21.86217 115.75872,22.436145 C116.26182,23.010345 116.93997,23.40162 117.79362,23.60997 L119.956995,24.13692 C120.250845,24.20307 120.47382,24.302745 120.626145,24.43572 C120.77757,24.56847 120.85407,24.72507 120.85407,24.905295 C120.85407,25.161345 120.699495,25.362945 120.39102,25.510095 C120.082545,25.65747 119.66292,25.730595 119.13147,25.730595 C118.58112,25.730595 118.14012,25.64532 117.808245,25.47477 C117.476145,25.30377 117.148545,25.009695 116.82612,24.592095 C116.759745,24.50682 116.674245,24.46407 116.570295,24.46407 C116.48457,24.46407 116.389395,24.497595 116.28522,24.563745 L114.819345,25.57422 C114.71472,25.65027 114.66297,25.73577 114.66297,25.830495 C114.66297,25.87797 114.686595,25.94907 114.733845,26.04402 C115.065945,26.60382 115.66152,27.05697 116.520345,27.40302 C117.37872,27.749295 118.329795,27.922095 119.373795,27.922095 C120.293595,27.922095 121.097745,27.78012 121.78557,27.495495 C122.47362,27.210645 123.002595,26.80767 123.37272,26.28567" id="Fill-42" fill="#FFFFFF"></path>
                        <g id="Group-46" transform="translate(47.475000, 33.975000)">
                            <mask id="mask-4" fill="white">
                                <use xlink:href="#path-3"></use>
                            </mask>
                            <g id="Clip-45"></g>
                            <path d="M6.832395,4.4501175 L4.469895,3.8381175 C3.86262,3.6959175 3.55887,3.4540425 3.55887,3.1124925 C3.55887,2.9131425 3.67767,2.7421425 3.91482,2.5999425 C4.151745,2.4577425 4.51737,2.3864175 5.010795,2.3864175 C5.503545,2.3864175 5.88087,2.4530175 6.14187,2.5857675 C6.402645,2.7189675 6.647445,2.9084175 6.875145,3.1547925 C6.988545,3.2688675 7.07877,3.3257925 7.145145,3.3257925 C7.202295,3.3257925 7.25427,3.3071175 7.301745,3.2688675 L8.852895,2.1447675 C8.91927,2.0878425 8.95302,2.0261925 8.95302,1.9598175 C8.95302,1.8839925 8.91927,1.8029925 8.852895,1.7174925 C8.530695,1.2528675 8.004195,0.8804925 7.273395,0.6003675 C6.542595,0.3206925 5.750595,0.1807425 4.89672,0.1807425 C4.023945,0.1807425 3.255345,0.3301425 2.59137,0.6291675 C1.926945,0.9277425 1.414845,1.3358925 1.053945,1.8527175 C0.69372,2.3699925 0.51372,2.9367675 0.51372,3.5534925 C0.51372,4.3031925 0.76482,4.9649175 1.26792,5.5386675 C1.770345,6.1130925 2.44872,6.5043675 3.30282,6.7129425 L5.466195,7.2394425 C5.760045,7.3058175 5.98302,7.4057175 6.134895,7.5384675 C6.28677,7.6712175 6.362595,7.8280425 6.362595,8.0080425 C6.362595,8.2640925 6.20802,8.4659175 5.90022,8.6128425 C5.591745,8.7599925 5.17167,8.8333425 4.640895,8.8333425 C4.090095,8.8333425 3.64932,8.7482925 3.31722,8.5772925 C2.98467,8.4065175 2.657745,8.1124425 2.33487,7.6948425 C2.268495,7.6095675 2.182995,7.5668175 2.07882,7.5668175 C1.99332,7.5668175 1.898595,7.6001175 1.79442,7.6664925 L0.328095,8.6769675 C0.22392,8.7530175 0.171945,8.8385175 0.171945,8.9330175 C0.171945,8.9807175 0.19557,9.0515925 0.243045,9.1465425 C0.575145,9.7065675 1.170045,10.1594925 2.029095,10.5055425 C2.88747,10.8520425 3.838545,11.0250675 4.88232,11.0250675 C5.802795,11.0250675 6.606945,10.8828675 7.29477,10.5980175 C7.98282,10.3136175 8.511345,9.9106425 8.881245,9.3884175 C9.25182,8.8668675 9.43677,8.2546425 9.43677,7.5526425 C9.43677,6.7934925 9.21807,6.1414425 8.78202,5.5955925 C8.345745,5.0501925 7.69572,4.6685925 6.832395,4.4501175" id="Fill-44" fill="#FFFFFF" mask="url(#mask-4)"></path>
                        </g>
                        <path d="M67.2721425,34.2979875 L65.1373425,34.2979875 C64.9571175,34.2979875 64.8666675,34.4068875 64.8666675,34.6253625 L64.8666675,40.7023875 C64.8666675,41.4329625 64.7150175,41.9542875 64.4112675,42.2677125 C64.1077425,42.5806875 63.7094925,42.7372875 63.2160675,42.7372875 C62.7129675,42.7372875 62.3266425,42.5806875 62.0561925,42.2677125 C61.7857425,41.9542875 61.6505175,41.4471375 61.6505175,40.7446875 L61.6505175,34.5967875 C61.6505175,34.3976625 61.5654675,34.2979875 61.3942425,34.2979875 L58.6906425,34.2979875 C58.6051425,34.2979875 58.5383175,34.3263375 58.4912925,34.3832625 C58.4438175,34.4401875 58.4201925,34.5207375 58.4201925,34.6253625 L58.4201925,40.4033625 C58.4201925,41.9500125 58.7687175,43.1026875 59.4662175,43.8616125 C60.1632675,44.6207625 61.3323675,44.9998875 62.9739675,44.9998875 C64.4353425,44.9998875 65.5594425,44.6704875 66.3469425,44.0110125 C67.1342175,43.3517625 67.5281925,42.2440875 67.5281925,40.6877625 L67.5281925,34.5967875 C67.5281925,34.3976625 67.4426925,34.2979875 67.2721425,34.2979875" id="Fill-47" fill="#FFFFFF"></path>
                        <path d="M77.2482825,34.2979875 L69.6633075,34.2979875 C69.5775825,34.2979875 69.5107575,34.3263375 69.4637325,34.3832625 C69.4162575,34.4401875 69.3926325,34.5207375 69.3926325,34.6253625 L69.3926325,44.5021875 C69.3926325,44.6254875 69.4209825,44.7157125 69.4776825,44.7726375 C69.5348325,44.8295625 69.6342825,44.8579125 69.7769325,44.8579125 L72.1536075,44.8579125 C72.3144825,44.8579125 72.4332825,44.8270875 72.5091075,44.7652125 C72.5849325,44.7035625 72.6229575,44.5969125 72.6229575,44.4452625 L72.6229575,41.0011875 C72.6229575,40.9348125 72.6443325,40.8823875 72.6870825,40.8445875 C72.7298325,40.8067875 72.7842825,40.7876625 72.8506575,40.7876625 L75.5121825,40.7876625 C75.6831825,40.7876625 75.7682325,40.7068875 75.7682325,40.5457875 L75.7682325,38.8094625 C75.7682325,38.6197875 75.6735075,38.5248375 75.4838325,38.5248375 L72.8794575,38.5248375 C72.7084575,38.5248375 72.6229575,38.4298875 72.6229575,38.2402125 L72.6229575,36.9021375 C72.6229575,36.7219125 72.7318575,36.6319125 72.9505575,36.6319125 L77.1344325,36.6319125 C77.3718075,36.6319125 77.4903825,36.5038875 77.4903825,36.2476125 L77.5043325,34.5967875 C77.5043325,34.3976625 77.4192825,34.2979875 77.2482825,34.2979875" id="Fill-49" fill="#FFFFFF"></path>
                        <path d="M86.9972175,34.2979875 L79.4115675,34.2979875 C79.3260675,34.2979875 79.2596925,34.3263375 79.2122175,34.3832625 C79.1645175,34.4401875 79.1411175,34.5207375 79.1411175,34.6253625 L79.1411175,44.5021875 C79.1411175,44.6254875 79.1694675,44.7157125 79.2266175,44.7726375 C79.2833175,44.8295625 79.3832175,44.8579125 79.5254175,44.8579125 L81.9018675,44.8579125 C82.0634175,44.8579125 82.1822175,44.8270875 82.2580425,44.7652125 C82.3338675,44.7035625 82.3718925,44.5969125 82.3718925,44.4452625 L82.3718925,41.0011875 C82.3718925,40.9348125 82.3932675,40.8823875 82.4360175,40.8445875 C82.4787675,40.8067875 82.5327675,40.7876625 82.5995925,40.7876625 L85.2611175,40.7876625 C85.4316675,40.7876625 85.5171675,40.7068875 85.5171675,40.5457875 L85.5171675,38.8094625 C85.5171675,38.6197875 85.4219925,38.5248375 85.2320925,38.5248375 L82.6279425,38.5248375 C82.4573925,38.5248375 82.3718925,38.4298875 82.3718925,38.2402125 L82.3718925,36.9021375 C82.3718925,36.7219125 82.4807925,36.6319125 82.6990425,36.6319125 L86.8833675,36.6319125 C87.1200675,36.6319125 87.2388675,36.5038875 87.2388675,36.2476125 L87.2532675,34.5967875 C87.2532675,34.3976625 87.1677675,34.2979875 86.9972175,34.2979875" id="Fill-51" fill="#FFFFFF"></path>
                        <path d="M94.6176525,38.261655 C94.4230275,38.44638 94.1456025,38.538855 93.7853775,38.538855 L92.3618025,38.538855 C92.2673025,38.538855 92.2031775,38.515455 92.1698775,38.46798 C92.1368025,38.42028 92.1201525,38.34468 92.1201525,38.240055 L92.1201525,36.68913 C92.1201525,36.584505 92.1437775,36.51093 92.1912525,36.46818 C92.2389525,36.425655 92.3240025,36.40428 92.4473025,36.40428 L93.6998775,36.40428 C94.0414275,36.40428 94.3285275,36.501705 94.5609525,36.69588 C94.7933775,36.890505 94.9094775,37.16343 94.9094775,37.51443 C94.9094775,37.82718 94.8122775,38.07648 94.6176525,38.261655 M96.3895275,40.147155 C96.9396525,39.938355 97.3880775,39.577905 97.7345775,39.06558 C98.0808525,38.553255 98.2541025,37.969605 98.2541025,37.31508 C98.2541025,36.356805 97.8745275,35.61408 97.1156025,35.087805 C96.3564525,34.561305 95.2890525,34.298055 93.9131775,34.298055 L89.1600525,34.298055 C88.9798275,34.298055 88.8896025,34.406955 88.8896025,34.62543 L88.8896025,44.50203 C88.8896025,44.625555 88.9157025,44.71578 88.9681275,44.77248 C89.0198775,44.829405 89.1173025,44.857755 89.2595025,44.857755 L91.6503525,44.857755 C91.8119025,44.857755 91.9304775,44.827155 92.0065275,44.76528 C92.0823525,44.70363 92.1201525,44.59698 92.1201525,44.445105 L92.1201525,40.816305 C92.1201525,40.78773 92.1341025,40.75443 92.1629025,40.716405 C92.1912525,40.67838 92.2340025,40.65948 92.2907025,40.65948 L92.9454525,40.65948 C93.0782025,40.65948 93.1781025,40.67838 93.2442525,40.716405 C93.3106275,40.75443 93.3583275,40.811355 93.3866775,40.88718 L94.7245275,44.558955 C94.7816775,44.75808 94.9094775,44.857755 95.1088275,44.857755 L97.8698025,44.857755 C97.9550775,44.857755 98.0237025,44.829405 98.0761275,44.77248 C98.1278775,44.71578 98.1539775,44.64423 98.1539775,44.558955 C98.1539775,44.49258 98.1449775,44.44038 98.1256275,44.402355 L96.3330525,40.417605 C96.3137025,40.36068 96.3042525,40.31793 96.3042525,40.289355 C96.3042525,40.223205 96.3330525,40.175505 96.3895275,40.147155" id="Fill-53" fill="#FFFFFF"></path>
                        <path d="M105.383723,40.38903 L103.761473,40.38903 C103.647623,40.38903 103.590923,40.337055 103.590923,40.23243 C103.590923,40.175505 103.599923,40.128255 103.619273,40.09023 L104.487548,37.67103 C104.506223,37.623555 104.535023,37.59993 104.572823,37.59993 C104.610848,37.59993 104.639198,37.623555 104.658323,37.67103 L105.511973,40.104405 C105.530648,40.180455 105.540323,40.22793 105.540323,40.24683 C105.540323,40.34178 105.488573,40.38903 105.383723,40.38903 L105.383723,40.38903 Z M106.749923,34.682355 C106.702448,34.568505 106.634273,34.47603 106.543598,34.40448 C106.453373,34.333605 106.351898,34.298055 106.238048,34.298055 L103.434323,34.298055 C103.310798,34.298055 103.221023,34.32168 103.163873,34.36893 C103.107173,34.41663 103.054748,34.50213 103.007048,34.62543 L99.5631975,44.331255 C99.5348475,44.41653 99.5204475,44.49258 99.5204475,44.558955 C99.5204475,44.653905 99.5440725,44.727255 99.5915475,44.779455 C99.6392475,44.83188 99.7004475,44.857755 99.7769475,44.857755 L101.939648,44.857755 C102.110873,44.857755 102.224723,44.786655 102.281423,44.64423 L102.865073,42.965055 C102.893423,42.860655 102.964523,42.808455 103.078373,42.808455 L106.095848,42.808455 C106.161998,42.808455 106.206998,42.82038 106.231073,42.844005 C106.254473,42.867855 106.280798,42.912855 106.308923,42.97923 L106.863998,44.61588 C106.911473,44.77743 107.015873,44.857755 107.177198,44.857755 L109.966298,44.857755 C110.042348,44.857755 110.099498,44.827155 110.137523,44.76528 C110.175548,44.70363 110.194223,44.630055 110.194223,44.545005 C110.194223,44.50698 110.184548,44.450055 110.165873,44.374005 L106.749923,34.682355 Z" id="Fill-55" fill="#FFFFFF"></path>
                        <g id="Group-59" transform="translate(110.700000, 33.975000)">
                            <mask id="mask-6" fill="white">
                                <use xlink:href="#path-5"></use>
                            </mask>
                            <g id="Clip-58"></g>
                            <path d="M9.37134,5.54589 L5.386365,5.51754 C5.187015,5.51754 5.087565,5.598315 5.087565,5.759415 L5.087565,7.125615 C5.087565,7.239465 5.10894,7.320465 5.15169,7.367715 C5.194665,7.415415 5.26779,7.438815 5.371965,7.438815 L6.709815,7.438815 C6.814215,7.438815 6.866415,7.481565 6.866415,7.566615 L6.838065,7.680465 L6.79554,7.808715 C6.539265,8.47314 6.026715,8.805015 5.258115,8.805015 C4.669965,8.805015 4.219515,8.56809 3.906315,8.09334 C3.59289,7.619265 3.43629,6.77484 3.43629,5.560065 C3.43629,4.40289 3.58119,3.58434 3.87099,3.10509 C4.160115,2.62629 4.58469,2.38644 5.144265,2.38644 C5.61879,2.38644 5.995665,2.526615 6.27579,2.80629 C6.55524,3.08619 6.733215,3.444615 6.809265,3.88089 C6.838065,3.994515 6.866415,4.07079 6.894765,4.10859 C6.923115,4.14639 6.98949,4.165515 7.09434,4.165515 L9.52794,3.79539 C9.61299,3.78639 9.67509,3.76704 9.713115,3.73869 C9.750465,3.710115 9.76959,3.65319 9.76959,3.567915 C9.76959,3.50154 9.75564,3.411315 9.72684,3.297465 C9.603315,2.76624 9.34524,2.263365 8.951265,1.789065 C8.55774,1.31454 8.040465,0.927765 7.39989,0.628965 C6.759765,0.330165 6.03144,0.180765 5.21514,0.180765 C4.210065,0.180765 3.31569,0.40824 2.532915,0.86364 C1.750365,1.31904 1.140615,1.95984 0.70434,2.784915 C0.267615,3.610215 0.049365,4.56399 0.049365,5.645565 C0.049365,6.698565 0.25569,7.630965 0.66834,8.44209 C1.081215,9.25344 1.664865,9.88659 2.41929,10.34199 C3.173265,10.797615 4.043565,11.02509 5.030415,11.02509 C5.542965,11.02509 5.983965,10.963215 6.353865,10.839915 C6.724215,10.71684 7.02054,10.57464 7.24329,10.413315 C7.466265,10.25199 7.70139,10.05264 7.94799,9.81549 C7.995465,9.768015 8.02854,9.744165 8.04789,9.744165 C8.07624,9.744165 8.094915,9.758565 8.104365,9.78714 L8.673615,10.61244 C8.806365,10.792665 8.95869,10.88289 9.12924,10.88289 L9.67014,10.88289 C9.736515,10.88289 9.793215,10.859265 9.84069,10.811565 C9.88839,10.764315 9.91179,10.70739 9.91179,10.641015 L9.91179,5.987115 C9.91179,5.854365 9.86409,5.747715 9.76959,5.66694 C9.67509,5.58639 9.54189,5.54589 9.37134,5.54589" id="Fill-57" fill="#FFFFFF" mask="url(#mask-6)"></path>
                        </g>
                        <path d="M130.41738,42.5236725 L125.79183,42.5236725 C125.72523,42.5236725 125.68023,42.5097225 125.65683,42.4813725 C125.63253,42.4527975 125.621055,42.4005975 125.621055,42.3245475 L125.621055,40.9014225 C125.621055,40.8444975 125.642205,40.7970225 125.68518,40.7592225 C125.727705,40.7211975 125.78238,40.7022975 125.84853,40.7022975 L128.481705,40.7022975 C128.652255,40.7022975 128.737755,40.6215225 128.737755,40.4601975 L128.737755,38.6955225 C128.737755,38.5058475 128.63853,38.4111225 128.438955,38.4111225 L125.877555,38.4111225 C125.801055,38.4111225 125.73963,38.3845725 125.69193,38.3325975 C125.644455,38.2806225 125.621055,38.2070475 125.621055,38.1118725 L125.621055,36.9022725 C125.621055,36.7220475 125.729955,36.6318225 125.948655,36.6318225 L130.21803,36.6318225 C130.464405,36.6318225 130.58793,36.5037975 130.58793,36.2475225 L130.60233,34.5969225 C130.60233,34.3977975 130.516605,34.2978975 130.34628,34.2978975 L122.66118,34.2978975 C122.480505,34.2978975 122.39073,34.4070225 122.39073,34.6252725 L122.39073,44.5020975 C122.39073,44.6256225 122.41908,44.7156225 122.47578,44.7725475 C122.53293,44.8294725 122.632155,44.8578225 122.77503,44.8578225 L130.38858,44.8578225 C130.50243,44.8578225 130.58793,44.8294725 130.64508,44.7725475 C130.70178,44.7156225 130.73013,44.6395725 130.73013,44.5448475 L130.73013,42.7941225 C130.73013,42.6138975 130.625955,42.5236725 130.41738,42.5236725" id="Fill-60" fill="#FFFFFF"></path>
                    </g>
                </g>
            </g>
        </g>
    </g>
</svg>