<?xml version="1.0" encoding="UTF-8"?>
<svg width="21px" height="11px" viewBox="0 0 21 11" version="1.1" xmlns="http://www.w3.org/2000/svg" xmlns:xlink="http://www.w3.org/1999/xlink">
    <title>icon/button-arrow</title>
    <g id="DPLA" stroke="none" stroke-width="1" fill="none" fill-rule="evenodd">
        <g id="1.0-Home" transform="translate(-267.000000, -359.000000)" fill="#FFFFFF">
            <g id="hero" transform="translate(0.000000, 76.000000)">
                <g id="content" transform="translate(130.000000, 94.000000)">
                    <g id="global/button" transform="translate(0.000000, 170.000000)">
                        <path d="M151.310729,19.1555858 C150.949383,18.892642 150.446079,18.9708799 150.183942,19.3306128 C149.920192,19.6895391 149.999236,20.1944556 150.357356,20.4573994 L154.780619,23.6933823 L137,23.6933823 L137,25.3065343 L154.825787,25.3065343 L150.361389,28.540904 C150.00085,28.8014281 149.920192,29.3063446 150.182329,29.6668841 C150.340418,29.8838531 150.586424,30 150.836462,30 C151.000197,30 151.165545,29.9499923 151.308309,29.8467506 L156.447811,26.1227892 C157.001123,25.7219209 157.318914,25.1387665 157.319888,24.523349 C157.32214,23.9079315 157.006769,23.3231639 156.455071,22.9198759 L151.310729,19.1555858 Z" id="icon/button-arrow"></path>
                    </g>
                </g>
            </g>
        </g>
    </g>
</svg>