<?xml version="1.0" encoding="UTF-8"?>
<svg width="22px" height="22px" viewBox="0 0 22 22" version="1.1" xmlns="http://www.w3.org/2000/svg" xmlns:xlink="http://www.w3.org/1999/xlink">
    <title>icon/filter/icon-filter-reset</title>
    <g id="DPLA" stroke="none" stroke-width="1" fill="none" fill-rule="evenodd">
        <g id="8.0.0-Search-Discovery" transform="translate(-392.000000, -203.000000)" fill="#8B2D9B" fill-rule="nonzero" stroke="#8B2D9B">
            <g id="header" transform="translate(130.000000, 204.000000)">
                <path d="M273.117861,0 C269.525391,0 266.35951,1.9350866 264.625157,4.83823416 L264.625157,2.05882304 C264.62807,1.92332977 264.572433,1.79315712 264.472487,1.70162676 C264.372542,1.61009641 264.23799,1.56609352 264.103275,1.58088198 C263.860759,1.60743971 263.678744,1.81491407 263.683871,2.05882304 L263.683871,6.59558668 C263.683871,6.85547456 263.894681,7.06614882 264.154569,7.06617481 L268.691509,7.06617481 C268.86122,7.06857494 269.019077,6.97940998 269.104633,6.83282293 C269.190188,6.68623588 269.190188,6.50493748 269.104633,6.35835043 C269.019077,6.21176338 268.86122,6.12259842 268.691509,6.12499856 L265.000216,6.12499856 C266.432686,3.05602281 269.540215,0.941176249 273.117861,0.941176249 C278.058566,0.941176249 282.059035,4.98822706 282.059035,10 C282.056635,10.1697133 282.1458,10.32757 282.292387,10.4131259 C282.438974,10.4986818 282.620273,10.4986818 282.76686,10.4131259 C282.913447,10.32757 283.002612,10.1697133 283.000259,10 C283.000259,4.485846 278.573624,0 273.117861,0 L273.117861,0 Z M263.41951,9.52204952 C263.17699,9.54860762 262.994973,9.75608891 263.000106,10.0000024 C263.000106,15.5141187 267.427509,20 272.882567,20 C276.475507,20 279.647036,18.0722828 281.382565,15.169107 L281.382565,17.941177 C281.380165,18.1108879 281.46933,18.2687446 281.615917,18.3543005 C281.762504,18.4398564 281.943802,18.4398564 282.090389,18.3543005 C282.236976,18.2687446 282.326141,18.1108879 282.323788,17.941177 L282.323788,13.4044016 C282.323788,13.1445137 282.113041,12.9338394 281.853153,12.9338134 L277.316448,12.9338134 C277.299285,12.9328724 277.282082,12.9328724 277.264919,12.9338134 C277.00502,12.9480429 276.805866,13.1702676 276.820095,13.4301663 C276.834325,13.6900649 277.05655,13.8892191 277.316448,13.8749897 L281.007741,13.8749897 C279.575742,16.9472242 276.463272,19.0588238 272.882567,19.0588238 C267.942568,19.0588238 263.941393,15.0117424 263.941393,10.0000024 C263.944309,9.86450707 263.888673,9.73433121 263.788727,9.64279822 C263.688781,9.55126522 263.554228,9.50726079 263.41951,9.52204952 L263.41951,9.52204952 Z" id="icon/filter/icon-filter-reset"></path>
            </g>
        </g>
    </g>
</svg>